<svg width="20" height="20" viewBox="0 0 20 20" fill="none" xmlns="http://www.w3.org/2000/svg">
    <path d="M10 0C4.48603 0 0 4.48604 0 10C0 15.514 4.48603 20 10 20C15.514 20 20 15.514 20 10C20 4.48604 15.514 0 10 0ZM10 1.5C14.7033 1.5 18.5 5.2967 18.5 10C18.5 14.7033 14.7033 18.5 10 18.5C5.29669 18.5 1.5 14.7033 1.5 10C1.5 5.2967 5.29669 1.5 10 1.5ZM10 4C9.0625 4 8.26441 4.37857 7.75195 4.95508C7.2395 5.53159 7 6.27083 7 7C7 7.72917 7.2395 8.46841 7.75195 9.04492C8.26441 9.62143 9.0625 10 10 10C10.9375 10 11.7356 9.62143 12.248 9.04492C12.7605 8.46841 13 7.72917 13 7C13 6.27083 12.7605 5.53159 12.248 4.95508C11.7356 4.37857 10.9375 4 10 4ZM10 5.5C10.5625 5.5 10.8894 5.68393 11.127 5.95117C11.3645 6.21841 11.5 6.60417 11.5 7C11.5 7.39583 11.3645 7.78159 11.127 8.04883C10.8894 8.31607 10.5625 8.5 10 8.5C9.4375 8.5 9.11059 8.31607 8.87305 8.04883C8.6355 7.78159 8.5 7.39583 8.5 7C8.5 6.60417 8.6355 6.21841 8.87305 5.95117C9.11059 5.68393 9.4375 5.5 10 5.5ZM6.62988 11C5.73913 11 5 11.7385 5 12.6299V13.1709C5 14.1649 5.62826 15.0287 6.52344 15.5996C7.41862 16.1705 8.61464 16.501 10 16.501C11.3854 16.501 12.5814 16.1705 13.4766 15.5996C14.3717 15.0287 15 14.1649 15 13.1709V12.6299C15 11.7391 14.2615 11 13.3701 11H6.62988ZM6.62988 12.5H13.3701C13.4508 12.5 13.5 12.5496 13.5 12.6299V13.1709C13.5 13.5269 13.2679 13.9536 12.6699 14.335C12.072 14.7163 11.1421 15.001 10 15.001C8.85786 15.001 7.92802 14.7163 7.33008 14.335C6.73213 13.9536 6.5 13.5269 6.5 13.1709V12.6299C6.5 12.5492 6.54963 12.5 6.62988 12.5Z" fill="#A9AFC6"/>
</svg>
