<svg width="20" height="20" viewBox="0 0 20 20" fill="none" xmlns="http://www.w3.org/2000/svg">
<path d="M10 0C4.486 0 0 4.486 0 10C0 15.514 4.486 20 10 20C15.514 20 20 15.514 20 10C20 4.486 15.514 0 10 0ZM10 4.5C11.3805 4.5 12.5 5.6195 12.5 7C12.5 8.3805 11.3805 9.5 10 9.5C8.6195 9.5 7.5 8.3805 7.5 7C7.5 5.6195 8.6195 4.5 10 4.5ZM14.5 12.769C14.5 14.1985 12.6765 15.5 10 15.5C7.3235 15.5 5.5 14.1985 5.5 12.769V12.431C5.5 11.917 5.917 11.5 6.431 11.5H13.569C14.083 11.5 14.5 11.917 14.5 12.431V12.769Z" fill="#0B132B"/>
</svg>
