<svg width="22" height="22" viewBox="0 0 22 22" fill="none" xmlns="http://www.w3.org/2000/svg">
<path d="M7.5 0C4.74746 0 2.5 2.24746 2.5 5C2.5 7.75254 4.74746 10 7.5 10C10.2525 10 12.5 7.75254 12.5 5C12.5 2.24746 10.2525 0 7.5 0ZM7.5 1.5C9.44188 1.5 11 3.05812 11 5C11 6.94188 9.44188 8.5 7.5 8.5C5.55812 8.5 4 6.94188 4 5C4 3.05812 5.55812 1.5 7.5 1.5ZM16.5 11C13.4625 11 11 13.4625 11 16.5C11 19.5375 13.4625 22 16.5 22C19.5375 22 22 19.5375 22 16.5C22 13.4625 19.5375 11 16.5 11ZM2.11133 12C1.08533 12 0.25 12.8923 0.25 13.9893V14.75C0.25 16.3905 1.0977 17.8162 2.6377 18.7637C3.9332 19.5612 5.66 20 7.5 20C8.595 20 9.71576 19.8379 10.7393 19.5049C10.5093 19.0644 10.332 18.5931 10.207 18.1006C9.35853 18.3676 8.4185 18.5 7.5 18.5C4.7305 18.5 1.75 17.3265 1.75 14.75V13.9893C1.75 13.7238 1.91583 13.5 2.11133 13.5H10.7373C11.0248 12.9485 11.3894 12.4445 11.8164 12H2.11133ZM16.5 12.5C16.776 12.5 17 12.724 17 13V16H20C20.276 16 20.5 16.224 20.5 16.5C20.5 16.776 20.276 17 20 17H17V20C17 20.276 16.776 20.5 16.5 20.5C16.224 20.5 16 20.276 16 20V17H13C12.724 17 12.5 16.776 12.5 16.5C12.5 16.224 12.724 16 13 16H16V13C16 12.724 16.224 12.5 16.5 12.5Z" fill="#0B132B"/>
</svg>
