<svg width="10" height="9" viewBox="0 0 10 9" fill="none" xmlns="http://www.w3.org/2000/svg">
<path d="M5.6324 8.75351C5.72979 8.75067 5.82225 8.71004 5.89021 8.64023L9.39021 5.14022C9.46051 5.0699 9.5 4.97453 9.5 4.87509C9.5 4.77565 9.46051 4.68028 9.39021 4.60995L5.89021 1.10995C5.85565 1.07396 5.81427 1.04523 5.76847 1.02543C5.72267 1.00564 5.67338 0.995185 5.62349 0.994678C5.5736 0.994171 5.52411 1.00362 5.47792 1.02248C5.43173 1.04134 5.38977 1.06922 5.35449 1.1045C5.31921 1.13978 5.29132 1.18175 5.27247 1.22794C5.25361 1.27413 5.24416 1.32362 5.24466 1.37351C5.24517 1.4234 5.25563 1.47268 5.27542 1.51848C5.29521 1.56428 5.32395 1.60567 5.35994 1.64022L8.2198 4.50009L0.875074 4.50009C0.825382 4.49939 0.776045 4.50857 0.729932 4.5271C0.683819 4.54563 0.64185 4.57314 0.606461 4.60803C0.571073 4.64292 0.542971 4.6845 0.523791 4.73034C0.504611 4.77619 0.494733 4.82539 0.494733 4.87509C0.494733 4.92479 0.504611 4.97399 0.523791 5.01983C0.542971 5.06568 0.571073 5.10726 0.606461 5.14215C0.64185 5.17704 0.683819 5.20455 0.729932 5.22308C0.776045 5.24161 0.825382 5.25079 0.875074 5.25009L8.2198 5.25009L5.35994 8.10995C5.30584 8.16264 5.2689 8.23043 5.25397 8.30446C5.23904 8.37849 5.2468 8.4553 5.27624 8.52484C5.30568 8.59438 5.35543 8.65342 5.41898 8.69422C5.48253 8.73502 5.55691 8.75568 5.6324 8.75351Z" fill="white"/>
</svg>
