<svg width="16" height="21" viewBox="0 0 16 21" fill="none" xmlns="http://www.w3.org/2000/svg">
    <path d="M5.5188 0.00692136C5.18967 -0.0170226 4.85243 0.0166179 4.52173 0.114343L3.33813 0.464929C2.07691 0.837933 1.09146 1.83862 0.758056 3.10165C0.0177672 5.91052 0.864628 9.23523 3.0686 12.9776C5.26948 16.7149 7.7773 19.0901 10.6096 19.8653C11.8851 20.2144 13.2607 19.8809 14.2268 18.9835L15.1272 18.1485C16.1347 17.2131 16.2849 15.655 15.471 14.5479L14.1702 12.7813C13.4729 11.8343 12.2438 11.431 11.1135 11.7706L9.07837 12.38C8.99294 12.4049 8.7885 12.2886 8.6106 12.1349L8.60962 12.1339C8.29275 11.8583 7.85372 11.3014 7.38403 10.505V10.504C6.8804 9.64863 6.66559 9.08923 6.57935 8.75888C6.49306 8.42837 6.514 8.38817 6.52661 8.27645C6.53317 8.22071 6.55965 8.16906 6.60474 8.12802L6.60571 8.12704L8.12329 6.73934C8.99274 5.94452 9.25521 4.67434 8.76489 3.60556L7.84985 1.60946V1.60848C7.41905 0.669434 6.50592 0.0787335 5.5188 0.00692136ZM5.4104 1.50302C5.8695 1.53732 6.29226 1.81269 6.4856 2.23446L7.40161 4.23056C7.62329 4.71377 7.51213 5.26672 7.11157 5.6329L5.59399 7.01962C5.28289 7.30328 5.08394 7.69003 5.03638 8.10751V8.10849C5.02399 8.21827 4.99471 8.62654 5.12817 9.13778C5.26164 9.64903 5.5372 10.3252 6.09106 11.2657H6.09204C6.60883 12.1422 7.09726 12.8081 7.62622 13.2677H7.6272C7.79898 13.4164 8.51893 14.1064 9.49829 13.8204L9.50122 13.8194L11.5452 13.2071C12.0759 13.0477 12.6434 13.2381 12.9622 13.671L14.2629 15.4376C14.6313 15.9394 14.5669 16.6216 14.1067 17.0489L13.2063 17.8849C12.6305 18.42 11.7754 18.6289 11.0051 18.4181C8.71545 17.7913 6.4497 15.7627 4.36157 12.2169C2.27055 8.66628 1.61654 5.72959 2.20825 3.48446C2.40385 2.74349 3.00314 2.1284 3.76392 1.90341L4.94653 1.55282C5.10059 1.5073 5.25737 1.49158 5.4104 1.50302Z" fill="white"/>
</svg>
