<svg width="16" height="16" viewBox="0 0 16 16" fill="none" xmlns="http://www.w3.org/2000/svg">
<g id="Call Disconnected">
<path id="Vector" d="M4.46589 1.336C4.29945 1.32306 4.12819 1.3415 3.96003 1.39525L3.24258 1.62506C2.53091 1.8524 1.98564 2.46161 1.80964 3.22728C1.3913 5.04661 1.89319 7.26147 3.31419 9.87181C4.73419 12.4788 6.29015 14.0463 7.98281 14.5743C8.69981 14.7979 9.4753 14.6007 10.018 14.0561L10.5629 13.5085C11.0716 12.9979 11.1454 12.1668 10.7354 11.5645L9.9138 10.3575C9.56114 9.83949 8.93477 9.61959 8.35977 9.81126L7.11107 10.2279C6.9444 10.2836 6.75745 10.2543 6.62279 10.1413C6.11445 9.71434 5.68317 9.19597 5.32917 8.5873C4.9745 7.9773 4.74565 7.35883 4.64232 6.73183C4.61532 6.56783 4.6779 6.40184 4.79857 6.28717L5.86953 5.2709C6.32353 4.84023 6.46165 4.14766 6.21198 3.55866L5.63906 2.20709C5.42306 1.69759 4.9652 1.37483 4.46589 1.336ZM13.8292 1.9916C13.6971 1.99472 13.5717 2.04995 13.4802 2.14525L12.0004 3.62506L10.5206 2.14525C10.474 2.09725 10.4182 2.0591 10.3566 2.03304C10.295 2.00698 10.2287 1.99356 10.1618 1.99355C10.0623 1.99358 9.9651 2.02329 9.88258 2.07889C9.80005 2.13448 9.73599 2.21344 9.69859 2.30565C9.66119 2.39786 9.65215 2.49913 9.67262 2.59651C9.6931 2.69389 9.74217 2.78294 9.81354 2.85228L11.2934 4.33209L9.81354 5.81191C9.76556 5.85799 9.72725 5.91317 9.70085 5.97423C9.67446 6.0353 9.66052 6.10101 9.65984 6.16753C9.65917 6.23405 9.67177 6.30004 9.69692 6.36163C9.72206 6.42321 9.75924 6.47917 9.80628 6.52621C9.85332 6.57324 9.90927 6.61042 9.97086 6.63557C10.0324 6.66071 10.0984 6.67332 10.165 6.67264C10.2315 6.67196 10.2972 6.65802 10.3583 6.63163C10.4193 6.60524 10.4745 6.56693 10.5206 6.51894L12.0004 5.03913L13.4802 6.51894C13.5263 6.56693 13.5815 6.60524 13.6425 6.63163C13.7036 6.65802 13.7693 6.67196 13.8358 6.67264C13.9023 6.67332 13.9683 6.66071 14.0299 6.63557C14.0915 6.61042 14.1475 6.57324 14.1945 6.52621C14.2415 6.47917 14.2787 6.42321 14.3039 6.36163C14.329 6.30004 14.3416 6.23405 14.3409 6.16753C14.3403 6.10101 14.3263 6.0353 14.2999 5.97423C14.2735 5.91317 14.2352 5.85799 14.1872 5.81191L12.7074 4.33209L14.1872 2.85228C14.2599 2.78249 14.3099 2.69236 14.3305 2.59371C14.3511 2.49506 14.3414 2.39248 14.3027 2.29943C14.264 2.20638 14.198 2.1272 14.1135 2.07227C14.029 2.01734 13.9299 1.98922 13.8292 1.9916Z" fill="#E81554"/>
</g>
</svg>
