<svg width="15" height="20" viewBox="0 0 15 20" fill="none" xmlns="http://www.w3.org/2000/svg">
<path d="M6.45802 1.31257L7.31752 3.34007C7.69202 4.22357 7.48452 5.26257 6.80352 5.90857L5.19752 7.43257C5.01652 7.60457 4.92252 7.85407 4.96302 8.10007C5.11802 9.04057 5.46152 9.96807 5.99352 10.8831C6.52452 11.7961 7.17102 12.5731 7.93352 13.2136C8.13552 13.3831 8.41602 13.4271 8.66602 13.3436L10.5395 12.7186C11.402 12.4311 12.341 12.7616 12.87 13.5386L14.1025 15.3491C14.7175 16.2526 14.607 17.4986 13.844 18.2646L13.026 19.0856C12.212 19.9026 11.0495 20.1991 9.97402 19.8636C7.43502 19.0716 5.10102 16.7206 2.97102 12.8101C0.838016 8.89407 0.0855155 5.57107 0.713015 2.84207C0.977015 1.69357 1.79452 0.77907 2.86202 0.43807L3.93852 0.0940706C4.94852 -0.227429 6.02602 0.29357 6.45802 1.31257Z" fill="#0B132B"/>
</svg>
