<svg width="13" height="12" viewBox="0 0 13 12" fill="none" xmlns="http://www.w3.org/2000/svg">
    <path d="M11.3334 5.63639e-06C11.4217 -0.00124373 11.5094 0.0150771 11.5914 0.0480196C11.6734 0.0809621 11.748 0.129869 11.8109 0.191899C11.8738 0.253928 11.9238 0.327844 11.9579 0.409348C11.992 0.490853 12.0095 0.578322 12.0095 0.666672C12.0095 0.755022 11.992 0.842491 11.9579 0.923996C11.9238 1.0055 11.8738 1.07942 11.8109 1.14145C11.748 1.20348 11.6734 1.25238 11.5914 1.28532C11.5094 1.31827 11.4217 1.33459 11.3334 1.33334H6.00003C4.88771 1.33334 4.00003 2.22102 4.00003 3.33334V8.66667H5.68623C6.05423 8.66667 6.24615 9.105 5.99482 9.375L3.71227 11.8372C3.4956 12.0539 3.14378 12.0539 2.92711 11.8372L0.64456 9.375C0.393893 9.105 0.584486 8.66667 0.953153 8.66667H2.66669V3.33334C2.66669 1.50033 4.16702 5.63639e-06 6.00003 5.63639e-06H11.3334Z" fill="#E81539"/>
</svg>
