<svg width="16" height="21" viewBox="0 0 16 21" fill="none" xmlns="http://www.w3.org/2000/svg">
    <path d="M5.5188 0.00740964C5.18967 -0.0165344 4.85243 0.0171062 4.52173 0.114832L3.33813 0.465418C2.07691 0.838421 1.09146 1.83911 0.758056 3.10214C0.0177672 5.91101 0.864628 9.23572 3.0686 12.9781C5.26948 16.7153 7.7773 19.0905 10.6096 19.8658C11.8851 20.2149 13.2607 19.8814 14.2268 18.984L15.1272 18.149C16.1347 17.2136 16.2849 15.6555 15.4709 14.5484L14.1702 12.7818C13.4729 11.8347 12.2438 11.4315 11.1135 11.7711L9.07837 12.3805C8.99294 12.4054 8.7885 12.2891 8.6106 12.1353L8.60962 12.1344C8.29275 11.8588 7.85372 11.3019 7.38403 10.5055V10.5045C6.8804 9.64912 6.66559 9.08972 6.57935 8.75936C6.49306 8.42886 6.514 8.38866 6.52661 8.27694C6.53317 8.2212 6.55965 8.16955 6.60474 8.1285L6.60571 8.12753L8.12329 6.73983C8.99274 5.94501 9.25521 4.67483 8.76489 3.60604L7.84985 1.60995V1.60897C7.41905 0.669922 6.50592 0.0792218 5.5188 0.00740964ZM5.4104 1.5035C5.8695 1.53781 6.29226 1.81318 6.4856 2.23495L7.40161 4.23104C7.62329 4.71425 7.51213 5.26721 7.11157 5.63339L5.59399 7.02011C5.28289 7.30377 5.08394 7.69051 5.03638 8.108V8.10897C5.02399 8.21876 4.99471 8.62702 5.12817 9.13827C5.26164 9.64952 5.5372 10.3257 6.09106 11.2662H6.09204C6.60883 12.1427 7.09726 12.8086 7.62622 13.2682H7.6272C7.79898 13.4169 8.51893 14.1069 9.49829 13.8209L9.50122 13.8199L11.5452 13.2076C12.0759 13.0482 12.6434 13.2386 12.9622 13.6715L14.2629 15.4381C14.6313 15.9399 14.5669 16.6221 14.1067 17.0494L13.2063 17.8853C12.6305 18.4205 11.7754 18.6294 11.0051 18.4185C8.71545 17.7918 6.4497 15.7631 4.36157 12.2174C2.27055 8.66677 1.61654 5.73008 2.20825 3.48495C2.40385 2.74397 3.00314 2.12889 3.76392 1.90389L4.94653 1.55331C5.10059 1.50778 5.25737 1.49207 5.4104 1.5035Z" fill="#A9AFC6"/>
</svg>
