<svg width="13" height="12" viewBox="0 0 13 12" fill="none" xmlns="http://www.w3.org/2000/svg">
    <path d="M9.67836 0.001297C9.53619 0.001297 9.39476 0.054422 9.28643 0.162755L7.00388 2.62499C6.75255 2.89499 6.94381 3.33333 7.31247 3.33333H8.99997V8.66666C8.99997 9.77898 8.1123 10.6667 6.99997 10.6667H1.66664C1.5783 10.6654 1.49059 10.6817 1.40861 10.7147C1.32663 10.7476 1.25202 10.7965 1.18911 10.8586C1.12619 10.9206 1.07623 10.9945 1.04214 11.076C1.00804 11.1575 0.990479 11.245 0.990479 11.3333C0.990479 11.4217 1.00804 11.5091 1.04214 11.5907C1.07623 11.6722 1.12619 11.7461 1.18911 11.8081C1.25202 11.8701 1.32663 11.919 1.40861 11.952C1.49059 11.9849 1.5783 12.0012 1.66664 12H6.99997C8.83298 12 10.3333 10.4997 10.3333 8.66666V3.33333H12.0442C12.4122 3.33333 12.6048 2.89499 12.3541 2.62499L10.0716 0.162755C9.96325 0.054422 9.82053 0.001297 9.67836 0.001297Z" fill="#06BD4F"/>
</svg>
