<svg width="22" height="10" viewBox="0 0 22 10" fill="none" xmlns="http://www.w3.org/2000/svg">
    <path d="M20.4076 3.17602C18.4876 1.16002 15.3196 0.296021 11.0956 0.296021C6.96758 0.296021 3.70358 1.25602 1.68758 3.17602C0.823579 4.04002 0.34358 5.38402 0.63158 6.63202L0.91958 7.68802C1.20758 8.93602 2.45558 9.89602 3.70358 9.70402L5.81558 9.51202C6.96758 9.41602 7.83158 8.55202 8.11958 7.49602L8.59958 5.48002C8.59958 5.38402 8.79158 5.28802 8.98358 5.19202C9.36758 5.09602 10.0396 5.00002 10.9036 5.00002C11.8636 5.00002 12.4396 5.09602 12.7276 5.19202C13.0156 5.28802 13.1116 5.28802 13.1116 5.38402L13.2076 5.48002L13.5916 7.40002C13.7836 8.55202 14.7436 9.32002 15.8956 9.41602L18.0076 9.60802C18.9676 9.70402 19.9276 9.22402 20.5036 8.45602C20.6956 8.16802 20.7916 7.88002 20.8876 7.59202L21.1756 6.44002C21.5596 5.38402 21.2716 4.04002 20.4076 3.17602ZM19.9276 6.24802L19.6396 7.40002C19.6396 7.59202 19.5436 7.68802 19.4476 7.78402C19.1596 8.16802 18.7756 8.36002 18.2956 8.36002L16.1836 8.16802C15.7036 8.07202 15.3196 7.78402 15.1276 7.20802L14.7436 5.28802C14.6476 4.90402 14.4556 4.52002 14.0716 4.32802C13.9756 4.23202 13.6876 4.04002 13.2076 3.94402C12.7276 3.84802 12.0556 3.65602 10.9996 3.75202C10.0396 3.75202 9.27158 3.84802 8.59958 4.04002C8.40758 4.13602 7.44758 4.32802 7.25558 5.28802L6.77558 7.30402C6.67958 7.78402 6.19958 8.16802 5.71958 8.26402L3.60758 8.45602C3.03158 8.55202 2.45558 8.16802 2.35958 7.49602L2.07158 6.34402C1.87958 5.48002 2.16758 4.71202 2.74358 4.13602C4.37558 2.60002 7.15958 1.64002 11.0956 1.64002C15.0316 1.64002 17.8156 2.50402 19.3516 4.13602C19.8316 4.71202 20.1196 5.48002 19.9276 6.24802Z" fill="white"/>
</svg>
