<svg width="20" height="20" viewBox="0 0 20 20" fill="none" xmlns="http://www.w3.org/2000/svg">
<path d="M8.23633 0.5C7.43883 0.5 6.69447 0.927711 6.29297 1.61621L5.19434 3.5H3.25C1.458 3.5 0 4.958 0 6.75V16.25C0 18.042 1.458 19.5 3.25 19.5H16.75C18.542 19.5 20 18.042 20 16.25V6.75C20 4.958 18.542 3.5 16.75 3.5H14.8057L13.707 1.61621C13.3055 0.927711 12.5612 0.5 11.7637 0.5H8.23633ZM10 6.5C12.481 6.5 14.5 8.5185 14.5 11C14.5 13.4815 12.481 15.5 10 15.5C7.519 15.5 5.5 13.4815 5.5 11C5.5 8.5185 7.519 6.5 10 6.5ZM10 8C9.20435 8 8.44129 8.31607 7.87868 8.87868C7.31607 9.44129 7 10.2044 7 11C7 11.7956 7.31607 12.5587 7.87868 13.1213C8.44129 13.6839 9.20435 14 10 14C10.7956 14 11.5587 13.6839 12.1213 13.1213C12.6839 12.5587 13 11.7956 13 11C13 10.2044 12.6839 9.44129 12.1213 8.87868C11.5587 8.31607 10.7956 8 10 8Z" fill="white"/>
</svg>
