<svg width="24" height="18" viewBox="0 0 24 18" fill="none" xmlns="http://www.w3.org/2000/svg">
    <path d="M5.63616 2.63606C5.29966 2.97256 5.01257 3.32695 4.75297 3.67945C4.69068 3.75842 4.64491 3.8491 4.61838 3.94611C4.59185 4.04313 4.5851 4.14448 4.59853 4.24416C4.61196 4.34383 4.6453 4.43978 4.69657 4.52631C4.74783 4.61284 4.81597 4.68817 4.89694 4.74784C4.97791 4.8075 5.07005 4.85026 5.16788 4.8736C5.26571 4.89693 5.36723 4.90035 5.46641 4.88365C5.56559 4.86695 5.6604 4.83048 5.7452 4.7764C5.83 4.72232 5.90305 4.65174 5.96002 4.56886C6.19045 4.25598 6.43087 3.96267 6.69682 3.69672C9.63216 0.761375 14.3681 0.761376 17.3034 3.69672C18.6944 5.08769 19.4081 6.88151 19.4779 8.69964L18.1873 7.40903C18.1173 7.33703 18.0336 7.27981 17.9412 7.24075C17.8487 7.2017 17.7493 7.18161 17.6489 7.18167C17.5485 7.18174 17.4491 7.20195 17.3567 7.24113C17.2643 7.2803 17.1806 7.33763 17.1108 7.40972C16.9724 7.55244 16.8964 7.74425 16.8994 7.94299C16.9024 8.14173 16.9841 8.33117 17.1266 8.46969L19.6015 10.9446C19.7422 11.0852 19.9329 11.1642 20.1318 11.1642C20.3308 11.1642 20.5215 11.0852 20.6622 10.9446L23.1371 8.46969C23.2083 8.40041 23.2651 8.31765 23.3041 8.22623C23.3431 8.13481 23.3636 8.03655 23.3643 7.93716C23.365 7.83777 23.3459 7.73923 23.3082 7.64727C23.2705 7.55531 23.2149 7.47176 23.1446 7.40148C23.0743 7.33119 22.9908 7.27558 22.8988 7.23787C22.8068 7.20016 22.7083 7.1811 22.6089 7.1818C22.5095 7.18251 22.4113 7.20295 22.3198 7.24196C22.2284 7.28097 22.1457 7.33776 22.0764 7.40903L20.9784 8.50698C20.8633 6.37065 19.9937 4.2657 18.3641 2.63606C14.8556 -0.872465 9.14468 -0.872466 5.63616 2.63606ZM0.863192 9.53035C0.791923 9.59963 0.735134 9.68238 0.696126 9.7738C0.657118 9.86522 0.636668 9.96348 0.635966 10.0629C0.635263 10.1623 0.654321 10.2608 0.692033 10.3528C0.729744 10.4447 0.785357 10.5283 0.855639 10.5986C0.925921 10.6688 1.00947 10.7245 1.10143 10.7622C1.19339 10.7999 1.29193 10.8189 1.39133 10.8182C1.49072 10.8175 1.58898 10.7971 1.6804 10.7581C1.77182 10.7191 1.85457 10.6623 1.92385 10.591L3.0218 9.49306C3.13699 11.6294 4.00652 13.7343 5.63616 15.364C9.14468 18.8725 14.8556 18.8725 18.3641 15.364C18.7006 15.0275 18.9877 14.6731 19.2473 14.3206C19.3096 14.2416 19.3553 14.1509 19.3819 14.0539C19.4084 13.9569 19.4151 13.8556 19.4017 13.7559C19.3883 13.6562 19.3549 13.5603 19.3037 13.4737C19.2524 13.3872 19.1843 13.3119 19.1033 13.2522C19.0223 13.1925 18.9302 13.1498 18.8324 13.1264C18.7345 13.1031 18.633 13.0997 18.5338 13.1164C18.4347 13.1331 18.3398 13.1696 18.255 13.2236C18.1702 13.2777 18.0972 13.3483 18.0402 13.4312C17.8098 13.7441 17.5694 14.0374 17.3034 14.3033C14.3681 17.2387 9.63216 17.2387 6.69682 14.3033C5.30585 12.9123 4.59213 11.1185 4.52233 9.3004L5.81294 10.591C5.88222 10.6623 5.96497 10.7191 6.05639 10.7581C6.14781 10.7971 6.24607 10.8175 6.34547 10.8182C6.44486 10.8189 6.5434 10.7999 6.63536 10.7622C6.72732 10.7245 6.81087 10.6688 6.88115 10.5986C6.95143 10.5283 7.00705 10.4447 7.04476 10.3528C7.08247 10.2608 7.10153 10.1623 7.10083 10.0629C7.10012 9.96348 7.07967 9.86522 7.04066 9.7738C7.00166 9.68238 6.94487 9.59963 6.8736 9.53035L4.39872 7.05547C4.25806 6.91484 4.0673 6.83583 3.86839 6.83583C3.66949 6.83583 3.47873 6.91484 3.33807 7.05547L0.863192 9.53035ZM9.8788 6.8787C9.21589 7.54161 8.91924 8.37363 8.96454 9.14365C9.00983 9.91366 9.3632 10.6057 9.8788 11.1213C10.3944 11.6369 11.0865 11.9903 11.8565 12.0356C12.6265 12.0809 13.4585 11.7842 14.1214 11.1213C14.7844 10.4584 15.081 9.6264 15.0357 8.85639C14.9904 8.08637 14.637 7.39429 14.1214 6.8787C13.6058 6.3631 12.9138 6.00972 12.1438 5.96443C11.3737 5.91913 10.5417 6.21578 9.8788 6.8787ZM10.9395 7.93936C11.3372 7.54161 11.6984 7.44051 12.0554 7.46151C12.4123 7.4825 12.7809 7.65946 13.0608 7.93936C13.3407 8.21925 13.5176 8.58784 13.5386 8.94477C13.5596 9.30171 13.4585 9.66293 13.0608 10.0607C12.663 10.4584 12.3018 10.5595 11.9449 10.5385C11.5879 10.5175 11.2194 10.3406 10.9395 10.0607C10.6596 9.78078 10.4826 9.4122 10.4616 9.05526C10.4406 8.69832 10.5417 8.3371 10.9395 7.93936Z" fill="white"/>
</svg>
