<svg width="34" height="32" viewBox="0 0 34 32" fill="none" xmlns="http://www.w3.org/2000/svg">
<path d="M14.0592 0.166748C12.7272 0.166748 11.4911 0.876694 10.8203 2.0271L8.98926 5.16675H5.7487C2.77208 5.16675 0.332031 7.6068 0.332031 10.5834V26.4167C0.332031 29.3934 2.77208 31.8334 5.7487 31.8334H28.2487C31.2253 31.8334 33.6654 29.3934 33.6654 26.4167V10.5834C33.6654 7.6068 31.2253 5.16675 28.2487 5.16675H25.0081L23.1771 2.0271C22.5063 0.876694 21.2701 0.166748 19.9382 0.166748H14.0592ZM14.0592 2.66675H19.9382C20.3845 2.66675 20.793 2.90227 21.0173 3.28687L23.2113 7.04663C23.3213 7.23523 23.4788 7.39173 23.6682 7.50052C23.8575 7.60932 24.072 7.66663 24.2904 7.66675H28.2487C29.8738 7.66675 31.1654 8.95836 31.1654 10.5834V26.4167C31.1654 28.0418 29.8738 29.3334 28.2487 29.3334H5.7487C4.12365 29.3334 2.83203 28.0418 2.83203 26.4167V10.5834C2.83203 8.95836 4.12365 7.66675 5.7487 7.66675H9.70703C9.92539 7.66663 10.1399 7.60932 10.3292 7.50052C10.5186 7.39173 10.6761 7.23523 10.7861 7.04663L12.9801 3.28687C13.2044 2.90227 13.6129 2.66675 14.0592 2.66675ZM16.9987 10.1667C12.8714 10.1667 9.4987 13.5394 9.4987 17.6667C9.4987 21.7941 12.8714 25.1667 16.9987 25.1667C21.126 25.1667 24.4987 21.7941 24.4987 17.6667C24.4987 13.5394 21.126 10.1667 16.9987 10.1667ZM16.9987 12.6667C19.7749 12.6667 21.9987 14.8905 21.9987 17.6667C21.9987 20.443 19.7749 22.6667 16.9987 22.6667C14.2225 22.6667 11.9987 20.443 11.9987 17.6667C11.9987 14.8905 14.2225 12.6667 16.9987 12.6667Z" fill="#02AEA4"/>
</svg>
