<svg width="20" height="20" viewBox="0 0 20 20" fill="none" xmlns="http://www.w3.org/2000/svg">
    <path d="M10 -0.000976562C4.48615 -0.000976562 0 4.48517 0 9.99902C0 11.6367 0.431354 13.1674 1.13086 14.5322L0.046875 18.4131C-0.205601 19.3148 0.685963 20.2063 1.58789 19.9541L5.47168 18.8701C6.83537 19.5682 8.36388 19.999 10 19.999C15.5139 19.999 20 15.5129 20 9.99902C20 4.48517 15.5139 -0.000976562 10 -0.000976562ZM10 1.49902C14.7031 1.49902 18.5 5.29588 18.5 9.99902C18.5 14.7022 14.7031 18.499 10 18.499C8.49921 18.499 7.0953 18.1088 5.87109 17.4268C5.69853 17.3306 5.495 17.3064 5.30469 17.3594L1.61133 18.3896L2.64258 14.6982C2.69585 14.5076 2.67163 14.3037 2.5752 14.1309C1.89183 12.9058 1.5 11.5013 1.5 9.99902C1.5 5.29588 5.29685 1.49902 10 1.49902ZM6.5 9C5.9475 9 5.5 9.4475 5.5 10C5.5 10.5525 5.9475 11 6.5 11C7.0525 11 7.5 10.5525 7.5 10C7.5 9.4475 7.0525 9 6.5 9ZM10 9C9.4475 9 9 9.4475 9 10C9 10.5525 9.4475 11 10 11C10.5525 11 11 10.5525 11 10C11 9.4475 10.5525 9 10 9ZM13.5 9C12.9475 9 12.5 9.4475 12.5 10C12.5 10.5525 12.9475 11 13.5 11C14.0525 11 14.5 10.5525 14.5 10C14.5 9.4475 14.0525 9 13.5 9Z" fill="white"/>
</svg>
