<svg width="20" height="20" viewBox="0 0 20 20" fill="none" xmlns="http://www.w3.org/2000/svg">
    <path d="M20 10C20 15.514 15.514 20 10 20C8.4085 20 6.831 19.615 5.4175 18.8855L1.587 19.955C1.4765 19.985 1.364 20 1.252 20C0.9245 20 0.604 19.871 0.3665 19.634C0.0479999 19.315 -0.0745 18.848 0.0465 18.4145L1.116 14.586C0.385 13.171 0 11.5925 0 10C0 4.4855 4.486 0 10 0C15.514 0 20 4.4855 20 10ZM10 9C9.4475 9 9 9.4475 9 10C9 10.5525 9.4475 11 10 11C10.5525 11 11 10.5525 11 10C11 9.4475 10.5525 9 10 9ZM13.5 9C12.9475 9 12.5 9.4475 12.5 10C12.5 10.5525 12.9475 11 13.5 11C14.0525 11 14.5 10.5525 14.5 10C14.5 9.4475 14.0525 9 13.5 9ZM6.5 9C5.9475 9 5.5 9.4475 5.5 10C5.5 10.5525 5.9475 11 6.5 11C7.0525 11 7.5 10.5525 7.5 10C7.5 9.4475 7.0525 9 6.5 9Z" fill="#A9AFC6"/>
</svg>
