<svg width="20" height="20" viewBox="0 0 20 20" fill="none" xmlns="http://www.w3.org/2000/svg">
    <path d="M10 0C4.48603 0 0 4.48604 0 10C0 15.514 4.48603 20 10 20C15.514 20 20 15.514 20 10C20 4.48604 15.514 0 10 0ZM10 1.5C14.7033 1.5 18.5 5.2967 18.5 10C18.5 14.7033 14.7033 18.5 10 18.5C5.29669 18.5 1.5 14.7033 1.5 10C1.5 5.2967 5.29669 1.5 10 1.5ZM13.2432 5.98926C13.0451 5.99394 12.8569 6.07679 12.7197 6.21973L10 8.93945L7.28027 6.21973C7.21036 6.14773 7.12672 6.0905 7.03429 6.05142C6.94187 6.01233 6.84254 5.99219 6.74219 5.99219C6.59293 5.99222 6.44707 6.03679 6.32328 6.12019C6.19949 6.20358 6.1034 6.32202 6.0473 6.46033C5.99119 6.59865 5.97763 6.75056 6.00835 6.89662C6.03907 7.04269 6.11267 7.17627 6.21973 7.28027L8.93945 10L6.21973 12.7197C6.14775 12.7888 6.09028 12.8716 6.0507 12.9632C6.01111 13.0548 5.9902 13.1534 5.98918 13.2532C5.98817 13.3529 6.00707 13.4519 6.04479 13.5443C6.08251 13.6367 6.13828 13.7206 6.20883 13.7912C6.27939 13.8617 6.36332 13.9175 6.4557 13.9552C6.54808 13.9929 6.64706 14.0118 6.74684 14.0108C6.84662 14.0098 6.9452 13.9889 7.03679 13.9493C7.12839 13.9097 7.21116 13.8523 7.28027 13.7803L10 11.0605L12.7197 13.7803C12.7888 13.8523 12.8716 13.9097 12.9632 13.9493C13.0548 13.9889 13.1534 14.0098 13.2532 14.0108C13.3529 14.0118 13.4519 13.9929 13.5443 13.9552C13.6367 13.9175 13.7206 13.8617 13.7912 13.7912C13.8617 13.7206 13.9175 13.6367 13.9552 13.5443C13.9929 13.4519 14.0118 13.3529 14.0108 13.2532C14.0098 13.1534 13.9889 13.0548 13.9493 12.9632C13.9097 12.8716 13.8523 12.7888 13.7803 12.7197L11.0605 10L13.7803 7.28027C13.8893 7.17559 13.9642 7.0404 13.9951 6.89242C14.026 6.74444 14.0115 6.59058 13.9534 6.451C13.8953 6.31143 13.7965 6.19266 13.6697 6.11026C13.543 6.02787 13.3943 5.98569 13.2432 5.98926Z" fill="#1A1A1A"/>
</svg>
