<svg width="17" height="20" viewBox="0 0 17 20" fill="none" xmlns="http://www.w3.org/2000/svg">
    <path d="M2.75 0C1.24011 0 0 1.24011 0 2.75V16V16.75V17.25C0 18.7599 1.24011 20 2.75 20H15.75C15.8494 20.0014 15.9481 19.983 16.0403 19.946C16.1325 19.9089 16.2164 19.8539 16.2872 19.7841C16.358 19.7143 16.4142 19.6312 16.4526 19.5395C16.4909 19.4478 16.5107 19.3494 16.5107 19.25C16.5107 19.1506 16.4909 19.0522 16.4526 18.9605C16.4142 18.8688 16.358 18.7857 16.2872 18.7159C16.2164 18.6461 16.1325 18.5911 16.0403 18.554C15.9481 18.517 15.8494 18.4986 15.75 18.5H2.75C2.13662 18.5 1.63862 18.0762 1.52539 17.5H15.75C15.9489 17.5 16.1397 17.421 16.2803 17.2803C16.421 17.1397 16.5 16.9489 16.5 16.75V2.75C16.5 1.24011 15.2599 0 13.75 0H2.75ZM2.75 1.5H13.75C14.4491 1.5 15 2.05089 15 2.75V16H1.5V2.75C1.5 2.05089 2.05089 1.5 2.75 1.5ZM8.25 3.5C7.01625 3.5 6 4.51625 6 5.75C6 6.98375 7.01625 8 8.25 8C9.48375 8 10.5 6.98375 10.5 5.75C10.5 4.51625 9.48375 3.5 8.25 3.5ZM8.25 5C8.67325 5 9 5.32675 9 5.75C9 6.17325 8.67325 6.5 8.25 6.5C7.82675 6.5 7.5 6.17325 7.5 5.75C7.5 5.32675 7.82675 5 8.25 5ZM5.75 9C5.0682 9 4.5 9.5682 4.5 10.25V11.5C4.5 12.3306 5.06467 12.9854 5.75098 13.3857C6.43728 13.7861 7.30329 14 8.25 14C9.19671 14 10.0627 13.7861 10.749 13.3857C11.4353 12.9854 12 12.3306 12 11.5V10.25C12 9.5682 11.4318 9 10.75 9H5.75ZM6 10.5H10.5V11.5C10.5 11.6359 10.3926 11.8568 9.99316 12.0898C9.59372 12.3229 8.96029 12.5 8.25 12.5C7.53971 12.5 6.90628 12.3229 6.50684 12.0898C6.10739 11.8568 6 11.6359 6 11.5V10.5Z" fill="#039200"/>
</svg>
