<svg width="18" height="18" viewBox="0 0 18 18" fill="none" xmlns="http://www.w3.org/2000/svg">
    <path d="M4.75 0C2.1265 0 0 2.1265 0 4.75V13.4297C0 14.0982 0.334125 14.7227 0.890625 15.0938L1.5 15.5V4.75C1.5 2.955 2.955 1.5 4.75 1.5H15.5L15.0938 0.890625C14.7233 0.334125 14.0987 0 13.4297 0H4.75ZM5.25 2.5C3.74011 2.5 2.5 3.74011 2.5 5.25V15.25C2.5 16.7599 3.74011 18 5.25 18H15.25C16.7599 18 18 16.7599 18 15.25V5.25C18 3.74011 16.7599 2.5 15.25 2.5H5.25ZM5.25 4H15.25C15.9491 4 16.5 4.55089 16.5 5.25V15.25C16.5 15.9491 15.9491 16.5 15.25 16.5H5.25C4.55089 16.5 4 15.9491 4 15.25V5.25C4 4.55089 4.55089 4 5.25 4Z" fill="#A9AFC6"/>
</svg>
