<svg width="69" height="22" viewBox="0 0 69 22" fill="none" xmlns="http://www.w3.org/2000/svg">
<path d="M25.1595 14.9799C27.0903 14.9799 28.4611 13.9058 28.7421 12.1918C28.7616 12.0732 28.6686 11.9658 28.5489 11.9658H27.2554C27.1657 11.9658 27.089 12.0274 27.0662 12.1152C26.8399 13.0065 26.1304 13.5475 25.1647 13.5475C23.8504 13.5475 23.0258 12.459 23.0258 10.6939C23.0258 8.92888 23.8621 7.85805 25.1595 7.85805C26.1089 7.85805 26.8542 8.45601 27.0643 9.38275C27.0844 9.47248 27.1631 9.53666 27.2541 9.53666H28.5502C28.6673 9.53666 28.7596 9.43318 28.744 9.3166C28.5145 7.58691 27.0545 6.42505 25.1595 6.42505C22.7813 6.42505 21.2739 8.03489 21.2739 10.6992C21.2739 13.3635 22.7702 14.9792 25.1595 14.9792V14.9799Z" fill="#7F7F87"/>
<path d="M31.9888 8.42084C30.1055 8.42084 28.8992 9.66391 28.8992 11.6811C28.8992 13.6983 30.088 14.9473 31.9888 14.9473C33.8897 14.9473 35.0785 13.7265 35.0785 11.6811C35.0785 9.63575 33.878 8.42084 31.9888 8.42084V8.42084ZM31.9888 13.6571C31.1122 13.6571 30.5835 12.9353 30.5835 11.6811C30.5835 10.4269 31.1129 9.70452 31.9888 9.70452C32.8648 9.70452 33.3883 10.438 33.3883 11.6811C33.3883 12.9242 32.8648 13.6571 31.9888 13.6571Z" fill="#7F7F87"/>
<path d="M35.5835 14.8385H36.8549C36.9628 14.8385 37.05 14.7507 37.05 14.642V11.309C37.05 10.4268 37.5448 9.89958 38.387 9.89958C38.5541 9.89958 38.7128 9.91858 38.8422 9.94805C38.9235 9.96704 39.0009 9.90613 39.0009 9.8223C39.0009 9.48566 39.0009 8.76196 39.0009 8.56744C39.0009 8.53731 38.9807 8.51177 38.9521 8.50391C38.837 8.47313 38.6861 8.45544 38.5177 8.45544C37.7783 8.45544 37.2379 8.87919 37.0272 9.65857H36.9934V8.72659C36.9934 8.61787 36.9062 8.53011 36.7983 8.53011H35.5841C35.4762 8.53011 35.389 8.61787 35.389 8.72659V14.642C35.389 14.7507 35.4762 14.8385 35.5841 14.8385H35.5835Z" fill="#7F7F87"/>
<path d="M44.4598 12.0702C44.5678 12.0702 44.6549 11.9824 44.6549 11.8737V11.5547C44.6549 9.63509 43.5058 8.42084 41.7019 8.42084C39.8979 8.42084 38.6922 9.70386 38.6922 11.7093C38.6922 13.7147 39.8589 14.9466 41.7643 14.9466C43.1833 14.9466 44.2621 14.2419 44.5515 13.1606C44.5847 13.0355 44.4911 12.9131 44.363 12.9131H43.1625C43.1104 12.9131 43.0636 12.9438 43.0435 12.9917C42.8588 13.4318 42.3834 13.6977 41.7923 13.6977C40.9163 13.6977 40.331 13.0853 40.331 12.1736V12.0702H44.4592H44.4598ZM41.7194 9.66915C42.4868 9.66915 43.022 10.2075 43.05 11.0327H40.3479C40.4045 10.2245 40.9625 9.66915 41.7194 9.66915V9.66915Z" fill="#7F7F87"/>
<path d="M48.5067 6.56941H45.2766C45.1686 6.56941 45.0815 6.65717 45.0815 6.76589V14.6409C45.0815 14.7496 45.1686 14.8374 45.2766 14.8374H46.6045C46.7125 14.8374 46.7996 14.7496 46.7996 14.6409V12.23H48.4209C50.1507 12.23 51.3512 11.0957 51.3512 9.3994C51.3512 7.70311 50.1904 6.56876 48.5067 6.56876V6.56941ZM48.0456 10.8783H46.799V7.93889H48.0508C49.0348 7.93889 49.6038 8.46611 49.6038 9.40595C49.6038 10.3458 49.0289 10.8783 48.045 10.8783H48.0456Z" fill="#7F7F87"/>
<path d="M54.0167 8.42084C52.5522 8.42084 51.5117 9.14913 51.3472 10.2291C51.3289 10.3477 51.4213 10.4551 51.5403 10.4551H52.7421C52.8006 10.4551 52.8507 10.4158 52.8669 10.3588C52.9853 9.95208 53.3885 9.67504 53.9484 9.67504C54.6306 9.67504 55.0468 10.0071 55.0468 10.6149V11.0327L53.4821 11.1303C51.883 11.2279 51.0129 11.8756 51.0129 13.0218C51.0129 14.1679 51.9175 14.9126 53.1238 14.9126C53.9257 14.9126 54.6995 14.5222 55.0409 13.864H55.0754V14.6414C55.0754 14.7502 55.1625 14.8379 55.2705 14.8379H56.4846C56.5926 14.8379 56.6797 14.7502 56.6797 14.6414V10.5121C56.6797 9.25195 55.6275 8.42084 54.0173 8.42084H54.0167ZM55.0468 12.5234C55.0468 13.2104 54.4322 13.6918 53.6636 13.6918C53.0607 13.6918 52.6686 13.3997 52.6686 12.936C52.6686 12.4723 53.0386 12.1966 53.7319 12.1514L55.0468 12.059V12.524V12.5234Z" fill="#7F7F87"/>
<path d="M57.1073 10.3863C57.1073 11.3085 57.716 11.9221 58.8938 12.1913L60.0487 12.4546C60.6177 12.5921 60.8336 12.7637 60.8336 13.0906C60.8336 13.5032 60.4298 13.7612 59.7697 13.7612C59.1097 13.7612 58.711 13.5005 58.5946 13.0303C58.5803 12.972 58.5289 12.9301 58.4684 12.9301H57.1743C57.0521 12.9301 56.9604 13.0421 56.9818 13.1632C57.1763 14.2465 58.1817 14.9473 59.7236 14.9473C61.3617 14.9473 62.4828 14.1398 62.4828 12.9131C62.4828 11.9732 61.9821 11.4866 60.725 11.1997L59.5473 10.9417C58.9841 10.8101 58.711 10.5979 58.711 10.2828C58.711 9.87611 59.109 9.60693 59.7066 9.60693C60.3043 9.60693 60.6958 9.87677 60.779 10.3116C60.7907 10.3745 60.8434 10.4204 60.9071 10.4204H62.1193C62.237 10.4204 62.3281 10.3162 62.3131 10.199C62.1752 9.12031 61.1796 8.42084 59.7294 8.42084C58.142 8.42084 57.1067 9.20021 57.1067 10.3863H57.1073Z" fill="#7F7F87"/>
<path d="M62.657 10.3843C62.657 11.3065 63.2656 11.9201 64.4434 12.1893L65.5983 12.4526C66.1674 12.5901 66.3839 12.7617 66.3839 13.0886C66.3839 13.5012 65.9801 13.7592 65.32 13.7592C64.6599 13.7592 64.2613 13.4985 64.1449 13.0283C64.1306 12.97 64.0792 12.9281 64.0187 12.9281H62.7246C62.6023 12.9281 62.5106 13.0401 62.5321 13.1612C62.7265 14.2445 63.7319 14.9453 65.2738 14.9453C66.912 14.9453 68.0331 14.1378 68.0331 12.9111C68.0331 11.9712 67.5324 11.4846 66.2753 11.1977L65.0976 10.9397C64.5344 10.8081 64.2613 10.5959 64.2613 10.2808C64.2613 9.87411 64.6593 9.60493 65.2569 9.60493C65.8546 9.60493 66.246 9.87477 66.3293 10.3096C66.3416 10.3725 66.3937 10.4184 66.4574 10.4184H67.6696C67.7873 10.4184 67.8783 10.3142 67.8634 10.1963C67.7249 9.11831 66.7299 8.41818 65.2797 8.41818C63.6923 8.41818 62.657 9.19756 62.657 10.3837V10.3843Z" fill="#7F7F87"/>
<path d="M17.5855 17.6943C17.5143 17.6093 17.4274 17.5393 17.3295 17.4889C17.2316 17.4377 17.1244 17.407 17.0148 17.3968C16.9051 17.3873 16.794 17.3999 16.6891 17.433C16.5841 17.4668 16.4863 17.5204 16.4025 17.592C16.3806 17.6101 16.3586 17.6282 16.3375 17.6463C16.3219 17.6597 16.3062 17.6723 16.2905 17.6849C16.047 17.8841 15.7934 18.0706 15.5303 18.243L15.4958 18.2658C15.4379 18.3036 15.38 18.3406 15.3212 18.376C15.3071 18.3847 15.2946 18.3926 15.2813 18.4004C15.268 18.4083 15.2555 18.4162 15.2429 18.4241L15.2202 18.4382L15.1795 18.4626C15.1662 18.4705 15.1537 18.4784 15.1404 18.4855C14.9853 18.576 14.8272 18.6626 14.6667 18.7437L14.6268 18.7641L14.5712 18.7925C14.5469 18.8043 14.5226 18.8161 14.4984 18.8279L14.4929 18.831C14.4686 18.8428 14.4443 18.8539 14.4201 18.8657C14.4013 18.8743 14.3833 18.883 14.3645 18.8916L14.3285 18.9082C14.3097 18.9168 14.2901 18.9255 14.2713 18.9342C14.2462 18.9452 14.2204 18.957 14.1946 18.968C14.1429 18.9908 14.0904 19.0129 14.038 19.0341C14.0114 19.0452 13.9847 19.0562 13.9581 19.0664C13.9072 19.0869 13.8555 19.1073 13.8039 19.127H13.8023C13.7514 19.1467 13.6997 19.1656 13.6481 19.1837L13.6379 19.1876C13.6136 19.1963 13.5893 19.205 13.5643 19.2136C13.5385 19.2223 13.5126 19.2309 13.4876 19.2404L13.41 19.2656C13.403 19.2679 13.396 19.2703 13.3881 19.2726L13.338 19.2884L13.2965 19.3018C13.2542 19.3152 13.2127 19.3278 13.1705 19.3403L13.1423 19.349C13.1251 19.3537 13.1078 19.3592 13.0906 19.364L13.0311 19.3805L12.9833 19.3939L12.952 19.4025L12.9121 19.4128C12.8675 19.4246 12.8221 19.4364 12.7766 19.4474C12.7657 19.4506 12.7539 19.4529 12.743 19.4561C12.7273 19.46 12.7109 19.4639 12.6944 19.4679C12.6811 19.471 12.6678 19.4742 12.6545 19.4773C12.6514 19.4781 12.6475 19.4789 12.6443 19.4797C12.624 19.4844 12.6028 19.4891 12.5825 19.4938C12.5449 19.5025 12.5073 19.5104 12.4689 19.5182C12.4329 19.5261 12.3969 19.5332 12.3617 19.5403C12.3327 19.5458 12.303 19.5513 12.274 19.5568C12.256 19.56 12.238 19.5631 12.22 19.5663C12.202 19.5694 12.1879 19.5726 12.1714 19.5749C12.1479 19.5789 12.1252 19.5828 12.1017 19.5867L12.0336 19.5978L12.025 19.5993C11.9968 19.6033 11.9694 19.608 11.942 19.6119C11.9146 19.6159 11.888 19.6198 11.8622 19.6229L11.8449 19.6253L11.7792 19.634H11.7745C11.7557 19.6363 11.7377 19.6387 11.7197 19.6411L11.6711 19.6466C11.6234 19.6521 11.5748 19.6576 11.5263 19.6623H11.5145C11.4989 19.6655 11.4824 19.667 11.4668 19.6686L11.4253 19.6725C11.4088 19.6741 11.3924 19.6757 11.3759 19.6765L11.3266 19.6804C11.2616 19.6851 11.1959 19.6899 11.1309 19.6938C11.1019 19.6954 11.0729 19.6969 11.044 19.6985L10.9946 19.7001C10.9821 19.7001 10.9696 19.7009 10.9571 19.7017L10.9093 19.7032H10.8608C10.8443 19.704 10.8279 19.7056 10.8114 19.7056H10.7942C10.7668 19.7056 10.7394 19.7064 10.7128 19.7064H10.535C9.60881 19.6954 8.68963 19.5403 7.81037 19.2467C7.77905 19.2357 7.74695 19.2254 7.71563 19.2144C7.69997 19.2089 7.68432 19.2034 7.66944 19.1979C7.65456 19.1924 7.63812 19.1868 7.62325 19.1813C7.59819 19.1727 7.57314 19.1632 7.54808 19.1538L7.51676 19.142C7.48858 19.1317 7.46039 19.1207 7.43299 19.1105L7.41889 19.105C7.40793 19.101 7.39697 19.0963 7.38679 19.0924L7.37583 19.0877L7.36722 19.0845L7.34843 19.0774L7.3312 19.0703H7.32729L7.31946 19.0664L7.28423 19.0522C7.26935 19.0459 7.25369 19.0396 7.23882 19.0333C7.21376 19.0231 7.18871 19.0129 7.16365 19.0019H7.15974L7.10963 18.9798L7.05091 18.9538C5.47952 18.258 4.13832 17.126 3.18547 15.6894C3.17842 15.6791 3.17138 15.6689 3.16511 15.6579C2.20286 14.1859 1.68846 12.4643 1.68455 10.7034V10.6301C1.68455 10.6097 1.68455 10.59 1.68455 10.5695C1.68455 10.5357 1.68612 10.5018 1.6869 10.468V10.4601C1.7143 9.45488 1.90847 8.46066 2.26237 7.51998C2.2749 7.48691 2.28742 7.45464 2.29995 7.42158C2.31091 7.39245 2.32266 7.36333 2.3344 7.3342L2.35867 7.27516C2.37198 7.24289 2.38529 7.21061 2.39938 7.17834C2.41426 7.14291 2.42992 7.10749 2.44558 7.07207C2.44636 7.06971 2.44793 7.06735 2.44871 7.06498C2.44949 7.06262 2.45106 7.05869 2.45263 7.05554C2.46359 7.03113 2.47455 7.00673 2.48551 6.98233C2.48551 6.98233 2.48551 6.98075 2.48629 6.97997C2.49647 6.95714 2.50665 6.9351 2.51683 6.91306C2.51996 6.90676 2.52231 6.89967 2.52544 6.89338L2.53014 6.88236C2.53484 6.87134 2.54032 6.86032 2.5458 6.85008C2.54893 6.843 2.55206 6.83591 2.55519 6.82962L2.56459 6.80915L2.56694 6.80443L2.5732 6.79183C2.58494 6.76664 2.59747 6.74145 2.61 6.71626C2.61235 6.71232 2.61391 6.7076 2.61626 6.70367C2.6327 6.6706 2.64915 6.63754 2.66559 6.60527C2.67733 6.58244 2.68908 6.55882 2.70082 6.536L2.70865 6.52183C2.70865 6.52183 2.70865 6.52025 2.70943 6.51946C2.70943 6.51946 2.70943 6.51789 2.71022 6.51789C2.71726 6.50372 2.72431 6.49113 2.73136 6.47774C2.73371 6.47302 2.73684 6.4683 2.73919 6.46357L2.75485 6.43445C2.75954 6.425 2.76502 6.41556 2.76972 6.40611L2.77285 6.4006L2.77912 6.38958C2.78773 6.37226 2.79712 6.35573 2.80574 6.3392C3.08525 5.83068 3.41331 5.35128 3.78521 4.90731C3.79147 4.89944 3.79852 4.89157 3.804 4.88369C3.93867 4.70973 4.00052 4.48853 3.97547 4.26969C3.95041 4.05007 3.8408 3.84933 3.67012 3.71C3.49943 3.57067 3.28177 3.50455 3.06255 3.52501C2.8441 3.54548 2.6421 3.65175 2.4996 3.82021C2.18642 4.19412 1.89908 4.5885 1.63992 5.00177L1.63366 5.01122C1.61095 5.04743 1.58903 5.08364 1.56632 5.11906C1.55458 5.13796 1.54362 5.15685 1.53187 5.17653C1.18816 5.74802 0.898465 6.35101 0.666711 6.97761C0.550834 7.29091 0.449833 7.60893 0.364491 7.93089C0.362925 7.9364 0.361359 7.94191 0.359793 7.9482C0.351964 7.97654 0.344917 8.00567 0.337088 8.0348C0.334739 8.04267 0.333173 8.05054 0.330824 8.0592C0.326909 8.07415 0.322995 8.0899 0.31908 8.10564C0.315165 8.12139 0.31125 8.13634 0.307335 8.15209C0.299506 8.18279 0.292459 8.21349 0.285413 8.24497C0.285413 8.24734 0.283847 8.25048 0.283847 8.25285C0.283064 8.25757 0.281498 8.2615 0.280715 8.26623C0.280715 8.26701 0.280715 8.26859 0.280715 8.26938C0.276017 8.28906 0.27132 8.30874 0.266622 8.32763C0.265056 8.33314 0.264273 8.33865 0.262707 8.34337C-0.0402955 9.68867 -0.081792 11.0804 0.141349 12.4415C0.142915 12.4517 0.144481 12.4627 0.14683 12.4737C0.377018 13.8592 0.876542 15.1848 1.618 16.375C1.63053 16.3947 1.64305 16.4152 1.65558 16.4348L1.69081 16.4899C1.70256 16.5088 1.7143 16.5269 1.72605 16.5451C1.74327 16.5718 1.7605 16.5978 1.77772 16.6246C1.7879 16.6403 1.79808 16.6553 1.80826 16.6702C1.81217 16.6765 1.81687 16.6828 1.82078 16.6891C1.83801 16.7151 1.85602 16.7411 1.87402 16.767C1.87794 16.7725 1.88185 16.7781 1.88499 16.7836C1.88655 16.7867 1.8889 16.7891 1.89047 16.7922C1.89281 16.7954 1.89438 16.7977 1.89673 16.8009C1.91395 16.8269 1.93196 16.8528 1.94997 16.878C1.97189 16.9095 1.99382 16.9402 2.01652 16.9717C2.03844 17.0024 2.06115 17.0339 2.08386 17.0646C2.10265 17.0906 2.12144 17.1158 2.13944 17.141C2.14806 17.1528 2.15667 17.1646 2.16607 17.1764C2.18094 17.1961 2.19582 17.2157 2.21069 17.2354C2.22009 17.2472 2.2287 17.2598 2.23888 17.2716C2.25297 17.2905 2.26785 17.3086 2.28194 17.3275C2.28977 17.3377 2.2976 17.348 2.30543 17.3574C2.32109 17.3779 2.33753 17.3976 2.35319 17.418C2.36337 17.4306 2.37276 17.4432 2.38294 17.455C2.39704 17.4724 2.41113 17.4905 2.42601 17.5078C2.43618 17.5204 2.44636 17.5322 2.45654 17.544C2.47063 17.5621 2.48629 17.5794 2.50117 17.5975C2.51135 17.6101 2.52231 17.6227 2.53327 17.6353C2.54736 17.6526 2.56224 17.6699 2.57712 17.6873C2.6006 17.7156 2.62488 17.7431 2.64915 17.7699C2.67342 17.7975 2.70004 17.8274 2.72588 17.8565C2.75171 17.8848 2.77912 17.9163 2.80652 17.9455C2.83392 17.9754 2.86054 18.0045 2.88795 18.0336C2.91535 18.0627 2.94275 18.0919 2.97094 18.121C3.54876 18.7248 4.19548 19.2585 4.89857 19.7087L4.91501 19.719L4.97138 19.7544C6.02759 20.4235 7.1934 20.9005 8.41481 21.1627L8.47118 21.1745L8.52286 21.1847C8.55966 21.1918 8.59567 21.1997 8.63247 21.2068C8.65048 21.2107 8.66927 21.2138 8.68728 21.217L8.71546 21.2217L8.74365 21.2264L8.80159 21.2367L8.81568 21.239L8.83604 21.243C8.85718 21.2469 8.87832 21.2501 8.90024 21.254L8.97775 21.2666L9.05605 21.2784L9.13434 21.2902C9.16018 21.2941 9.1868 21.2973 9.21264 21.3012L9.29093 21.3115L9.34026 21.3178L9.39115 21.3241C9.40603 21.3256 9.42169 21.328 9.43656 21.3296C9.46866 21.3335 9.49998 21.3366 9.53208 21.3398L9.60098 21.3469L9.64248 21.3508L9.70042 21.3563C9.79985 21.3658 9.90007 21.3729 10.0003 21.3792C10.0394 21.3815 10.0786 21.3839 10.1177 21.3855C10.1827 21.3886 10.2485 21.3917 10.3135 21.3933H10.3393C10.3792 21.3941 10.4192 21.3949 10.4583 21.3957H10.7637C10.8044 21.3957 10.8443 21.3941 10.885 21.3933H10.8936C10.9351 21.3925 10.9758 21.391 11.0173 21.3894C11.0385 21.3886 11.0596 21.3878 11.0808 21.387L11.1442 21.3839C11.1825 21.3823 11.2217 21.3799 11.2601 21.3776C11.3172 21.3744 11.3736 21.3705 11.4307 21.3666C11.4926 21.3618 11.5537 21.3563 11.6147 21.3508C11.6797 21.3453 11.7447 21.3382 11.8089 21.3311C11.8316 21.3288 11.8543 21.3256 11.8778 21.3233C11.9013 21.3209 11.924 21.3178 11.9467 21.3146L11.9733 21.3115C11.9953 21.3091 12.0172 21.3059 12.0383 21.3028C12.0649 21.2996 12.0923 21.2957 12.119 21.2918L12.1346 21.2894C12.1652 21.2847 12.1957 21.2808 12.227 21.2752L12.238 21.2737L12.2975 21.2642L12.3538 21.2548L12.3875 21.2493H12.393C12.4361 21.2414 12.4783 21.2343 12.5214 21.2264L12.5292 21.2249C12.5543 21.2201 12.5793 21.2154 12.6044 21.2107C13.8548 20.9761 15.0519 20.5164 16.1402 19.8544C16.1598 19.8426 16.1786 19.8308 16.1981 19.819C16.2592 19.7812 16.3203 19.7426 16.3798 19.704C16.4033 19.6891 16.426 19.6741 16.4487 19.6592C16.8104 19.4214 17.1573 19.1617 17.4877 18.8822C17.6576 18.7381 17.7633 18.5319 17.7821 18.3091C17.8008 18.0864 17.7312 17.8652 17.5887 17.6943H17.5855Z" fill="#7F7F87"/>
<path d="M5.72302 3.02515C5.871 3.02515 6.01663 2.98579 6.14425 2.91022C6.31023 2.8134 6.48013 2.7213 6.6516 2.63549C6.74321 2.58984 6.83559 2.54576 6.92877 2.50325C6.94756 2.49459 6.96635 2.48593 6.98436 2.47806C7.00315 2.4694 7.02194 2.46153 7.04073 2.45287C7.05326 2.44736 7.06578 2.44185 7.07909 2.43634C7.10415 2.42532 7.12842 2.41508 7.15347 2.40406L7.20906 2.38045C7.24665 2.3647 7.28501 2.34896 7.32259 2.334L7.36565 2.31668L7.4369 2.28835C7.45413 2.28126 7.47135 2.27496 7.48858 2.26867C7.57 2.23797 7.65143 2.20884 7.73442 2.1805L7.78297 2.16397C7.87927 2.1317 7.97714 2.10021 8.07501 2.07108L8.12355 2.05691C8.25039 2.01992 8.37723 1.98607 8.50563 1.95458L8.54791 1.94435L8.59724 1.93254L8.63091 1.92467L8.66692 1.91601C8.69041 1.9105 8.71468 1.90499 8.73817 1.90026C8.77419 1.89239 8.8102 1.88452 8.847 1.87744L8.90729 1.86563C8.98871 1.84988 9.07014 1.83493 9.15157 1.82076C9.19072 1.81446 9.23065 1.80738 9.26979 1.80187C9.30973 1.79557 9.34966 1.79006 9.39115 1.78376L9.39977 1.78219C9.4577 1.77431 9.51564 1.76644 9.57358 1.75936C9.61429 1.75464 9.65501 1.74991 9.69572 1.74519C9.73643 1.74047 9.77715 1.73653 9.81786 1.73338C9.85858 1.72945 9.89929 1.7263 9.94079 1.72315C9.96662 1.72157 9.99246 1.71921 10.0175 1.71764C10.0684 1.71449 10.1201 1.71134 10.1718 1.70819C10.1976 1.70662 10.2234 1.70583 10.2485 1.70426C10.2641 1.70426 10.279 1.70268 10.2947 1.70268L10.337 1.70111L10.3855 1.69953L10.434 1.69796C10.4669 1.69717 10.4998 1.69638 10.5319 1.69638H10.6478C11.0173 1.69638 11.3869 1.71921 11.7533 1.76566C11.8308 1.7751 11.9083 1.78612 11.9859 1.79793C12.0023 1.80029 12.0195 1.80344 12.0367 1.8058C12.0649 1.81053 12.0931 1.81525 12.1221 1.81997L12.1385 1.82312L12.1526 1.82548C12.1738 1.82942 12.1957 1.83257 12.2168 1.8365L12.238 1.84044L12.2662 1.84595L12.2943 1.85146L12.3476 1.86169C12.3664 1.86484 12.3852 1.86878 12.4032 1.87271L12.418 1.87586C12.4603 1.88452 12.5034 1.89397 12.5457 1.90341L12.5848 1.91207C12.6146 1.91837 12.6435 1.92545 12.6733 1.93254C12.7077 1.94041 12.7422 1.94907 12.7766 1.95773C12.8087 1.9656 12.8408 1.97426 12.8729 1.98213L12.9074 1.99158L12.9442 2.00102H12.9458C12.9692 2.00732 12.9927 2.01362 13.0154 2.01992C13.0186 2.01992 13.0217 2.02149 13.0248 2.02228C13.0358 2.02543 13.0468 2.02858 13.0569 2.03172C13.0718 2.03566 13.0867 2.04038 13.1016 2.04432L13.1384 2.05455C13.1556 2.05928 13.1728 2.06479 13.19 2.06951L13.2308 2.0821L13.2676 2.09312L13.2848 2.09863H13.2863L13.3075 2.10493L13.3521 2.1191L13.3803 2.12776L13.4171 2.13957C13.439 2.14665 13.4602 2.15374 13.4821 2.16082C13.515 2.17184 13.5478 2.18365 13.5807 2.19467C13.7256 2.24584 13.8689 2.30015 14.0114 2.35841L14.0599 2.37887C14.0951 2.39383 14.1304 2.408 14.1656 2.42374C14.2862 2.4757 14.402 2.53631 14.5132 2.60637C15.5452 3.25737 15.9828 4.5885 15.488 5.74881C15.2241 6.36596 14.7278 6.85244 14.1077 7.10198C13.4876 7.35152 12.7939 7.34286 12.18 7.07837C11.7048 6.8737 11.1935 6.76507 10.676 6.75877H10.6744C10.5241 6.75719 10.3745 6.76428 10.225 6.78002C10.1577 6.78711 10.0911 6.79655 10.0238 6.80679C9.99403 6.81151 9.96349 6.81702 9.93374 6.82253L9.90712 6.82725C9.89616 6.82962 9.88441 6.83119 9.87345 6.83355C9.85701 6.8367 9.83978 6.83985 9.82334 6.84378H9.82021C9.8022 6.84851 9.78498 6.85244 9.76697 6.85638L9.72469 6.86661L9.69964 6.87291L9.65892 6.88314C9.6464 6.88629 9.63308 6.89023 9.62056 6.89338L9.59394 6.90046C9.53991 6.91542 9.48589 6.93195 9.43265 6.94927C9.41151 6.95635 9.38959 6.96344 9.36845 6.97052L9.33635 6.98154C9.32538 6.98548 9.31521 6.98863 9.30424 6.99335L9.27293 7.00516C9.24161 7.01697 9.20951 7.02877 9.17897 7.04137C9.02238 7.10434 8.86971 7.17755 8.72251 7.26021C8.71312 7.26572 8.70294 7.27123 8.69354 7.27674C8.67397 7.28776 8.65439 7.29956 8.63482 7.31059C8.61525 7.32239 8.59646 7.33341 8.57688 7.34601C8.55809 7.35782 8.54087 7.36884 8.52286 7.38064C8.5072 7.39088 8.49154 7.40111 8.47588 7.41134C8.46492 7.41843 8.45474 7.42551 8.44378 7.4326C8.43752 7.43653 8.43204 7.44047 8.42577 7.44519C8.41951 7.44992 8.4109 7.45543 8.40307 7.46094C8.39524 7.46645 8.38506 7.47353 8.37645 7.47983C8.35844 7.49242 8.34043 7.50502 8.32321 7.5184C8.30598 7.531 8.28719 7.54517 8.26918 7.55855C8.26057 7.56485 8.25196 7.57193 8.24256 7.57823C8.05543 7.72307 7.8824 7.88444 7.72503 8.06077C7.72346 8.06235 7.7219 8.06392 7.72033 8.0655C7.70702 8.08045 7.69371 8.09541 7.6804 8.11115C7.66787 8.12532 7.65535 8.14028 7.64282 8.15523C7.63812 8.16075 7.63342 8.16626 7.62873 8.17177C7.61307 8.19066 7.59741 8.20955 7.58253 8.22844C7.57705 8.23474 7.57235 8.24104 7.56766 8.24734C7.55435 8.26387 7.54182 8.2804 7.52929 8.29693C7.5199 8.30874 7.51128 8.32054 7.50189 8.33235C7.47683 8.36541 7.45256 8.39847 7.42907 8.43232C7.42907 8.43232 7.42907 8.43232 7.42907 8.43311C7.25213 8.6858 7.10571 8.95816 6.99297 9.24549C6.99297 9.24706 6.99219 9.24785 6.9914 9.24942C6.98671 9.26123 6.98201 9.27304 6.97731 9.28484L6.964 9.31948C6.96087 9.32814 6.95695 9.33759 6.95382 9.34703C6.95069 9.35569 6.94599 9.36907 6.94208 9.38088C6.93738 9.39426 6.93268 9.40843 6.92798 9.42181C6.92329 9.43598 6.91859 9.45094 6.91389 9.46511C6.70641 10.0925 6.66021 10.7624 6.78157 11.4126C6.78549 11.4362 6.79018 11.459 6.79566 11.4827C6.89275 11.9707 7.08223 12.4352 7.35391 12.8516L7.37583 12.8854C7.653 13.3058 8.00924 13.6671 8.42421 13.9505C8.43752 13.9591 8.45083 13.9686 8.46414 13.9773C8.98167 14.3252 9.57436 14.5432 10.1929 14.6125C10.2078 14.6141 10.2226 14.6157 10.2375 14.6172L10.2775 14.6212L10.2962 14.6227C10.5444 14.6448 10.7942 14.6432 11.0424 14.6164C11.0518 14.6157 11.062 14.6141 11.0714 14.6125H11.0737C11.5912 14.5543 12.0916 14.3929 12.5457 14.1386C12.642 14.0843 12.7265 14.0119 12.7946 13.9253C12.8628 13.8379 12.9137 13.7387 12.9434 13.6317C12.9732 13.5246 12.9826 13.4136 12.9692 13.3034C12.9559 13.1932 12.9223 13.0869 12.8682 12.9901C12.8142 12.8933 12.7422 12.8083 12.6553 12.7398C12.5692 12.6713 12.4697 12.6201 12.3632 12.5902C12.2575 12.5603 12.1464 12.5509 12.0367 12.5643C11.9271 12.5776 11.8214 12.6115 11.7251 12.6658C11.3164 12.8941 10.8467 12.9885 10.3816 12.935L10.3573 12.9319C10.3432 12.9303 10.3291 12.9279 10.315 12.9264C10.3009 12.924 10.2853 12.9224 10.2696 12.9193C10.2508 12.9161 10.2328 12.913 10.214 12.909C10.1851 12.9035 10.1561 12.8972 10.1279 12.8902C10.1193 12.8886 10.1115 12.8862 10.1036 12.8846L10.0755 12.8776C10.0661 12.8752 10.0574 12.8728 10.0473 12.8705L10.0191 12.8626C10.0113 12.8602 10.0034 12.8579 9.99559 12.8555L9.96506 12.8461C9.94705 12.8406 9.92904 12.8343 9.91103 12.8288C9.90242 12.8256 9.89302 12.8225 9.88441 12.8193C9.8664 12.813 9.8484 12.8059 9.83117 12.7996C9.80455 12.7894 9.77793 12.7784 9.75209 12.7674L9.73174 12.7587L9.7106 12.7492L9.68946 12.739L9.65657 12.7233C9.31912 12.5572 9.02786 12.3092 8.80942 12.0006C8.80316 11.9912 8.79689 11.9817 8.79063 11.9723C8.78436 11.9628 8.7781 11.9542 8.77262 11.9455C8.76636 11.9361 8.76166 11.929 8.75696 11.9211C8.5299 11.5669 8.40541 11.1568 8.3968 10.7356V10.6616C8.3968 10.6506 8.3968 10.638 8.39759 10.6254C8.39837 10.6136 8.39837 10.6018 8.39915 10.5892C8.39915 10.5806 8.39915 10.5719 8.40072 10.5632L8.40228 10.5373C8.40385 10.516 8.40541 10.4947 8.40776 10.4743C8.40855 10.4648 8.40933 10.4562 8.4109 10.4467C8.41246 10.4302 8.41481 10.4137 8.41716 10.3963C8.41873 10.3838 8.42029 10.3712 8.42264 10.3586C8.42421 10.3491 8.42577 10.3397 8.42734 10.3302C8.43047 10.3129 8.43282 10.2956 8.43673 10.2783C8.43986 10.261 8.443 10.2452 8.44613 10.2287C8.45004 10.2121 8.45396 10.1925 8.45787 10.1744C8.461 10.1626 8.46335 10.1507 8.46649 10.1382C8.46883 10.1287 8.47118 10.12 8.47353 10.1098C8.47901 10.0901 8.48449 10.0705 8.48997 10.0508C8.51503 9.96891 8.544 9.88783 8.57766 9.80911C8.61994 9.70914 8.67005 9.6131 8.72643 9.52021C8.73504 9.50604 8.74365 9.49187 8.75305 9.4777C8.76166 9.46354 8.77262 9.44701 8.78358 9.43205C8.78984 9.42182 8.79767 9.41237 8.80394 9.40292C8.8149 9.38718 8.82586 9.37222 8.83682 9.35727L8.85405 9.33365C8.86031 9.32499 8.86657 9.31712 8.87284 9.30925C8.88067 9.29901 8.8885 9.28878 8.89711 9.27855C8.90494 9.26831 8.91355 9.25808 8.92138 9.24863L8.94644 9.21951C8.96053 9.20219 8.97619 9.18566 8.99185 9.16913L8.99498 9.16598C9.0122 9.14709 9.02943 9.12898 9.04744 9.11088C9.06075 9.09671 9.07484 9.08333 9.08972 9.06994L9.10068 9.05971C9.18602 8.97863 9.27841 8.90463 9.37549 8.83772C9.39428 8.82513 9.41307 8.81253 9.43108 8.80073C9.44048 8.79443 9.44987 8.78813 9.46084 8.78183C9.4718 8.77475 9.48276 8.76766 9.49372 8.76137C9.50468 8.75507 9.51564 8.74798 9.52739 8.74169C9.64483 8.67478 9.76775 8.6181 9.89537 8.57244C9.91338 8.56614 9.93217 8.55985 9.95018 8.55355C9.96271 8.54961 9.97445 8.54568 9.98698 8.54174C9.99951 8.53781 10.0113 8.53466 10.0238 8.53072C10.0363 8.52757 10.0488 8.52364 10.0614 8.52049C10.0739 8.51734 10.0856 8.51419 10.0974 8.51104C10.124 8.50474 10.1506 8.49845 10.1772 8.49294C10.189 8.49058 10.1999 8.48821 10.2117 8.48585L10.2375 8.48113L10.2641 8.47641C10.2814 8.47326 10.2978 8.4709 10.315 8.46853H10.3166C10.4231 8.45279 10.5303 8.44492 10.6376 8.44492H10.6744C10.9657 8.45043 11.2522 8.51262 11.52 8.62755C13.2613 9.37852 15.2962 8.85977 16.469 7.36569C17.0492 6.62573 17.3679 5.7126 17.3734 4.77113V4.76326C17.3765 3.93435 17.1369 3.12355 16.6844 2.43083C16.2318 1.7381 15.5867 1.19495 14.8288 0.869052C14.8014 0.857244 14.7747 0.845437 14.7473 0.834416C14.7199 0.823395 14.691 0.811588 14.6643 0.79978C14.6228 0.782462 14.5821 0.765931 14.5398 0.7494C14.4984 0.732869 14.4569 0.716338 14.4154 0.700595L14.3472 0.674617C14.3245 0.665958 14.3018 0.657299 14.2791 0.649427C14.2588 0.642343 14.2392 0.634471 14.2188 0.627386L14.1648 0.607707L14.081 0.578581C14.0231 0.558901 13.9652 0.539222 13.9064 0.520329L13.8665 0.506947L13.8187 0.491203L13.7467 0.468375L13.6982 0.453418L13.6551 0.440824L13.594 0.422718C13.5533 0.410911 13.5118 0.399103 13.4711 0.387295C13.4429 0.379423 13.4147 0.371551 13.3866 0.364467L13.3067 0.343213H13.3036L13.2863 0.338489C13.2401 0.326682 13.1947 0.314874 13.1485 0.303853L13.1016 0.292833L13.0468 0.279451C13.0186 0.273153 12.992 0.266856 12.9645 0.260558L12.9583 0.258984L12.8761 0.240879C12.8189 0.228284 12.7618 0.216476 12.7046 0.204668L12.6545 0.195222C12.6302 0.190499 12.606 0.185776 12.5817 0.181053C12.5652 0.177904 12.5488 0.174755 12.5331 0.171606L12.4635 0.159011L12.4384 0.154288C12.3836 0.144842 12.3288 0.136183 12.274 0.126737C12.216 0.117291 12.1589 0.108632 12.101 0.10076L12.0321 0.0913134L11.9929 0.0865903C11.9882 0.0865903 11.9835 0.085016 11.9788 0.085016L11.9553 0.0818672L11.9318 0.0787185L11.8864 0.0732082L11.8551 0.0692723L11.7948 0.0621876L11.776 0.059826C11.7518 0.0574645 11.7275 0.0543158 11.7024 0.0519542L11.6343 0.0456567L11.6108 0.0432952L11.5435 0.0369977C11.5169 0.0346361 11.4902 0.0322746 11.4636 0.0307002C11.3431 0.021254 11.2225 0.0141693 11.1011 0.00865903H11.0737L11.0581 0.00787185L10.9993 0.00551029L10.9163 0.00314874C10.8545 0.00157437 10.7934 0.000787185 10.7324 0H10.5523C10.5264 0 10.5014 4.39874e-10 10.4755 0.000787185C10.4497 0.00157437 10.4262 0.00157437 10.4019 0.00236155C10.3777 0.00236155 10.3534 0.00314874 10.3283 0.00393592C10.2931 0.00472311 10.2571 0.00629748 10.2219 0.00787185L10.16 0.0102334L10.1318 0.0118078L10.0856 0.0141693L10.0253 0.0173181L9.97054 0.0204668H9.96271C9.47963 0.051167 8.99968 0.114929 8.52599 0.211753L8.50876 0.214901C8.4704 0.222773 8.43204 0.231432 8.39289 0.239304L8.38662 0.240879C8.3694 0.244814 8.35217 0.247963 8.33495 0.251899C8.16505 0.289684 7.99671 0.331405 7.82916 0.377062C6.9867 0.608494 6.17635 0.943835 5.4161 1.376L5.33389 1.42323L5.30101 1.44212L5.28691 1.45078L5.27282 1.45944C5.11936 1.55705 5.00114 1.70268 4.93693 1.87429C4.87273 2.04511 4.86569 2.23324 4.9158 2.40879C4.96669 2.58433 5.07317 2.73862 5.21801 2.84882C5.36364 2.95824 5.54059 3.01807 5.72302 3.01728H5.7238L5.72302 3.02515Z" fill="#7F7F87"/>
<path d="M4.4382 6.86896C4.4382 6.86896 4.4335 6.87684 4.43115 6.88077C4.15633 7.33104 3.93084 7.81044 3.75938 8.30951C3.68969 8.51182 3.62941 8.71727 3.57773 8.9243C3.57695 8.92824 3.57538 8.93218 3.5746 8.93611C3.57068 8.95264 3.56677 8.96917 3.56285 8.9857C3.56129 8.99358 3.55894 9.00224 3.55737 9.01011C3.55346 9.02585 3.55033 9.04159 3.54641 9.05734C3.34285 9.94292 3.30605 10.8584 3.4368 11.7574C3.43993 11.7778 3.44306 11.7983 3.44619 11.8188C3.44776 11.8267 3.44854 11.8345 3.44933 11.8424C3.45089 11.8503 3.45246 11.8597 3.45402 11.8692C3.45637 11.8833 3.45872 11.8975 3.46107 11.9125L3.46264 11.9203C3.46264 11.9203 3.46264 11.9243 3.46342 11.9266C3.63175 12.9232 4.00287 13.8733 4.55486 14.718L4.56895 14.74C4.62219 14.8211 4.677 14.9006 4.73337 14.9793C4.75451 15.0092 4.77643 15.0384 4.79757 15.0675C4.79914 15.0691 4.8007 15.0714 4.80227 15.0738C5.95164 16.6261 7.66709 17.6573 9.57202 17.9399L9.58219 17.9415L9.62995 17.9486H9.637L9.67615 17.9549H9.68476L9.72704 17.9612C10.3009 18.0344 10.8819 18.0375 11.4574 17.9722L11.4942 17.9675C11.5059 17.9659 11.5177 17.9643 11.5294 17.9635L11.5787 17.9572L11.5881 17.9557H11.5944L11.6053 17.9533L11.6515 17.947L11.668 17.9447C11.6962 17.9407 11.7228 17.9368 11.7494 17.9328H11.7502C12.9575 17.7455 14.0983 17.2551 15.0668 16.5073C15.1553 16.4403 15.2296 16.3561 15.2852 16.2601C15.3408 16.164 15.3776 16.0578 15.3925 15.9468C15.4074 15.8366 15.4003 15.724 15.3721 15.6162C15.3439 15.5083 15.2938 15.4076 15.2265 15.3194C15.1592 15.2312 15.0746 15.1572 14.9783 15.1013C14.882 15.0455 14.7763 15.01 14.6659 14.9959C14.5563 14.9817 14.4443 14.9896 14.3371 15.0195C14.2306 15.0494 14.1304 15.0998 14.0427 15.1683C13.4492 15.6264 12.7696 15.9602 12.0446 16.1499C12.0352 16.1522 12.0258 16.1538 12.0164 16.1562C11.8332 16.2034 11.6476 16.2404 11.4605 16.2687H11.4527C11.4307 16.2735 11.4088 16.2758 11.3869 16.279L11.3626 16.2821C11.1223 16.3136 10.8803 16.3294 10.6384 16.3294H10.6368C10.1201 16.3294 9.60568 16.2577 9.10773 16.116L9.10303 16.1144C9.06466 16.1034 9.02552 16.0916 8.98715 16.0798C8.93 16.0625 8.87362 16.0436 8.81725 16.0239C8.78828 16.0137 8.75931 16.0035 8.73034 15.9932L8.69276 15.9791L8.6818 15.9751C8.65988 15.9672 8.63795 15.9586 8.61603 15.9499L8.59724 15.9428L8.56436 15.9295L8.55574 15.9263H8.55418C8.53226 15.9177 8.51033 15.909 8.48841 15.8995L8.47197 15.8925L8.45396 15.8846C8.42108 15.8704 8.38898 15.8563 8.35609 15.8421L8.32947 15.8303C7.38601 15.3989 6.57957 14.714 5.99862 13.8513L5.98453 13.8308L5.96026 13.7938L5.93912 13.7608C5.3613 12.8618 5.04968 11.8164 5.03872 10.7458V10.6734C5.03872 10.6443 5.03872 10.6152 5.0395 10.5861C5.0395 10.5853 5.0395 10.5837 5.0395 10.5829V10.579C5.04185 10.4688 5.04733 10.3593 5.05595 10.2507C5.05673 10.2389 5.05751 10.2271 5.05908 10.2161C5.05908 10.2106 5.05986 10.2051 5.06064 10.1995C5.1131 9.60837 5.25873 9.02979 5.49127 8.48505C5.59305 8.24654 5.71049 8.01511 5.8436 7.79312C5.84673 7.78761 5.84986 7.7821 5.85299 7.77738C5.85847 7.76793 5.86474 7.7577 5.87022 7.74825C5.96965 7.58766 6.07692 7.43101 6.19358 7.27909C6.4911 6.88864 6.83873 6.53992 7.22629 6.24C7.34138 6.15105 7.45883 6.06682 7.5794 5.98811C7.68197 5.92119 7.78767 5.85743 7.89571 5.79603C8.49702 5.45754 9.1547 5.23319 9.83665 5.13244C10.1013 5.09465 10.3683 5.07576 10.636 5.07576H10.6376C10.658 5.07576 10.6783 5.07497 10.6995 5.0734H10.7034C11.4268 5.08206 12.1417 5.23241 12.8072 5.51658C12.8189 5.5213 12.8307 5.52603 12.8424 5.53154H12.844C13.0483 5.62049 13.2793 5.62364 13.4868 5.5402C13.6935 5.45754 13.8595 5.29459 13.9472 5.08914C14.0348 4.88368 14.038 4.65068 13.955 4.44286C13.8728 4.23504 13.7107 4.06895 13.5064 3.98H13.5048C13.3787 3.92489 13.2519 3.87451 13.1235 3.82728C11.9921 3.41165 10.7762 3.28649 9.58533 3.46282L9.55636 3.46754L9.51016 3.47462L9.50155 3.4762L9.4671 3.48171C8.46649 3.64387 7.5105 4.01621 6.66256 4.57432L6.6563 4.57826C6.64377 4.58692 6.63046 4.59479 6.61794 4.60345L6.57879 4.62942C6.57018 4.63572 6.56156 4.64123 6.55295 4.64753C5.78566 5.16786 5.12641 5.83224 4.60888 6.60368C4.59792 6.61943 4.58774 6.63517 4.57756 6.65091C4.56738 6.66666 4.55564 6.68398 4.54468 6.70051L4.53841 6.70995C4.52745 6.72727 4.51571 6.74538 4.50475 6.76269L4.48517 6.79339C4.47813 6.80442 4.47108 6.81544 4.46482 6.82646C4.4609 6.83275 4.45699 6.83905 4.45307 6.84456L4.43898 6.8666L4.43741 6.87054L4.4382 6.86896Z" fill="#7F7F87"/>
</svg>
