<svg width="73" height="17" viewBox="0 0 73 17" fill="none" xmlns="http://www.w3.org/2000/svg">
<path d="M14.4706 3.41821H3.49292V14.2763C3.49292 15.7204 4.65722 16.872 6.09874 16.872V5.97735H13.7684C14.1749 5.97735 14.4891 6.28811 14.4891 6.69026V9.01176H17.0949V5.99563C17.0949 4.56983 15.9306 3.41821 14.4706 3.41821Z" fill="#2F80ED"/>
<path d="M14.5077 13.6001C14.5077 14.0023 14.1566 14.313 13.7685 14.313H8.42749V16.8904H14.4708C15.9308 16.8904 17.0951 15.7388 17.0951 14.2947V11.2969H14.4893V13.6001H14.5077Z" fill="#2F80ED"/>
<path d="M12.2715 11.4613V8.81078C12.2715 8.50002 12.0128 8.22583 11.6801 8.22583H8.42749V12.028H11.6801C12.0128 12.0463 12.2715 11.7903 12.2715 11.4613Z" fill="#2F80ED"/>
<path d="M13.4358 1.64516C13.0662 0.694624 12.1237 0 11.0148 0H0.0371094V10.8581C0.0371094 11.9548 0.720908 12.8871 1.7004 13.2527V1.64516H13.4358Z" fill="#2F80ED"/>
<path d="M23.0827 13.5452C22.7316 13.3258 22.4544 13.0151 22.2511 12.6129C22.0478 12.2108 21.9739 11.7355 21.9739 11.2237V8.8839C21.9739 8.3538 22.0663 7.89681 22.2511 7.49466C22.4544 7.09251 22.7316 6.78175 23.0827 6.5624C23.4524 6.34305 23.8589 6.21509 24.3394 6.21509H25.4853C25.9473 6.21509 26.3169 6.30649 26.6865 6.48928C27.0377 6.69036 27.2779 6.94627 27.4812 7.31186C27.6845 7.65917 27.7584 8.04304 27.7584 8.50003H27.1855C27.1855 7.96993 27.0377 7.5495 26.7235 7.23874C26.4093 6.92799 26.0027 6.76347 25.5037 6.76347H24.3579C23.822 6.76347 23.3969 6.96455 23.0827 7.34842C22.7316 7.75057 22.6022 8.24412 22.6022 8.86563V11.2054C22.6022 11.8635 22.7686 12.357 23.0827 12.7592C23.3969 13.1613 23.822 13.3441 24.3394 13.3441H25.5037C26.0212 13.3441 26.4463 13.1796 26.7605 12.814C27.0746 12.4667 27.241 11.9914 27.241 11.4065H27.8139C27.8139 11.8818 27.7215 12.3387 27.5367 12.7043C27.3334 13.0699 27.0746 13.3441 26.742 13.5818C26.3908 13.7828 26.0027 13.8925 25.5222 13.8925H24.3025C23.822 13.8559 23.4339 13.7463 23.0827 13.5452Z" fill="#0B132B"/>
<path d="M29.7361 13.5453C29.3665 13.3259 29.0708 13.0152 28.886 12.6496C28.6827 12.2474 28.5718 11.8087 28.5718 11.2969V8.86572C28.5718 8.35389 28.6827 7.91518 28.886 7.51303C29.0892 7.11088 29.3665 6.80013 29.7361 6.61733C30.1057 6.39798 30.5308 6.27002 31.0113 6.27002H32.1201C32.6006 6.27002 33.0257 6.3797 33.3953 6.61733C33.7649 6.83669 34.0606 7.12916 34.2454 7.51303C34.4487 7.91518 34.5596 8.35389 34.5596 8.86572V11.2969C34.5596 11.8087 34.4487 12.2474 34.2454 12.6496C34.0422 13.0517 33.7649 13.3625 33.3953 13.5453C33.0257 13.7646 32.6006 13.8926 32.1201 13.8926H31.0113C30.5123 13.856 30.1057 13.7464 29.7361 13.5453ZM32.1017 13.3259C32.6376 13.3259 33.0996 13.1249 33.4508 12.7593C33.8019 12.3937 33.9682 11.8818 33.9682 11.2603V8.82916C33.9682 8.20765 33.8019 7.69583 33.4508 7.33023C33.0996 6.96464 32.6561 6.76357 32.1017 6.76357H30.9928C30.4199 6.76357 29.9948 6.96464 29.6437 7.33023C29.2925 7.69583 29.1262 8.20765 29.1262 8.82916V11.2603C29.1262 11.8818 29.2925 12.3937 29.6437 12.7593C29.9948 13.1249 30.4384 13.3259 30.9928 13.3259H32.1017Z" fill="#0B132B"/>
<path d="M35.3542 6.32495H38.9211C39.4385 6.32495 39.8636 6.47119 40.1778 6.74538C40.492 7.01957 40.6583 7.42173 40.6583 7.89699V8.71957C40.6583 9.08517 40.5474 9.43248 40.2887 9.70667C40.0299 9.98087 39.7158 10.1819 39.3277 10.2916C39.5494 10.4013 39.7342 10.5658 39.9006 10.8217C40.0669 11.0776 40.2147 11.3518 40.3071 11.6626L40.8985 13.7465H40.2702L39.6788 11.6626C39.5679 11.297 39.4016 10.9862 39.1428 10.7669C38.8841 10.5475 38.6069 10.4196 38.2927 10.4196H35.9456V13.7282H35.3542V6.32495ZM38.6439 9.94431C39.0689 9.94431 39.4201 9.85291 39.6788 9.63355C39.9375 9.4142 40.0854 9.12173 40.0854 8.73785V7.89699C40.0854 7.58624 39.9745 7.33033 39.7712 7.12925C39.5679 6.92818 39.2907 6.85506 38.9396 6.85506H36.0011V9.96258H38.6439V9.94431Z" fill="#0B132B"/>
<path d="M41.7858 13.6368C41.6934 13.5271 41.6379 13.4174 41.6379 13.2163V6.32495H46.48V6.83678H42.1924V9.70667H46.1288V10.2185H42.1924V13.2712H46.48V13.8013H42.1739C42.0076 13.7647 41.8597 13.7099 41.7858 13.6368Z" fill="#0B132B"/>
<path d="M47.3484 6.32495H51.3218C51.7469 6.32495 52.1535 6.41635 52.4861 6.58086C52.8372 6.74538 53.0775 6.98302 53.2808 7.29377C53.4841 7.60452 53.558 7.95183 53.558 8.37226V9.35936C53.558 9.77979 53.4656 10.1454 53.2808 10.4561C53.0775 10.7669 52.8188 11.0228 52.4491 11.1873C52.098 11.3518 51.7099 11.4432 51.2479 11.4432H48.8269V13.783H47.3484V6.32495ZM51.1924 10.1088C51.4512 10.1088 51.6545 10.054 51.8208 9.88947C51.9871 9.72495 52.0426 9.52388 52.0426 9.26796V8.39054C52.0426 8.13463 51.9871 7.93355 51.8393 7.8056C51.6914 7.67764 51.5251 7.58624 51.3033 7.58624H48.8269V10.1271H51.1924V10.1088Z" fill="#0B132B"/>
<path d="M60.5625 13.2164C60.1005 12.796 59.8972 12.1745 59.8972 11.3885H61.3572C61.3572 11.7541 61.4496 12.0465 61.6344 12.2659C61.8377 12.467 62.0965 12.5767 62.4291 12.5767H63.6304C63.9446 12.5767 64.2033 12.5218 64.4066 12.3756C64.6099 12.2293 64.6838 12.0648 64.6838 11.8455V11.4799C64.6838 11.1326 64.4251 10.9132 63.9076 10.8218L61.9301 10.4745C61.2648 10.3648 60.7843 10.1638 60.4516 9.853C60.1005 9.54224 59.9342 9.17665 59.9342 8.70138V8.11644C59.9342 7.75085 60.0451 7.40353 60.2484 7.12934C60.4516 6.85515 60.7289 6.61751 61.1354 6.453C61.5051 6.28848 61.9671 6.23364 62.4476 6.23364H63.6673C64.1294 6.23364 64.5544 6.32504 64.8871 6.50784C65.2567 6.70891 65.5154 6.96483 65.7187 7.33042C65.922 7.67773 65.996 8.0616 65.996 8.53687H64.5359C64.5359 8.22612 64.4435 8.00676 64.2772 7.82397C64.1109 7.65945 63.9076 7.54977 63.6119 7.54977H62.3922C62.078 7.54977 61.8562 7.60461 61.6714 7.75085C61.5051 7.89708 61.3942 8.0616 61.3942 8.26267V8.53687C61.3942 8.90246 61.6529 9.10354 62.1334 9.19493L64.1109 9.54224C64.7762 9.65192 65.2567 9.853 65.5894 10.1272C65.9405 10.4014 66.1068 10.7853 66.1068 11.224V11.9369C66.1068 12.3025 65.996 12.6498 65.7927 12.9605C65.5894 13.2347 65.2752 13.4724 64.9056 13.6369C64.5359 13.8014 64.0739 13.8562 63.5934 13.8562H62.3737C61.616 13.8562 61.0061 13.6551 60.5625 13.2164Z" fill="#0B132B"/>
<path d="M67.4004 13.2164C66.9384 12.796 66.7351 12.1745 66.7351 11.3885H68.1951C68.1951 11.7541 68.2875 12.0465 68.4723 12.2659C68.6756 12.467 68.9343 12.5767 69.267 12.5767H70.4683C70.7824 12.5767 71.0412 12.5218 71.2445 12.3756C71.4478 12.2293 71.5217 12.0648 71.5217 11.8455V11.4799C71.5217 11.1326 71.263 10.9132 70.7455 10.8218L68.768 10.4745C68.1027 10.3648 67.6222 10.1638 67.2895 9.853C66.9384 9.54224 66.7721 9.17665 66.7721 8.70138V8.11644C66.7721 7.75085 66.883 7.40353 67.0862 7.12934C67.2895 6.85515 67.5667 6.61751 67.9733 6.453C68.343 6.28848 68.805 6.23364 69.2855 6.23364H70.5052C70.9673 6.23364 71.3923 6.32504 71.725 6.50784C72.0946 6.70891 72.3533 6.96483 72.5566 7.33042C72.7599 7.67773 72.8338 8.0616 72.8338 8.53687H71.3738C71.3738 8.22612 71.2814 8.00676 71.1151 7.82397C70.9488 7.65945 70.7455 7.54977 70.4498 7.54977H69.23C68.9159 7.54977 68.6941 7.60461 68.4908 7.75085C68.3245 7.89708 68.2136 8.0616 68.2136 8.26267V8.53687C68.2136 8.90246 68.4723 9.10354 68.9528 9.19493L70.9303 9.54224C71.5956 9.65192 72.0761 9.853 72.4457 10.1272C72.7969 10.4014 72.9632 10.7853 72.9632 11.224V11.9369C72.9632 12.3025 72.8523 12.6498 72.649 12.9605C72.4457 13.2347 72.1316 13.4724 71.7619 13.6369C71.3923 13.8014 70.9303 13.8562 70.4498 13.8562H69.23C68.4908 13.8562 67.8624 13.6551 67.4004 13.2164Z" fill="#0B132B"/>
<path d="M57.3836 6.94591C57.3466 6.85451 57.3281 6.79967 57.2912 6.74483C57.1248 6.47064 56.8292 6.3244 56.4595 6.28784C56.0899 6.28784 55.7942 6.43408 55.6279 6.74483C55.5909 6.79967 55.5724 6.85451 55.5355 6.94591L52.8003 13.7825H54.3342L55.018 12.0276H57.8086L58.3261 13.3255L58.4924 13.7459H60.0264L57.3836 6.94591ZM55.4246 10.8029L56.4226 8.1158L57.4205 10.8029H55.4246Z" fill="#0B132B"/>
</svg>
