<svg width="20" height="20" viewBox="0 0 20 20" fill="none" xmlns="http://www.w3.org/2000/svg">
    <path d="M10.0009 0C8.35298 0 7.00092 1.35207 7.00092 3H3.87396C3.82946 2.99237 3.78435 2.98877 3.7392 2.98926C3.70285 2.99021 3.66662 2.9938 3.6308 3H1.75092C1.65153 2.99859 1.55286 3.01696 1.46063 3.05402C1.36841 3.09108 1.28447 3.1461 1.21369 3.21588C1.14291 3.28566 1.08671 3.36882 1.04835 3.46051C1.00999 3.5522 0.990234 3.65061 0.990234 3.75C0.990234 3.84939 1.00999 3.9478 1.04835 4.03949C1.08671 4.13118 1.14291 4.21434 1.21369 4.28412C1.28447 4.3539 1.36841 4.40892 1.46063 4.44598C1.55286 4.48304 1.65153 4.50141 1.75092 4.5H3.00092V17.25C3.00092 18.7599 4.24103 20 5.75092 20H14.2509C15.7608 20 17.0009 18.7599 17.0009 17.25V4.5H18.2509C18.3503 4.50141 18.449 4.48304 18.5412 4.44598C18.6334 4.40892 18.7174 4.3539 18.7881 4.28412C18.8589 4.21434 18.9151 4.13118 18.9535 4.03949C18.9918 3.9478 19.0116 3.84939 19.0116 3.75C19.0116 3.65061 18.9918 3.5522 18.9535 3.46051C18.9151 3.36882 18.8589 3.28566 18.7881 3.21588C18.7174 3.1461 18.6334 3.09108 18.5412 3.05402C18.449 3.01696 18.3503 2.99859 18.2509 3H16.374C16.2934 2.98677 16.2113 2.98677 16.1308 3H13.0009C13.0009 1.35207 11.6488 0 10.0009 0ZM10.0009 1.5C10.838 1.5 11.5009 2.16293 11.5009 3H8.50091C8.50091 2.16293 9.16385 1.5 10.0009 1.5ZM4.50092 4.5H15.5009V17.25C15.5009 17.9491 14.95 18.5 14.2509 18.5H5.75092C5.0518 18.5 4.50092 17.9491 4.50092 17.25V4.5ZM8.2392 6.98926C8.04045 6.99236 7.85107 7.07423 7.71264 7.21686C7.57422 7.3595 7.49806 7.55125 7.50092 7.75V15.25C7.49951 15.3494 7.51787 15.4481 7.55493 15.5403C7.59199 15.6325 7.64701 15.7164 7.7168 15.7872C7.78658 15.858 7.86973 15.9142 7.96143 15.9526C8.05312 15.9909 8.15152 16.0107 8.25091 16.0107C8.35031 16.0107 8.44871 15.9909 8.5404 15.9526C8.6321 15.9142 8.71525 15.858 8.78503 15.7872C8.85482 15.7164 8.90984 15.6325 8.9469 15.5403C8.98396 15.4481 9.00232 15.3494 9.00091 15.25V7.75C9.00235 7.64962 8.98363 7.54997 8.94585 7.45695C8.90806 7.36394 8.85199 7.27946 8.78096 7.20852C8.70993 7.13758 8.62537 7.08161 8.53231 7.04395C8.43925 7.00629 8.33958 6.98769 8.2392 6.98926ZM11.7392 6.98926C11.5405 6.99236 11.3511 7.07423 11.2126 7.21686C11.0742 7.3595 10.9981 7.55125 11.0009 7.75V15.25C10.9995 15.3494 11.0179 15.4481 11.0549 15.5403C11.092 15.6325 11.147 15.7164 11.2168 15.7872C11.2866 15.858 11.3697 15.9142 11.4614 15.9526C11.5531 15.9909 11.6515 16.0107 11.7509 16.0107C11.8503 16.0107 11.9487 15.9909 12.0404 15.9526C12.1321 15.9142 12.2153 15.858 12.285 15.7872C12.3548 15.7164 12.4098 15.6325 12.4469 15.5403C12.484 15.4481 12.5023 15.3494 12.5009 15.25V7.75C12.5024 7.64962 12.4836 7.54997 12.4458 7.45695C12.4081 7.36394 12.352 7.27946 12.281 7.20852C12.2099 7.13758 12.1254 7.08161 12.0323 7.04395C11.9392 7.00629 11.8396 6.98769 11.7392 6.98926Z" fill="#A9AFC6"/>
</svg>
