<svg width="12" height="7" viewBox="0 0 12 7" fill="none" xmlns="http://www.w3.org/2000/svg">
    <path d="M7.99113 0.495335C7.86123 0.499205 7.73794 0.553495 7.64738 0.646702L5.72843 2.56565C5.68045 2.61172 5.64214 2.6669 5.61575 2.72797C5.58936 2.78903 5.57542 2.85475 5.57474 2.92127C5.57406 2.98779 5.58667 3.05377 5.61181 3.11536C5.63696 3.17695 5.67414 3.2329 5.72118 3.27994C5.76821 3.32697 5.82417 3.36415 5.88575 3.3893C5.94734 3.41444 6.01333 3.42705 6.07984 3.42637C6.14636 3.4257 6.21208 3.41175 6.27314 3.38536C6.33421 3.35897 6.38939 3.32066 6.43546 3.27268L8.35441 1.35373C8.42666 1.2835 8.47601 1.19308 8.49599 1.09432C8.51597 0.995562 8.50565 0.89307 8.46638 0.800277C8.42711 0.707484 8.36072 0.628719 8.27591 0.574305C8.19111 0.51989 8.09185 0.492364 7.99113 0.495335ZM10.9911 0.495335C10.8612 0.499205 10.7379 0.553495 10.6474 0.646702L6.00089 5.29319L4.35441 3.6467C4.30834 3.59872 4.25315 3.5604 4.19209 3.53401C4.13102 3.50762 4.06531 3.49368 3.99879 3.493C3.93227 3.49232 3.86628 3.50493 3.80469 3.53007C3.7431 3.55521 3.68715 3.5924 3.64011 3.63943C3.59307 3.68647 3.55589 3.74243 3.53075 3.80401C3.5056 3.8656 3.493 3.93159 3.49368 3.99811C3.49435 4.06463 3.5083 4.13035 3.53469 4.19141C3.56108 4.25248 3.59939 4.30766 3.64738 4.35373L5.64738 6.35373C5.74115 6.44747 5.86831 6.50012 6.00089 6.50012C6.13348 6.50012 6.26064 6.44747 6.35441 6.35373L11.3544 1.35373C11.4267 1.2835 11.476 1.19308 11.496 1.09432C11.516 0.995562 11.5056 0.89307 11.4664 0.800277C11.4271 0.707484 11.3607 0.628719 11.2759 0.574305C11.1911 0.51989 11.0918 0.492364 10.9911 0.495335ZM0.996013 3.49533C0.896546 3.49536 0.799347 3.52505 0.716842 3.58061C0.634337 3.63616 0.570276 3.71506 0.532847 3.80722C0.495419 3.89938 0.486324 4.0006 0.506726 4.09795C0.527128 4.1953 0.5761 4.28436 0.64738 4.35373L2.27336 5.98069C2.31984 6.02719 2.37503 6.06409 2.43578 6.08926C2.49652 6.11443 2.56163 6.12739 2.62738 6.1274C2.69314 6.12741 2.75825 6.11446 2.819 6.0893C2.87975 6.06414 2.93495 6.02726 2.98144 5.98077C3.02794 5.93427 3.06482 5.87907 3.08998 5.81832C3.11514 5.75757 3.12808 5.69246 3.12808 5.62671C3.12807 5.56095 3.11511 5.49584 3.08994 5.4351C3.06476 5.37435 3.02787 5.31916 2.98136 5.27268L1.35441 3.6467C1.30782 3.5988 1.25209 3.56073 1.19054 3.53473C1.12898 3.50874 1.06283 3.49534 0.996013 3.49533Z" fill="#02AEA4"/>
</svg>
