<svg width="20" height="20" viewBox="0 0 20 20" fill="none" xmlns="http://www.w3.org/2000/svg">
    <path d="M10 0C4.48603 0 0 4.48604 0 10C0 15.514 4.48603 20 10 20C15.514 20 20 15.514 20 10C20 4.48604 15.514 0 10 0ZM10 1.5C14.7033 1.5 18.5 5.2967 18.5 10C18.5 14.7033 14.7033 18.5 10 18.5C5.29669 18.5 1.5 14.7033 1.5 10C1.5 5.2967 5.29669 1.5 10 1.5ZM7 6.5C5.91667 6.5 5.21973 7.21973 5.21973 7.21973C5.14775 7.28884 5.09028 7.37161 5.0507 7.46321C5.01111 7.5548 4.9902 7.65338 4.98918 7.75316C4.98817 7.85294 5.00707 7.95192 5.04479 8.0443C5.08251 8.13668 5.13828 8.22061 5.20883 8.29117C5.27939 8.36172 5.36332 8.41749 5.4557 8.45521C5.54808 8.49293 5.64706 8.51183 5.74684 8.51082C5.84662 8.50981 5.9452 8.48889 6.03679 8.4493C6.12839 8.40972 6.21116 8.35225 6.28027 8.28027C6.28027 8.28027 6.58333 8 7 8C7.41667 8 7.71973 8.28027 7.71973 8.28027C7.78884 8.35225 7.87161 8.40972 7.96321 8.4493C8.0548 8.48889 8.15338 8.50981 8.25316 8.51082C8.35294 8.51183 8.45192 8.49293 8.5443 8.45521C8.63668 8.41749 8.72061 8.36172 8.79117 8.29117C8.86172 8.22061 8.91749 8.13668 8.95521 8.0443C8.99293 7.95192 9.01183 7.85294 9.01082 7.75316C9.00981 7.65338 8.98889 7.5548 8.9493 7.46321C8.90972 7.37161 8.85225 7.28884 8.78027 7.21973C8.78027 7.21973 8.08333 6.5 7 6.5ZM13 6.5C11.9167 6.5 11.2197 7.21973 11.2197 7.21973C11.1477 7.28884 11.0903 7.37161 11.0507 7.46321C11.0111 7.5548 10.9902 7.65338 10.9892 7.75316C10.9882 7.85294 11.0071 7.95192 11.0448 8.0443C11.0825 8.13668 11.1383 8.22061 11.2088 8.29117C11.2794 8.36172 11.3633 8.41749 11.4557 8.45521C11.5481 8.49293 11.6471 8.51183 11.7468 8.51082C11.8466 8.50981 11.9452 8.48889 12.0368 8.4493C12.1284 8.40972 12.2112 8.35225 12.2803 8.28027C12.2803 8.28027 12.5833 8 13 8C13.4167 8 13.7197 8.28027 13.7197 8.28027C13.7888 8.35225 13.8716 8.40972 13.9632 8.4493C14.0548 8.48889 14.1534 8.50981 14.2532 8.51082C14.3529 8.51183 14.4519 8.49293 14.5443 8.45521C14.6367 8.41749 14.7206 8.36172 14.7912 8.29117C14.8617 8.22061 14.9175 8.13668 14.9552 8.0443C14.9929 7.95192 15.0118 7.85294 15.0108 7.75316C15.0098 7.65338 14.9889 7.5548 14.9493 7.46321C14.9097 7.37161 14.8523 7.28884 14.7803 7.21973C14.7803 7.21973 14.0833 6.5 13 6.5ZM5.88672 11.4922C5.74404 11.4898 5.60365 11.5282 5.48201 11.6028C5.36037 11.6774 5.26254 11.7852 5.2 11.9134C5.13746 12.0417 5.11281 12.1851 5.12893 12.3269C5.14505 12.4687 5.20128 12.6029 5.29102 12.7139C6.38817 14.1082 8.09647 15 10 15C11.9035 15 13.6118 14.1082 14.709 12.7139C14.7715 12.6366 14.818 12.5478 14.8458 12.4524C14.8737 12.357 14.8823 12.2571 14.8712 12.1584C14.8601 12.0596 14.8295 11.9641 14.7812 11.8773C14.7329 11.7905 14.6678 11.7142 14.5897 11.6527C14.5117 11.5913 14.4222 11.546 14.3264 11.5194C14.2307 11.4928 14.1307 11.4855 14.0321 11.4979C13.9335 11.5104 13.8384 11.5422 13.7523 11.5917C13.6661 11.6412 13.5907 11.7073 13.5303 11.7861C12.7074 12.8318 11.4365 13.5 10 13.5C8.56353 13.5 7.29258 12.8318 6.46973 11.7861C6.40099 11.6964 6.31284 11.6233 6.21188 11.5724C6.11093 11.5215 5.99977 11.4941 5.88672 11.4922V11.4922Z" fill="#0B132B"/>
</svg>
