<svg width="18" height="18" viewBox="0 0 18 18" fill="none" xmlns="http://www.w3.org/2000/svg">
<path d="M1.25 0C0.568203 0 0 0.568203 0 1.25V2.79492C0 3.94325 0.527739 5.02942 1.42969 5.74023L6.5 9.73535V17.25C6.50007 17.3877 6.53806 17.5228 6.60981 17.6404C6.68155 17.7579 6.78429 17.8535 6.90674 17.9165C7.0292 17.9796 7.16665 18.0077 7.30403 17.9978C7.44141 17.9879 7.5734 17.9403 7.68555 17.8604L11.1855 15.3604C11.2828 15.291 11.362 15.1994 11.4167 15.0933C11.4714 14.9871 11.5 14.8694 11.5 14.75V9.73438L16.5703 5.74023C17.4723 5.02942 18 3.94325 18 2.79492V1.25C18 0.568203 17.4318 0 16.75 0H1.25ZM1.5 1.5H16.5V2.79492C16.5 3.4846 16.1846 4.13434 15.6426 4.56152L10.6436 8.5H7.35645L2.35742 4.56152C1.81537 4.13434 1.5 3.4846 1.5 2.79492V1.5ZM8 10H10V14.3643L8 15.793V10Z" fill="white"/>
</svg>
