<svg width="20" height="18" viewBox="0 0 20 18" fill="none" xmlns="http://www.w3.org/2000/svg">
<path d="M11.7393 0.500074C11.5422 0.502916 11.3542 0.583184 11.2159 0.723527C11.0775 0.86387 11 1.05301 11 1.25007V5.14265C9.67114 5.29087 7.48646 5.67172 5.28711 7.09578C2.79 8.71264 0.570089 11.6852 0.518555 16.5928C0.517805 16.5966 0.515393 16.5989 0.514648 16.6026H0.516602C0.516067 16.6566 0.5 16.6956 0.5 16.7501C0.500197 16.936 0.56947 17.1153 0.694377 17.2531C0.819284 17.3909 0.990918 17.4773 1.17597 17.4957C1.36103 17.5141 1.54631 17.463 1.69587 17.3525C1.84543 17.242 1.94859 17.0798 1.98535 16.8975C2.57902 13.9294 4.42959 12.6141 6.48047 11.9395C8.21145 11.3702 9.9062 11.37 11 11.4278V15.2501C11.0001 15.3984 11.0441 15.5433 11.1265 15.6666C11.2089 15.7899 11.326 15.886 11.463 15.9428C11.6001 15.9995 11.7508 16.0144 11.8963 15.9855C12.0417 15.9566 12.1754 15.8852 12.2803 15.7803L19.2803 8.78035C19.4209 8.63969 19.4999 8.44895 19.4999 8.25007C19.4999 8.0512 19.4209 7.86046 19.2803 7.7198L12.2803 0.7198C12.2094 0.648864 12.125 0.592869 12.032 0.555128C11.9391 0.517387 11.8395 0.498667 11.7393 0.500074ZM12.5 3.06062L17.6895 8.25007L12.5 13.4395V10.6925C12.5001 10.5057 12.4304 10.3256 12.3047 10.1874C12.179 10.0492 12.0063 9.96292 11.8203 9.94539C10.7783 9.84783 8.39484 9.7309 6.01172 10.5147C4.89836 10.8809 3.79271 11.4972 2.84375 12.378C3.60328 10.5209 4.77287 9.2165 6.10254 8.35554C8.28952 6.93949 10.8026 6.59532 11.8047 6.52156C11.9936 6.50773 12.1703 6.42291 12.2993 6.28415C12.4283 6.14539 12.5 5.96296 12.5 5.77351V3.06062Z" fill="#0B132B"/>
</svg>
