<svg width="18" height="14" viewBox="0 0 18 14" fill="none" xmlns="http://www.w3.org/2000/svg">
    <path d="M11.2393 7.38387e-05C11.0422 0.00291567 10.8542 0.0831835 10.7159 0.223527C10.5775 0.36387 10.5 0.553015 10.5 0.750074V4.00007H0.75C0.551094 4.00009 0.36034 4.07912 0.219692 4.21977C0.079044 4.36041 1.98876e-05 4.55117 0 4.75007V9.25007C1.98876e-05 9.44898 0.079044 9.63973 0.219692 9.78038C0.36034 9.92103 0.551094 10.0001 0.75 10.0001H10.5V13.2501C10.5001 13.4009 10.5456 13.5482 10.6307 13.6727C10.7158 13.7972 10.8364 13.8932 10.9768 13.9482C11.1173 14.0031 11.271 14.0144 11.418 13.9806C11.565 13.9469 11.6984 13.8696 11.8008 13.7589L17.8008 7.25886C17.9322 7.11654 18.0035 6.92889 17.9996 6.7352C17.9958 6.54152 17.9172 6.35683 17.7803 6.2198L11.7803 0.2198C11.7094 0.148864 11.625 0.0928691 11.532 0.055128C11.4391 0.017387 11.3395 -0.0013334 11.2393 7.38387e-05ZM12 2.56062L16.21 6.77058L12 11.3321V9.25007C12 9.05117 11.921 8.86041 11.7803 8.71976C11.6397 8.57912 11.4489 8.50009 11.25 8.50007H1.5V5.50007H11.25C11.4489 5.50005 11.6397 5.42103 11.7803 5.28038C11.921 5.13973 12 4.94898 12 4.75007V2.56062Z" fill="#A9AFC6"/>
</svg>
