<svg width="18" height="18" viewBox="0 0 18 18" fill="none" xmlns="http://www.w3.org/2000/svg">
    <path d="M2.75008 7.50059e-05C1.24019 7.50059e-05 7.72601e-05 1.24019 7.72601e-05 2.75008V5.75007C-0.00132828 5.84946 0.0170326 5.94813 0.0540929 6.04036C0.0911532 6.13258 0.146174 6.21652 0.215957 6.2873C0.285741 6.35808 0.368895 6.41428 0.460588 6.45264C0.552281 6.491 0.650683 6.51076 0.750077 6.51076C0.849471 6.51076 0.947874 6.491 1.03957 6.45264C1.13126 6.41428 1.21441 6.35808 1.2842 6.2873C1.35398 6.21652 1.409 6.13258 1.44606 6.04036C1.48312 5.94813 1.50148 5.84946 1.50008 5.75007V2.75008C1.50008 2.05096 2.05096 1.50007 2.75008 1.50007H5.75008C5.84946 1.50148 5.94813 1.48312 6.04036 1.44606C6.13259 1.409 6.21653 1.35398 6.2873 1.2842C6.35808 1.21441 6.41428 1.13126 6.45264 1.03956C6.491 0.947871 6.51076 0.849469 6.51076 0.750075C6.51076 0.650681 6.491 0.552278 6.45264 0.460586C6.41428 0.368893 6.35808 0.285738 6.2873 0.215955C6.21653 0.146172 6.13259 0.091151 6.04036 0.0540906C5.94813 0.0170303 5.84946 -0.00133053 5.75008 7.50059e-05H2.75008ZM12.2501 7.50059e-05C12.1507 -0.00133053 12.052 0.0170303 11.9598 0.0540906C11.8676 0.091151 11.7836 0.146172 11.7129 0.215955C11.6421 0.285738 11.5859 0.368893 11.5475 0.460586C11.5091 0.552278 11.4894 0.650681 11.4894 0.750075C11.4894 0.849469 11.5091 0.947871 11.5475 1.03956C11.5859 1.13126 11.6421 1.21441 11.7129 1.2842C11.7836 1.35398 11.8676 1.409 11.9598 1.44606C12.052 1.48312 12.1507 1.50148 12.2501 1.50007H15.2501C15.9492 1.50007 16.5001 2.05096 16.5001 2.75008V5.75007C16.4987 5.84946 16.517 5.94813 16.5541 6.04036C16.5912 6.13258 16.6462 6.21652 16.716 6.2873C16.7857 6.35808 16.8689 6.41428 16.9606 6.45264C17.0523 6.491 17.1507 6.51076 17.2501 6.51076C17.3495 6.51076 17.4479 6.491 17.5396 6.45264C17.6313 6.41428 17.7144 6.35808 17.7842 6.2873C17.854 6.21652 17.909 6.13258 17.9461 6.04036C17.9831 5.94813 18.0015 5.84946 18.0001 5.75007V2.75008C18.0001 1.24019 16.76 7.50059e-05 15.2501 7.50059e-05H12.2501ZM0.738358 11.4893C0.539616 11.4924 0.350233 11.5743 0.211805 11.7169C0.0733779 11.8596 -0.00277369 12.0513 7.72601e-05 12.2501V15.2501C7.72601e-05 16.76 1.24019 18.0001 2.75008 18.0001H5.75008C5.84946 18.0015 5.94813 17.9831 6.04036 17.9461C6.13259 17.909 6.21653 17.854 6.2873 17.7842C6.35808 17.7144 6.41428 17.6313 6.45264 17.5396C6.491 17.4479 6.51076 17.3495 6.51076 17.2501C6.51076 17.1507 6.491 17.0523 6.45264 16.9606C6.41428 16.8689 6.35808 16.7857 6.2873 16.716C6.21653 16.6462 6.13259 16.5912 6.04036 16.5541C5.94813 16.517 5.84946 16.4987 5.75008 16.5001H2.75008C2.05096 16.5001 1.50008 15.9492 1.50008 15.2501V12.2501C1.50152 12.1497 1.48279 12.05 1.44501 11.957C1.40723 11.864 1.35116 11.7795 1.28012 11.7086C1.20909 11.6377 1.12454 11.5817 1.03147 11.544C0.938414 11.5064 0.838739 11.4878 0.738358 11.4893ZM17.2384 11.4893C17.0396 11.4924 16.8502 11.5743 16.7118 11.7169C16.5734 11.8596 16.4972 12.0513 16.5001 12.2501V15.2501C16.5001 15.9492 15.9492 16.5001 15.2501 16.5001H12.2501C12.1507 16.4987 12.052 16.517 11.9598 16.5541C11.8676 16.5912 11.7836 16.6462 11.7129 16.716C11.6421 16.7857 11.5859 16.8689 11.5475 16.9606C11.5091 17.0523 11.4894 17.1507 11.4894 17.2501C11.4894 17.3495 11.5091 17.4479 11.5475 17.5396C11.5859 17.6313 11.6421 17.7144 11.7129 17.7842C11.7836 17.854 11.8676 17.909 11.9598 17.9461C12.052 17.9831 12.1507 18.0015 12.2501 18.0001H15.2501C16.76 18.0001 18.0001 16.76 18.0001 15.2501V12.2501C18.0015 12.1497 17.9828 12.05 17.945 11.957C17.9072 11.864 17.8512 11.7795 17.7801 11.7086C17.7091 11.6377 17.6245 11.5817 17.5315 11.544C17.4384 11.5064 17.3387 11.4878 17.2384 11.4893Z" fill="white"/>
</svg>
