<svg width="18" height="18" viewBox="0 0 18 18" fill="none" xmlns="http://www.w3.org/2000/svg">
<path d="M2.75 0C1.234 0 0 1.234 0 2.75V15.25C0 15.7525 0.137523 16.2229 0.374023 16.6289L7.59375 9.56836C8.38175 8.80486 9.61823 8.80386 10.4072 9.56836L17.624 16.6309C17.861 16.2244 18 15.7535 18 15.25V2.75C18 1.234 16.766 0 15.25 0H2.75ZM12.25 4C13.2165 4 14 4.7835 14 5.75C14 6.7165 13.2165 7.5 12.25 7.5C11.2835 7.5 10.5 6.7165 10.5 5.75C10.5 4.7835 11.2835 4 12.25 4ZM9 10.4971C8.86913 10.497 8.73822 10.5468 8.63672 10.6455L1.4541 17.6738C1.8401 17.8813 2.2815 18 2.75 18H15.25C15.7175 18 16.1579 17.8823 16.5439 17.6758L9.36426 10.6465C9.26226 10.5475 9.13087 10.4971 9 10.4971Z" fill="white"/>
</svg>
