<svg width="219" height="84" viewBox="0 0 219 84" fill="none" xmlns="http://www.w3.org/2000/svg">
<path d="M214.743 10.0654L213.42 7.78851C213.817 7.63467 214.153 7.35717 214.38 6.99709C214.607 6.63701 214.711 6.21349 214.679 5.78925C214.679 4.52124 213.929 3.58643 212.152 3.58643H209.468V10.0654H211.013V8.00138H212.041L213.207 10.0654H214.743ZM211.013 4.93776H212.096C212.791 4.93776 213.077 5.28948 213.077 5.78926C213.077 6.29837 212.791 6.65003 212.096 6.65003H211.013V4.93776Z" fill="#1E294C"/>
<path fill-rule="evenodd" clip-rule="evenodd" d="M211.897 12.4951C213.019 12.4951 214.115 12.1627 215.047 11.5397C215.979 10.9168 216.706 10.0314 217.135 8.99553C217.564 7.95964 217.676 6.81977 217.457 5.72008C217.239 4.62039 216.699 3.61025 215.906 2.81742C215.113 2.02459 214.103 1.48466 213.003 1.26592C211.904 1.04717 210.764 1.15944 209.728 1.58852C208.692 2.0176 207.807 2.74422 207.184 3.67649C206.561 4.60877 206.228 5.70483 206.228 6.82607C206.228 8.3296 206.826 9.77154 207.889 10.8347C208.952 11.8979 210.394 12.4951 211.897 12.4951V12.4951ZM211.897 13.6521C213.247 13.6521 214.567 13.2518 215.69 12.5017C216.812 11.7516 217.687 10.6856 218.204 9.43826C218.72 8.19096 218.856 6.81847 218.592 5.49435C218.329 4.17022 217.679 2.95394 216.724 1.9993C215.769 1.04466 214.553 0.394543 213.229 0.131162C211.905 -0.13222 210.532 0.00295823 209.285 0.51961C208.038 1.03626 206.972 1.91118 206.222 3.03372C205.472 4.15626 205.071 5.47601 205.071 6.82608C205.071 8.63645 205.79 10.3727 207.071 11.6528C208.351 12.9329 210.087 13.6521 211.897 13.6521V13.6521Z" fill="#1E294C"/>
<path d="M214.954 24.3692C214.588 22.8393 213.709 21.4806 212.465 20.5184C211.22 19.5561 209.684 19.0481 208.111 19.0785H179.172C178.761 19.0785 178.35 19.0785 177.932 19.085C176.68 19.1176 175.531 19.1763 174.429 19.2742L174.136 19.3003C169.846 19.6222 165.639 20.647 161.682 22.3338C160.969 21.5169 160.087 20.8646 159.096 20.422C158.106 19.9793 157.032 19.7569 155.948 19.77H146.606C145.09 19.7873 143.606 20.1966 142.295 20.9579C140.985 21.7193 139.895 22.8068 139.129 24.1148L131.36 37.2208L128.535 25.4652C128.132 23.8279 127.188 22.3747 125.856 21.341C124.524 20.3073 122.882 19.7538 121.196 19.77H111.854C110.701 19.7829 109.562 20.0242 108.503 20.48C107.443 20.9357 106.485 21.5968 105.683 22.4251C101.403 20.2266 95.9232 19.1502 89.0864 19.1502C87.3708 19.1502 85.8115 19.2155 84.3568 19.346C79.2855 19.6748 74.3309 21.0121 69.783 23.2797L70.4093 19.7374C70.6128 18.6407 70.5735 17.5128 70.294 16.433C70.0144 15.3532 69.5015 14.3478 68.7914 13.4877C68.0765 12.6456 67.1853 11.9707 66.1809 11.5108C65.1765 11.0508 64.0833 10.8171 62.9787 10.826H53.1085C51.0693 10.8523 49.1027 11.5863 47.5449 12.9024C45.9872 14.2186 44.9351 16.0351 44.5688 18.0412L42.7098 28.5965H31.4564L33.0154 19.7374C33.2301 18.6471 33.1989 17.5226 32.9239 16.4459C32.6489 15.3692 32.1371 14.3674 31.4258 13.5136C30.7146 12.6598 29.8217 11.9755 28.8124 11.5105C27.803 11.0456 26.7027 10.8118 25.5915 10.8261H15.7213C13.6821 10.8523 11.7155 11.5863 10.1578 12.9024C8.60008 14.2186 7.54813 16.0351 7.18189 18.0412L0.129762 58.0379C-0.0754428 59.1345 -0.0368812 60.2628 0.242715 61.3429C0.52231 62.4229 1.03609 63.4282 1.74763 64.2875C2.46161 65.1286 3.35178 65.8025 4.35512 66.2613C5.35846 66.7201 6.45041 66.9528 7.55363 66.9427H17.4239C19.4624 66.9178 21.4289 66.1852 22.9867 64.8701C24.5446 63.5551 25.5969 61.7395 25.9636 59.734L27.8292 49.1722H39.0759L37.5169 58.0379C37.3133 59.1345 37.3526 60.2625 37.6321 61.3423C37.9117 62.4221 38.4246 63.4275 39.1348 64.2875C39.8492 65.1281 40.7395 65.8016 41.7427 66.2604C42.7459 66.7192 43.8377 66.9521 44.9408 66.9427H54.811C56.3916 66.9254 57.9382 66.4825 59.2883 65.6605C60.6384 64.8385 61.742 63.6679 62.483 62.2717C67.1015 65.788 73.7494 67.569 82.2758 67.569C91.4414 67.569 98.9764 65.5532 104.678 61.5737C106.593 60.2357 108.317 58.6447 109.805 56.8441L110.536 59.858C110.806 61.0219 111.302 62.1212 111.998 63.0929C112.693 64.0646 113.573 64.8896 114.587 65.5205L110.765 71.979C110.018 73.1766 109.605 74.5524 109.569 75.9635C109.534 77.3745 109.877 78.7694 110.562 80.0031C111.223 81.1552 112.18 82.1094 113.334 82.7667C114.488 83.424 115.797 83.7605 117.125 83.7412H126.474C127.989 83.7246 129.474 83.3157 130.784 82.5543C132.095 81.7928 133.185 80.7048 133.95 79.3964L147.63 56.3157C148.549 58.1119 149.777 59.7327 151.257 61.1041C155.948 65.4032 162.849 67.4907 172.355 67.4907C181.527 67.4907 189.062 65.4814 194.764 61.502C200.583 57.4117 204.197 51.573 205.508 44.136C206.037 41.3672 206.099 38.5293 205.691 35.74L210.773 33.1175C212.351 32.3415 213.623 31.0561 214.381 29.4689C215.14 27.8817 215.342 26.0851 214.954 24.3692V24.3692ZM208.528 28.7661L199.937 33.1957L199.897 33.2153C199.911 33.2296 199.92 33.2478 199.924 33.2675C199.93 33.287 199.937 33.2936 199.943 33.3131C201.13 36.0726 201.381 39.3954 200.693 43.2813C199.604 49.4396 196.69 54.178 191.952 57.4964C187.072 60.8952 180.54 62.5957 172.355 62.5979C164.213 62.5979 158.283 60.8974 154.565 57.4964C150.996 54.1693 149.754 49.4309 150.84 43.2813C151.045 42.1338 151.324 41.0007 151.675 39.889L129.742 76.9043C129.407 77.4791 128.931 77.9591 128.359 78.2993C127.788 78.6394 127.139 78.8283 126.474 78.8484H117.125C114.868 78.8484 113.739 76.5586 114.972 74.471L122.325 62.0499H119.702C118.695 62.091 117.704 61.7811 116.9 61.1731C116.096 60.5651 115.527 59.6968 115.292 58.7163L110.934 40.5936C110.879 41.5211 110.77 42.4447 110.608 43.3596C110.523 43.8489 110.425 44.3382 110.315 44.8079C110.196 45.271 109.93 45.683 109.557 45.9819C109.184 46.2808 108.724 46.4503 108.247 46.4649H72.7186C72.8543 47.3119 73.1848 48.1159 73.6841 48.8134C75.3084 51.0902 78.7854 52.2274 84.1153 52.2253C89.0734 52.2253 92.7724 51.2445 95.2123 49.2831C95.5982 48.9771 96.0767 48.8115 96.5692 48.8134H106.55C107.823 48.8134 108.449 50.1116 107.751 51.2859C106.258 53.776 104.252 55.9198 101.866 57.5747C96.9932 60.9735 90.4631 62.674 82.2758 62.6762C74.1342 62.6762 68.2021 60.9757 64.4793 57.5747C62.0447 55.2902 60.5942 52.1482 60.4345 48.8134C60.4215 48.6307 60.4215 48.448 60.4084 48.2589L58.5361 58.8859C58.3622 59.7557 57.8998 60.5414 57.2237 61.1156C56.5477 61.6899 55.6975 62.0191 54.8111 62.0499H44.9408C44.5447 62.0644 44.1505 61.9873 43.789 61.8246C43.4275 61.6619 43.1084 61.418 42.8565 61.1119C42.6047 60.8058 42.4268 60.4457 42.3368 60.0596C42.2469 59.6735 42.2472 59.2719 42.3377 58.8859L44.9083 44.2794H23.7258L21.1489 58.8859C20.975 59.7557 20.5125 60.5414 19.8365 61.1156C19.1604 61.6899 18.3103 62.0191 17.4238 62.0499H7.55362C7.15735 62.064 6.76315 61.9867 6.40154 61.824C6.03994 61.6613 5.72063 61.4176 5.46833 61.1117C5.21604 60.8058 5.03753 60.4459 4.94664 60.06C4.85574 59.674 4.85489 59.2723 4.94415 58.8859L11.9963 18.8893C12.1709 18.0193 12.6333 17.2333 13.309 16.6582C13.9848 16.083 14.8345 15.7521 15.7213 15.7188H25.5915C25.9882 15.7055 26.3826 15.7835 26.7443 15.9469C27.106 16.1103 27.4252 16.3547 27.6774 16.6611C27.9297 16.9675 28.108 17.3278 28.1988 17.7142C28.2896 18.1006 28.2903 18.5026 28.201 18.8893L25.6243 33.4893H46.8132L49.3899 18.8893C49.5626 18.0184 50.0245 17.2313 50.7006 16.6558C51.3768 16.0803 52.2275 15.7501 53.1149 15.7188H62.9787C63.3754 15.7055 63.7698 15.7835 64.1315 15.9469C64.4932 16.1103 64.8125 16.3547 65.0647 16.6611C65.3169 16.9675 65.4953 17.3278 65.5861 17.7142C65.6768 18.1006 65.6776 18.5026 65.5882 18.8893L62.1372 38.4603C62.5767 37.3456 63.1091 36.2697 63.7289 35.2442C64.6207 33.7719 65.7044 32.4249 66.9516 31.2386C67.7411 30.4789 68.5897 29.783 69.4894 29.1576C73.5144 26.372 78.6051 24.7258 84.7614 24.2192C86.1509 24.0952 87.5862 24.043 89.0865 24.043C97.2803 24.043 103.21 25.7479 106.877 29.1576C107.554 29.7787 108.156 30.4771 108.671 31.2386C108.683 31.2464 108.692 31.2578 108.697 31.2712L108.162 29.0467C107.66 26.9591 109.597 24.6628 111.854 24.6628H121.196C121.786 24.6398 122.365 24.8215 122.836 25.1771C123.307 25.5326 123.64 26.04 123.78 26.6133L129.416 50.0855L143.337 26.6133C143.673 26.0383 144.148 25.5578 144.72 25.2166C145.292 24.8755 145.94 24.6849 146.606 24.6628H155.948C158.211 24.6628 159.334 26.9591 158.1 29.0467L156.567 31.63C157.488 30.6879 158.495 29.8339 159.575 29.0793C163.535 26.3459 168.532 24.7106 174.566 24.1735C174.651 24.167 174.755 24.1539 174.84 24.1474C175.884 24.0561 176.947 24.0039 178.05 23.9778C178.428 23.9713 178.8 23.9713 179.172 23.9713H208.111C210.747 23.9712 211.053 27.4679 208.528 28.7661L208.528 28.7661Z" fill="#1E294C"/>
<path d="M208.111 23.9712H179.172C178.8 23.9712 178.428 23.9712 178.05 23.9777C176.947 24.0038 175.884 24.056 174.84 24.1473C174.755 24.1539 174.651 24.1669 174.566 24.1734C168.525 24.7018 163.528 26.3371 159.574 29.0792C158.495 29.8338 157.488 30.6878 156.567 31.63L158.1 29.0466C159.333 26.959 158.211 24.6627 155.948 24.6627H146.605C145.94 24.6849 145.291 24.8754 144.72 25.2166C144.148 25.5577 143.673 26.0383 143.337 26.6133L129.416 50.0855L123.779 26.6133C123.64 26.04 123.307 25.5325 122.836 25.177C122.365 24.8215 121.786 24.6398 121.196 24.6627H111.854C109.597 24.6627 107.659 26.959 108.162 29.0466L108.697 31.2712C108.692 31.2578 108.682 31.2463 108.67 31.2386C108.156 30.4771 107.554 29.7786 106.876 29.1575C103.204 25.7522 97.2737 24.0473 89.0864 24.043C87.5861 24.043 86.1507 24.0951 84.7613 24.2191C78.603 24.7279 73.5123 26.3741 69.4892 29.1575C68.5896 29.783 67.741 30.4788 66.9514 31.2386C65.7043 32.4248 64.6205 33.7719 63.7288 35.2441C63.109 36.2697 62.5766 37.3455 62.1371 38.4603L65.5881 18.8892C65.6774 18.5026 65.6767 18.1005 65.5859 17.7142C65.4951 17.3278 65.3168 16.9675 65.0645 16.661C64.8123 16.3546 64.4931 16.1102 64.1314 15.9469C63.7697 15.7835 63.3753 15.7054 62.9786 15.7187H53.1147C52.2274 15.7501 51.3766 16.0803 50.7005 16.6558C50.0243 17.2313 49.5624 18.0183 49.3897 18.8892L46.8131 33.4892H25.6242L28.2008 18.8892C28.2902 18.5026 28.2894 18.1005 28.1987 17.7142C28.1079 17.3278 27.9295 16.9675 27.6773 16.661C27.4251 16.3546 27.1058 16.1102 26.7441 15.9469C26.3824 15.7835 25.988 15.7054 25.5914 15.7187H15.7212C14.8344 15.752 13.9847 16.0829 13.3089 16.6581C12.6331 17.2333 12.1707 18.0192 11.9961 18.8892L4.94401 58.8859C4.85475 59.2722 4.8556 59.6739 4.94649 60.0599C5.03739 60.4459 5.2159 60.8057 5.46819 61.1116C5.72048 61.4175 6.03979 61.6613 6.4014 61.824C6.76301 61.9867 7.15721 62.064 7.55348 62.0499H17.4237C18.3102 62.019 19.1603 61.6898 19.8364 61.1156C20.5125 60.5413 20.9749 59.7557 21.1488 58.8859L23.7257 44.2794H44.9082L42.3376 58.8859C42.2471 59.2718 42.2468 59.6735 42.3367 60.0595C42.4267 60.4456 42.6046 60.8057 42.8564 61.1119C43.1083 61.418 43.4274 61.6619 43.7889 61.8246C44.1504 61.9873 44.5445 62.0644 44.9407 62.0499H54.8109C55.6974 62.019 56.5475 61.6898 57.2236 61.1156C57.8997 60.5413 58.3621 59.7557 58.536 58.8859L60.4083 48.2588C60.4214 48.448 60.4214 48.6307 60.4344 48.8133C60.5941 52.1481 62.0446 55.2901 64.4792 57.5746C68.2042 60.9734 74.1364 62.6739 82.2757 62.6761C90.4627 62.6761 96.9929 60.9756 101.866 57.5746C104.252 55.9198 106.258 53.776 107.75 51.2858C108.449 50.1116 107.822 48.8133 106.55 48.8133H96.5691C96.0766 48.8115 95.5981 48.9771 95.2121 49.283C92.7721 51.2467 89.0732 52.2274 84.1152 52.2252C78.7921 52.2252 75.3151 51.0879 73.684 48.8133C73.1847 48.1158 72.8542 47.3119 72.7185 46.4648H108.246C108.724 46.4503 109.184 46.2808 109.557 45.9819C109.93 45.683 110.196 45.2709 110.314 44.8078C110.425 44.3381 110.523 43.8488 110.608 43.3595C110.77 42.4446 110.879 41.5211 110.934 40.5935L115.292 58.7163C115.527 59.6967 116.095 60.5651 116.9 61.1731C117.704 61.7811 118.695 62.091 119.702 62.0499H122.325L114.972 74.4709C113.739 76.5585 114.868 78.8483 117.125 78.8483H126.474C127.139 78.8283 127.787 78.6393 128.359 78.2992C128.931 77.9591 129.407 77.4791 129.742 76.9043L151.674 39.889C151.324 41.0006 151.045 42.1337 150.84 43.2813C149.756 49.4396 150.998 54.178 154.565 57.4964C158.276 60.8952 164.206 62.5957 172.355 62.5979C180.548 62.5979 187.081 60.8974 191.952 57.4964C196.694 54.1693 199.608 49.4309 200.693 43.2813C201.378 39.3932 201.128 36.0705 199.943 33.3131C199.937 33.2935 199.93 33.287 199.923 33.2674C199.92 33.2478 199.911 33.2295 199.897 33.2152L199.937 33.1957L208.528 28.7661C211.053 27.4679 210.746 23.9712 208.111 23.9712ZM73.8143 40.2478C75.1127 37.7949 77.4134 36.127 80.7164 35.2441C82.8489 34.7105 85.0421 34.4583 87.2401 34.4939C89.3528 34.4446 91.4616 34.6972 93.5029 35.2441C96.5038 36.1248 98.2174 37.7927 98.6435 40.2478H73.8143ZM186.478 43.2813C185.617 48.1871 181.614 50.64 174.468 50.64C167.338 50.64 164.202 48.1871 165.061 43.2813C165.929 38.3755 169.93 35.9204 177.064 35.916C178.784 35.8778 180.501 36.0776 182.166 36.5097C183.579 36.8264 184.84 37.6214 185.734 38.7604C186.557 39.9151 186.805 41.422 186.478 43.2812V43.2813Z" fill="white"/>
<path d="M98.6436 40.248H73.8145C75.1128 37.7951 77.4135 36.1272 80.7165 35.2443C82.8491 34.7107 85.0422 34.4585 87.2402 34.4941C89.3529 34.4448 91.4618 34.6974 93.503 35.2443C96.504 36.125 98.2175 37.7929 98.6436 40.248Z" fill="#1E294C"/>
<path d="M186.478 43.2814C185.617 48.1872 181.614 50.6401 174.468 50.6401C167.338 50.6401 164.202 48.1872 165.061 43.2814C165.929 38.3757 169.93 35.9206 177.065 35.9162C178.784 35.878 180.501 36.0778 182.166 36.5099C183.58 36.8266 184.84 37.6216 185.735 38.7605C186.557 39.9153 186.805 41.4222 186.478 43.2814Z" fill="#1E294C"/>
</svg>
