<svg width="16" height="16" viewBox="0 0 16 16" fill="none" xmlns="http://www.w3.org/2000/svg">
<g clip-path="url(#clip0_3981_49502)">
<g clip-path="url(#clip1_3981_49502)">
<path d="M10.8236 1.32877C10.6937 1.33256 10.5705 1.38673 10.4798 1.47982L8.47984 3.47982C8.38611 3.57359 8.33345 3.70075 8.33345 3.83333C8.33345 3.96592 8.38611 4.09308 8.47984 4.18685L10.4798 6.18685C10.5259 6.23483 10.5811 6.27314 10.6422 6.29953C10.7032 6.32593 10.7689 6.33987 10.8355 6.34054C10.902 6.34122 10.968 6.32862 11.0296 6.30347C11.0911 6.27833 11.1471 6.24115 11.1941 6.19411C11.2412 6.14707 11.2784 6.09112 11.3035 6.02953C11.3286 5.96794 11.3412 5.90196 11.3406 5.83544C11.3399 5.76892 11.326 5.7032 11.2996 5.64214C11.2732 5.58107 11.2349 5.52589 11.1869 5.47982L10.0404 4.33333H13.8334C13.8996 4.33427 13.9654 4.32203 14.0269 4.29732C14.0884 4.27261 14.1443 4.23593 14.1915 4.18941C14.2387 4.14289 14.2762 4.08745 14.3017 4.02632C14.3273 3.9652 14.3405 3.89959 14.3405 3.83333C14.3405 3.76707 14.3273 3.70147 14.3017 3.64034C14.2762 3.57921 14.2387 3.52377 14.1915 3.47725C14.1443 3.43073 14.0884 3.39405 14.0269 3.36934C13.9654 3.34464 13.8996 3.33239 13.8334 3.33333H10.0404L11.1869 2.18685C11.259 2.1166 11.3083 2.0262 11.3282 1.9275C11.3481 1.8288 11.3377 1.72639 11.2985 1.63366C11.2592 1.54094 11.1929 1.46223 11.1081 1.40783C11.0234 1.35343 10.9242 1.32588 10.8236 1.32877ZM4.46552 1.33724C4.29908 1.3243 4.12783 1.34273 3.95966 1.39648L3.24221 1.6263C2.53055 1.85363 1.98527 2.46285 1.80927 3.22851C1.39094 5.04785 1.89283 7.26271 3.31383 9.87304C4.73383 12.48 6.28978 14.0475 7.98245 14.5755C8.69945 14.7992 9.47494 14.602 10.0176 14.0573L10.5625 13.5098C11.0712 12.9991 11.1451 12.1681 10.7351 11.5658L9.91344 10.3587C9.56077 9.84072 8.9344 9.62083 8.3594 9.8125L7.1107 10.2292C6.94404 10.2848 6.75709 10.2556 6.62242 10.1426C6.11409 9.71558 5.6828 9.19721 5.3288 8.58854C4.97413 7.97854 4.74529 7.36007 4.64195 6.73307C4.61495 6.56907 4.67754 6.40308 4.7982 6.28841L5.86916 5.27213C6.32316 4.84147 6.46128 4.14889 6.21161 3.55989L5.6387 2.20833C5.4227 1.69883 4.96483 1.37607 4.46552 1.33724Z" fill="#0B132B"/>
</g>
</g>
<defs>
<clipPath id="clip0_3981_49502">
<rect width="16" height="16" fill="white"/>
</clipPath>
<clipPath id="clip1_3981_49502">
<rect width="16" height="16" fill="white"/>
</clipPath>
</defs>
</svg>
