<svg width="18" height="20" viewBox="0 0 18 20" fill="none" xmlns="http://www.w3.org/2000/svg">
    <path d="M9 0C4.31463 0 0.5 3.81463 0.5 8.5C0.5 10.6034 1.27165 12.5324 2.53906 14.0156L2.54297 14.0195L2.5459 14.0234C2.5459 14.0234 6.16186 18.1495 7.44922 19.3779C8.31128 20.1998 9.68774 20.1998 10.5498 19.3779C12.0172 17.9783 15.4551 14.0215 15.4551 14.0215L15.457 14.0186L15.46 14.0156C16.7285 12.5324 17.5 10.6034 17.5 8.5C17.5 3.81463 13.6854 0 9 0ZM9 1.5C12.8746 1.5 16 4.62537 16 8.5C16 10.2376 15.3668 11.8163 14.3193 13.041C14.3125 13.0488 10.795 17.0718 9.51465 18.293C9.21771 18.5761 8.78131 18.5761 8.48438 18.293C7.41429 17.2719 3.69055 13.0533 3.67969 13.041L3.67871 13.04C2.63266 11.8154 2 10.2371 2 8.5C2 4.62537 5.12537 1.5 9 1.5ZM13.1709 5.49023C13.0408 5.4914 12.9132 5.52641 12.8007 5.59181C12.6882 5.65721 12.5946 5.75076 12.5292 5.86326C12.4638 5.97576 12.4288 6.10334 12.4276 6.23347C12.4264 6.3636 12.4591 6.4918 12.5225 6.60547C13.157 7.78373 13.157 9.21627 12.5225 10.3945C12.4724 10.4815 12.4404 10.5775 12.4281 10.677C12.4159 10.7766 12.4237 10.8776 12.4512 10.974C12.4786 11.0705 12.5251 11.1604 12.588 11.2386C12.6508 11.3167 12.7287 11.3815 12.817 11.4291C12.9053 11.4766 13.0022 11.506 13.102 11.5154C13.2019 11.5248 13.3026 11.5141 13.3982 11.484C13.4939 11.4538 13.5825 11.4048 13.6588 11.3397C13.7352 11.2747 13.7977 11.1951 13.8428 11.1055C14.7172 9.48173 14.7172 7.51827 13.8428 5.89453C13.779 5.77172 13.6825 5.66895 13.5639 5.59759C13.4453 5.52624 13.3093 5.48908 13.1709 5.49023ZM4.80664 5.49121C4.67218 5.49404 4.54095 5.53297 4.4267 5.60393C4.31244 5.67489 4.21937 5.77526 4.15723 5.89453C3.28271 7.51839 3.28344 9.4819 4.15723 11.1055C4.20226 11.1951 4.2648 11.2747 4.34116 11.3397C4.41751 11.4048 4.50613 11.4538 4.60177 11.484C4.69741 11.5141 4.79812 11.5248 4.89796 11.5154C4.9978 11.506 5.09473 11.4766 5.18303 11.4291C5.27132 11.3815 5.34919 11.3167 5.41202 11.2386C5.47485 11.1604 5.52137 11.0705 5.54883 10.974C5.57629 10.8776 5.58413 10.7766 5.57188 10.677C5.55964 10.5775 5.52756 10.4815 5.47754 10.3945C4.84332 9.2161 4.84306 7.78361 5.47754 6.60547C5.54162 6.49016 5.57415 6.35999 5.57186 6.2281C5.56956 6.0962 5.53253 5.96724 5.46448 5.85423C5.39644 5.74121 5.29979 5.64815 5.18429 5.58441C5.06879 5.52068 4.93853 5.48853 4.80664 5.49121ZM9 6C8.22917 6 7.55607 6.31607 7.12695 6.79883C6.69783 7.28159 6.5 7.89583 6.5 8.5C6.5 9.10417 6.69783 9.71841 7.12695 10.2012C7.55607 10.6839 8.22917 11 9 11C9.77083 11 10.4439 10.6839 10.873 10.2012C11.3022 9.71841 11.5 9.10417 11.5 8.5C11.5 7.89583 11.3022 7.28159 10.873 6.79883C10.4439 6.31607 9.77083 6 9 6ZM9 7.5C9.39583 7.5 9.59774 7.62143 9.75195 7.79492C9.90617 7.96841 10 8.22917 10 8.5C10 8.77083 9.90617 9.03159 9.75195 9.20508C9.59774 9.37857 9.39583 9.5 9 9.5C8.60417 9.5 8.40226 9.37857 8.24805 9.20508C8.09383 9.03159 8 8.77083 8 8.5C8 8.22917 8.09383 7.96841 8.24805 7.79492C8.40226 7.62143 8.60417 7.5 9 7.5Z" fill="white"/>
</svg>
