<svg width="28" height="28" viewBox="0 0 28 28" fill="none" xmlns="http://www.w3.org/2000/svg">
    <path d="M14.0013 0.666504C6.6493 0.666504 0.667969 6.64784 0.667969 13.9998C0.667969 21.3518 6.6493 27.3332 14.0013 27.3332C21.3533 27.3332 27.3346 21.3518 27.3346 13.9998C27.3346 6.64784 21.3533 0.666504 14.0013 0.666504ZM18.918 10.7372L15.592 19.5052C15.402 20.0065 14.9213 20.3358 14.386 20.3332C14.0406 20.3312 13.7193 20.1912 13.4853 19.9572C13.3566 19.8285 13.254 19.6712 13.188 19.4925L11.932 16.0692L8.50864 14.8132C8.0053 14.6272 7.6713 14.1505 7.66797 13.6158C7.6653 13.0805 7.9953 12.5998 8.49597 12.4098L17.264 9.08384C17.736 8.90517 18.2686 9.01917 18.626 9.37584C18.9826 9.7325 19.0966 10.2652 18.918 10.7372Z" fill="#02AEA4"/>
</svg>
