<svg width="30" height="34" viewBox="0 0 30 34" fill="none" xmlns="http://www.w3.org/2000/svg">
    <path d="M14.9987 0.333252C7.18974 0.333252 0.832031 6.69096 0.832031 14.4999C0.832031 18.0056 2.11812 21.2206 4.23047 23.6926L4.23698 23.6991L4.24186 23.7056C4.24186 23.7056 10.2685 30.5824 12.4141 32.6298C13.8508 33.9996 16.1449 33.9996 17.5817 32.6298C20.0274 30.2971 25.7572 23.7024 25.7572 23.7024L25.7604 23.6975L25.7653 23.6926C27.8795 21.2206 29.1654 18.0056 29.1654 14.4999C29.1654 6.69096 22.8077 0.333252 14.9987 0.333252ZM14.9987 2.83325C21.4564 2.83325 26.6654 8.04221 26.6654 14.4999C26.6654 17.3959 25.61 20.0271 23.8643 22.0683C23.8529 22.0813 17.9904 28.7862 15.8564 30.8215C15.3616 31.2934 14.6342 31.2934 14.1393 30.8215C12.3558 29.1197 6.14961 22.0888 6.13151 22.0683L6.12988 22.0667C4.38647 20.0256 3.33203 17.3951 3.33203 14.4999C3.33203 8.04221 8.54099 2.83325 14.9987 2.83325ZM14.9987 9.49992C13.4362 9.49992 12.106 10.1309 11.252 11.0917C10.3979 12.0526 9.9987 13.2846 9.9987 14.4999C9.9987 15.7152 10.3979 16.9473 11.252 17.9081C12.106 18.869 13.4362 19.4999 14.9987 19.4999C16.5612 19.4999 17.8914 18.869 18.7454 17.9081C19.5995 16.9473 19.9987 15.7152 19.9987 14.4999C19.9987 13.2846 19.5995 12.0526 18.7454 11.0917C17.8914 10.1309 16.5612 9.49992 14.9987 9.49992ZM14.9987 11.9999C15.9362 11.9999 16.481 12.3065 16.877 12.7519C17.2729 13.1973 17.4987 13.8402 17.4987 14.4999C17.4987 15.1596 17.2729 15.8026 16.877 16.248C16.481 16.6934 15.9362 16.9999 14.9987 16.9999C14.0612 16.9999 13.5164 16.6934 13.1204 16.248C12.7245 15.8026 12.4987 15.1596 12.4987 14.4999C12.4987 13.8402 12.7245 13.1973 13.1204 12.7519C13.5164 12.3065 14.0612 11.9999 14.9987 11.9999Z" fill="#02AEA4"/>
</svg>
