<svg width="12" height="14" viewBox="0 0 12 14" fill="none" xmlns="http://www.w3.org/2000/svg">
    <path d="M5.9987 0.333496C2.87403 0.333496 0.332031 2.8755 0.332031 6.00016C0.332031 7.3455 0.815031 8.65116 1.69636 9.68283C1.79703 9.79716 4.17203 12.4958 4.96536 13.2522C5.25503 13.5285 5.6267 13.6668 5.9987 13.6668C6.3707 13.6668 6.74236 13.5285 7.03236 13.2522C7.9547 12.3725 10.207 9.79049 10.3057 9.67716C11.1824 8.65116 11.6654 7.3455 11.6654 6.00016C11.6654 2.8755 9.12336 0.333496 5.9987 0.333496ZM5.9987 7.66683C5.07836 7.66683 4.33203 6.9205 4.33203 6.00016C4.33203 5.07983 5.07836 4.3335 5.9987 4.3335C6.91903 4.3335 7.66536 5.07983 7.66536 6.00016C7.66536 6.9205 6.91903 7.66683 5.9987 7.66683Z" fill="white"/>
</svg>
