<svg width="20" height="20" viewBox="0 0 20 20" fill="none" xmlns="http://www.w3.org/2000/svg">
<path fill-rule="evenodd" clip-rule="evenodd" d="M5.39722 8.12793V6.00032C5.39722 3.46025 7.45903 1.39844 9.9991 1.39844C12.5371 1.39844 14.5972 3.45855 14.5972 5.99654V8.12793H15.1206C16.2549 8.12793 17.1745 9.04753 17.1745 10.1819V16.5444C17.1745 17.6788 16.2549 18.5984 15.1206 18.5984H4.8743C3.73991 18.5984 2.82031 17.6788 2.82031 16.5444V10.1819C2.82031 9.04753 3.73991 8.12793 4.8743 8.12793H5.39722ZM6.59722 6.00032C6.59722 4.12299 8.12177 2.59844 9.9991 2.59844C11.8743 2.59844 13.3972 4.1213 13.3972 5.99654V8.12793H6.59722V6.00032ZM8.07031 12.6903C8.07031 11.626 8.9331 10.7632 9.99741 10.7632C11.0617 10.7632 11.9245 11.626 11.9245 12.6903C11.9245 13.5452 11.3678 14.27 10.5972 14.5222V15.3633C10.5972 15.6947 10.3286 15.9633 9.99722 15.9633C9.66585 15.9633 9.39722 15.6947 9.39722 15.3633V14.5221C8.62679 14.2698 8.07031 13.545 8.07031 12.6903Z" fill="#7F7F87"/>
</svg>
