<svg width="11" height="11" viewBox="0 0 11 11" fill="none" xmlns="http://www.w3.org/2000/svg">
    <path opacity="0.35" d="M7.33409 4.77335H9.65657C9.86858 4.77335 10.042 4.57117 9.99386 4.36898C9.5602 2.45305 8.05686 0.951117 6.13912 0.517867C5.93675 0.469728 5.73438 0.643028 5.73438 0.85484V3.17514C5.73438 3.30993 5.82111 3.42546 5.94639 3.48323C6.42823 3.70467 6.8137 4.08978 7.03535 4.57117C7.08353 4.6867 7.19918 4.77335 7.33409 4.77335Z" fill="white"/>
    <path d="M5.73438 7.83552V10.1558C5.73438 10.3676 5.93675 10.5409 6.13912 10.4928C8.05686 10.0595 9.5602 8.5576 9.99386 6.64167C10.042 6.42986 9.86858 6.2373 9.65657 6.2373H7.33409C7.19918 6.2373 7.08353 6.32396 7.02571 6.44912C6.80407 6.93051 6.41859 7.31562 5.93675 7.53706C5.82111 7.5852 5.73438 7.70073 5.73438 7.83552Z" fill="white"/>
    <path d="M2.66788 6.2373H0.345398C0.133388 6.2373 -0.0400756 6.43949 0.00810869 6.64167C0.441767 8.5576 1.94512 10.0595 3.86285 10.4928C4.07486 10.5409 4.2676 10.3676 4.2676 10.1558V7.83552C4.2676 7.70073 4.18086 7.5852 4.05559 7.52743C3.57374 7.30599 3.18827 6.92088 2.96662 6.43949C2.91844 6.32395 2.8028 6.2373 2.66788 6.2373Z" fill="white"/>
    <path d="M0.346716 4.77321H2.6692C2.80411 4.77321 2.91975 4.68656 2.97758 4.5614C3.19922 4.08001 3.5847 3.6949 4.06654 3.47346C4.19182 3.4157 4.27855 3.30016 4.27855 3.16537V0.845074C4.27855 0.633262 4.07618 0.459962 3.8738 0.508101C1.95607 0.941352 0.452722 2.44329 0.0190633 4.35922C-0.0387578 4.57103 0.134706 4.77321 0.346716 4.77321Z" fill="white"/>
</svg>
