<svg width="20" height="21" viewBox="0 0 20 21" fill="none" xmlns="http://www.w3.org/2000/svg">
<path d="M15.6455 0.506682C15.5529 0.494969 15.4569 0.495835 15.3623 0.509611C15.1731 0.537164 14.9877 0.616717 14.8389 0.751799L12.9238 2.49106C12.9232 2.49171 12.9225 2.49236 12.9219 2.49301H11.75C10.7925 2.49301 10 3.28553 10 4.24301V5.75668C10 6.71416 10.7925 7.50668 11.75 7.50668H12.9219C12.9225 7.50733 12.9232 7.50799 12.9238 7.50864L14.8389 9.24789C15.1366 9.51805 15.5815 9.56579 15.9092 9.42074C16.2369 9.2757 16.5 8.91484 16.5 8.51254V1.48715C16.5 1.08485 16.2369 0.723996 15.9092 0.578947C15.8272 0.542685 15.7381 0.518394 15.6455 0.506682ZM18.5449 1.96371C18.4084 1.96483 18.2748 2.00319 18.1584 2.07467C18.0421 2.14614 17.9475 2.24801 17.8848 2.3693C17.8221 2.49058 17.7937 2.62668 17.8026 2.76292C17.8116 2.89917 17.8575 3.03038 17.9355 3.14242C18.2939 3.67338 18.5 4.29613 18.5 4.9725C18.5 5.64888 18.2939 6.2726 17.9355 6.80356C17.8776 6.8851 17.8366 6.9774 17.8149 7.07503C17.7932 7.17266 17.7912 7.27364 17.8091 7.37205C17.827 7.47045 17.8644 7.56428 17.919 7.64802C17.9737 7.73177 18.0446 7.80373 18.1275 7.85967C18.2104 7.91561 18.3037 7.95441 18.4018 7.97378C18.4999 7.99315 18.6009 7.9927 18.6989 7.97246C18.7968 7.95222 18.8897 7.91259 18.9721 7.85591C19.0545 7.79924 19.1248 7.72665 19.1787 7.64242C19.6944 6.87838 20 5.95713 20 4.9725C20 3.98788 19.6944 3.0676 19.1787 2.30356C19.11 2.19836 19.0159 2.11211 18.9052 2.05273C18.7945 1.99335 18.6706 1.96274 18.5449 1.96371ZM15 2.63168V7.36801L13.9395 6.40512C13.6661 6.14989 13.3042 6.00668 12.9287 6.00668H11.75C11.6025 6.00668 11.5 5.9042 11.5 5.75668V4.24301C11.5 4.09549 11.6025 3.99301 11.75 3.99301H12.9287C13.3042 3.99301 13.6661 3.84883 13.9395 3.5936L13.9326 3.60141L15 2.63168ZM2.5 3.99985C1.1215 3.99985 0 5.12135 0 6.49985V14.9998C0 16.3783 1.1215 17.4998 2.5 17.4998H8V15.9998H2.5C1.9485 15.9998 1.5 15.5513 1.5 14.9998V6.49985C1.5 5.94835 1.9485 5.49985 2.5 5.49985H9V3.99985H2.5ZM5.24707 7.99985C5.11788 8.00035 4.98855 8.03343 4.87305 8.10043C4.64205 8.23493 4.5 8.48235 4.5 8.74985V12.7498C4.5 13.0173 4.64205 13.2648 4.87305 13.3993C4.98955 13.4668 5.12 13.4998 5.25 13.4998C5.3785 13.4998 5.50707 13.4672 5.62207 13.4012L9.12207 11.4012C9.35557 11.2672 9.5 11.0188 9.5 10.7498C9.5 10.4808 9.35557 10.2325 9.12207 10.0985L5.62207 8.09848C5.50582 8.03198 5.37626 7.99935 5.24707 7.99985ZM12 8.50668V11.9998H13.5V9.38266L12.5352 8.50668H12ZM10.75 12.9998C9.79252 12.9998 9 13.7924 9 14.7498V19.2498C9 20.2073 9.79252 20.9998 10.75 20.9998H17.75C18.7075 20.9998 19.5 20.2073 19.5 19.2498V14.7498C19.5 13.7924 18.7075 12.9998 17.75 12.9998H10.75ZM10.75 14.4998H17.75C17.8975 14.4998 18 14.6023 18 14.7498V14.8084L14.25 16.8914L10.5 14.8084V14.7498C10.5 14.6023 10.6025 14.4998 10.75 14.4998ZM10.5 16.5243L13.8857 18.4051C13.9972 18.467 14.1225 18.4995 14.25 18.4995C14.3775 18.4995 14.5028 18.467 14.6143 18.4051L18 16.5243V19.2498C18 19.3974 17.8975 19.4998 17.75 19.4998H10.75C10.6025 19.4998 10.5 19.3974 10.5 19.2498V16.5243Z" fill="#1A1A1A"/>
</svg>
