<svg width="16" height="16" viewBox="0 0 16 16" fill="none" xmlns="http://www.w3.org/2000/svg">
<g clip-path="url(#clip0_3981_49497)">
<g clip-path="url(#clip1_3981_49497)">
<path d="M4.46552 1.33725C4.29908 1.32431 4.12783 1.34275 3.95966 1.3965L3.24221 1.62631C2.53055 1.85365 1.98527 2.46286 1.80927 3.22853C1.39094 5.04786 1.89283 7.26273 3.31383 9.87306C4.73383 12.4801 6.28978 14.0475 7.98245 14.5755C8.69945 14.7992 9.47494 14.602 10.0176 14.0573L10.5625 13.5098C11.0712 12.9991 11.1451 12.1681 10.7351 11.5658L9.91344 10.3587C9.56077 9.84074 8.9344 9.62085 8.3594 9.81251L7.1107 10.2292C6.94404 10.2848 6.75709 10.2556 6.62242 10.1426C6.11409 9.71559 5.6828 9.19722 5.3288 8.58855C4.97413 7.97855 4.74529 7.36009 4.64195 6.73309C4.61495 6.56909 4.67754 6.40309 4.7982 6.28842L5.86916 5.27215C6.32316 4.84148 6.46128 4.14891 6.21161 3.55991L5.6387 2.20835C5.4227 1.69885 4.96483 1.37608 4.46552 1.33725ZM13.8288 1.99285C13.6968 1.99597 13.5713 2.0512 13.4798 2.1465L12 3.62631L10.5202 2.1465C10.4736 2.0985 10.4178 2.06035 10.3562 2.03429C10.2946 2.00823 10.2284 1.99481 10.1615 1.9948C10.062 1.99483 9.96474 2.02454 9.88221 2.08014C9.79969 2.13574 9.73562 2.21469 9.69822 2.3069C9.66082 2.39911 9.65178 2.50038 9.67226 2.59776C9.69274 2.69514 9.7418 2.78419 9.81318 2.85353L11.293 4.33335L9.81318 5.81316C9.76519 5.85924 9.72688 5.91442 9.70049 5.97548C9.6741 6.03655 9.66015 6.10226 9.65948 6.16878C9.6588 6.2353 9.67141 6.30129 9.69655 6.36288C9.72169 6.42447 9.75887 6.48042 9.80591 6.52746C9.85295 6.5745 9.9089 6.61168 9.97049 6.63682C10.0321 6.66196 10.0981 6.67457 10.1646 6.67389C10.2311 6.67322 10.2968 6.65927 10.3579 6.63288C10.4189 6.60649 10.4741 6.56818 10.5202 6.52019L12 5.04038L13.4798 6.52019C13.5259 6.56818 13.5811 6.60649 13.6422 6.63288C13.7032 6.65927 13.7689 6.67322 13.8355 6.67389C13.902 6.67457 13.968 6.66196 14.0296 6.63682C14.0911 6.61168 14.1471 6.5745 14.1941 6.52746C14.2412 6.48042 14.2784 6.42447 14.3035 6.36288C14.3286 6.30129 14.3412 6.2353 14.3406 6.16878C14.3399 6.10226 14.326 6.03655 14.2996 5.97548C14.2732 5.91442 14.2349 5.85924 14.1869 5.81316L12.7071 4.33335L14.1869 2.85353C14.2596 2.78374 14.3095 2.69361 14.3301 2.59496C14.3507 2.49631 14.341 2.39373 14.3023 2.30068C14.2636 2.20763 14.1977 2.12845 14.1132 2.07352C14.0287 2.01859 13.9296 1.99047 13.8288 1.99285Z" fill="#E81554"/>
</g>
</g>
<defs>
<clipPath id="clip0_3981_49497">
<rect width="16" height="16" fill="white"/>
</clipPath>
<clipPath id="clip1_3981_49497">
<rect width="16" height="16" fill="white" transform="matrix(-1 0 0 1 16 0)"/>
</clipPath>
</defs>
</svg>
