<svg width="20" height="20" viewBox="0 0 20 20" fill="none" xmlns="http://www.w3.org/2000/svg">
<path d="M10 0C4.48603 0 0 4.48604 0 10C0 15.514 4.48603 20 10 20C15.514 20 20 15.514 20 10C20 4.48604 15.514 0 10 0ZM9.75 3.5C10.1645 3.5 10.5 3.8355 10.5 4.25V4.77148C11.6335 4.87598 12.6043 5.66725 12.9053 6.78125C13.0133 7.18125 12.777 7.59317 12.377 7.70117C11.975 7.80767 11.5646 7.57235 11.4561 7.17285C11.3096 6.62985 10.8135 6.25 10.25 6.25H9.375C8.6165 6.25 8 6.8665 8 7.625C8 8.3835 8.6165 9 9.375 9H10.375C12.098 9 13.5 10.402 13.5 12.125C13.5 13.806 12.165 15.1772 10.5 15.2432V15.75C10.5 16.1645 10.1645 16.5 9.75 16.5C9.3355 16.5 9 16.1645 9 15.75V15.2285C7.856 15.1235 6.88287 14.3228 6.58887 13.1953C6.48437 12.7943 6.724 12.3848 7.125 12.2803C7.5275 12.1763 7.93554 12.4154 8.04004 12.8164C8.18354 13.3664 8.68002 13.75 9.24902 13.75H10.374C11.27 13.75 11.999 13.021 11.999 12.125C11.999 11.229 11.271 10.5 10.375 10.5H9.375C7.79 10.5 6.5 9.21 6.5 7.625C6.5 6.167 7.592 4.96184 9 4.77734V4.25C9 3.8355 9.3355 3.5 9.75 3.5Z" fill="white"/>
</svg>
