<svg width="22" height="12" viewBox="0 0 22 12" fill="none" xmlns="http://www.w3.org/2000/svg">
<path d="M5.5 1.58733e-07C3.84759 1.58733e-07 2.42996 0.692438 1.47168 1.7959C0.513402 2.89936 0 4.3907 0 6C0 7.6093 0.513402 9.10064 1.47168 10.2041C2.42996 11.3076 3.84759 12 5.5 12C7.52885 12 9.04402 10.4634 10.0723 9.07031C11.0615 7.73001 11.6145 6.46021 11.6572 6.36133C11.669 6.34005 11.6798 6.31822 11.6895 6.2959C11.6895 6.2959 12.2255 5.05221 13.1348 3.82031C14.044 2.58842 15.2788 1.5 16.5 1.5C17.7471 1.5 18.7046 1.98263 19.3965 2.7793C20.0883 3.57596 20.5 4.7098 20.5 6C20.5 7.2902 20.0883 8.42404 19.3965 9.2207C18.7046 10.0174 17.7471 10.5 16.5 10.5C14.841 10.5 13.3314 8.62552 12.4199 7.10352C12.2479 7.46352 11.9721 7.99804 11.5996 8.60254C12.659 10.1645 14.3229 11.9468 16.4141 11.9951C16.4426 11.9984 16.4713 12 16.5 12C18.1524 12 19.57 11.3076 20.5283 10.2041C21.4866 9.10064 22 7.6093 22 6C22 4.3907 21.4866 2.89936 20.5283 1.7959C19.57 0.692438 18.1524 1.58733e-07 16.5 1.58733e-07C14.4712 1.58733e-07 12.956 1.53658 11.9277 2.92969C10.9385 4.26999 10.3855 5.53979 10.3428 5.63867C10.331 5.65995 10.3202 5.68178 10.3105 5.7041C10.3105 5.7041 9.77449 6.94779 8.86523 8.17969C7.95598 9.41158 6.72115 10.5 5.5 10.5C4.25291 10.5 3.29536 10.0174 2.60352 9.2207C1.91167 8.42404 1.5 7.2902 1.5 6C1.5 4.7098 1.91167 3.57596 2.60352 2.7793C3.29536 1.98263 4.25291 1.5 5.5 1.5C7.159 1.5 8.66858 3.37448 9.58008 4.89648C9.75208 4.53648 10.0279 4.00196 10.4004 3.39746C9.34102 1.83552 7.67712 0.0532395 5.58594 0.00488297C5.55741 0.00161164 5.52872 -1.85219e-05 5.5 1.58733e-07Z" fill="white"/>
</svg>
