<svg width="22" height="22" viewBox="0 0 22 22" fill="none" xmlns="http://www.w3.org/2000/svg">
    <path d="M1.7372 0.992188C1.58794 0.992224 1.44208 1.03679 1.31829 1.12019C1.1945 1.20358 1.09841 1.32202 1.04231 1.46033C0.986203 1.59865 0.972643 1.75056 1.00336 1.89662C1.03408 2.04269 1.10767 2.17627 1.21474 2.28027L5.43446 6.5H3.74989C2.50989 6.5 1.49989 7.51 1.49989 8.75V13.25C1.49989 14.49 2.50989 15.5 3.74989 15.5H7.05946L11.6698 19.5996C11.9348 19.8346 12.2596 19.9551 12.5946 19.9551C12.7896 19.9551 12.9847 19.9151 13.1747 19.8301C13.6847 19.6001 13.9999 19.1097 13.9999 18.5547V15.0654L19.7147 20.7803C19.7838 20.8523 19.8666 20.9097 19.9582 20.9493C20.0498 20.9889 20.1484 21.0098 20.2482 21.0108C20.3479 21.0118 20.4469 20.9929 20.5393 20.9552C20.6317 20.9175 20.7156 20.8617 20.7862 20.7912C20.8567 20.7206 20.9125 20.6367 20.9502 20.5443C20.9879 20.4519 21.0068 20.3529 21.0058 20.2532C21.0048 20.1534 20.9839 20.0548 20.9443 19.9632C20.9047 19.8716 20.8473 19.7888 20.7753 19.7197L2.27528 1.21973C2.20537 1.14773 2.12173 1.0905 2.0293 1.05142C1.93688 1.01233 1.83755 0.992192 1.7372 0.992188ZM12.5946 2.04492C12.2596 2.04492 11.9298 2.16539 11.6698 2.40039L8.4452 5.26953L9.50477 6.33008L12.4999 3.66992V9.3252L13.9999 10.8252V3.4502C13.9999 2.8902 13.6847 2.39992 13.1747 2.16992C12.9847 2.08492 12.7896 2.04492 12.5946 2.04492ZM18.3202 5.00293C18.2232 5.01074 18.1263 5.03746 18.035 5.08496C17.665 5.27496 17.5247 5.72973 17.7147 6.09473C19.2797 9.08473 19.4252 12.0005 18.1552 14.9805L19.285 16.1104C20.98 12.5554 20.8998 8.95527 19.0448 5.40527C18.9023 5.12777 18.6111 4.97949 18.3202 5.00293ZM16.1015 7.50586C16.0036 7.50867 15.9045 7.53145 15.8095 7.5752C15.4345 7.7502 15.2703 8.19031 15.4403 8.57031C16.0603 9.92531 16.1647 11.245 15.7597 12.585L16.9296 13.7549C17.7296 11.8249 17.6896 9.87531 16.8046 7.94531C16.6771 7.66406 16.3949 7.49742 16.1015 7.50586ZM3.74989 8H6.93446L12.4999 13.5654V18.3301L7.83973 14.1904C7.70473 14.0654 7.52462 14 7.34462 14H3.74989C3.33489 14 2.99989 13.665 2.99989 13.25V8.75C2.99989 8.335 3.33489 8 3.74989 8Z" fill="white"/>
</svg>
