<svg width="22" height="23" viewBox="0 0 22 23" fill="none" xmlns="http://www.w3.org/2000/svg">
    <path d="M11.0001 0C8.52012 0 6.50012 2.02 6.50012 4.5V12C6.50012 12.105 6.50488 12.2096 6.50988 12.3096L8.00012 10.8203V4.5C8.00012 4.39656 8.00549 4.29412 8.01574 4.19336C8.16957 2.68192 9.44855 1.5 11.0001 1.5C12.6551 1.5 14.0001 2.845 14.0001 4.5V4.82031L15.3751 3.44531C14.9001 1.47031 13.1151 0 11.0001 0ZM20.2355 0.993164C20.0407 0.998841 19.8558 1.0801 19.7198 1.21973L5.85754 15.082C5.56189 14.5899 5.33539 14.0525 5.19055 13.4805C5.15584 13.3476 5.1259 13.2132 5.1007 13.0771C5.07821 12.9526 5.05877 12.8273 5.04406 12.7002C5.0376 12.6454 5.03142 12.5904 5.02648 12.5352C5.01096 12.3587 5.00012 12.1807 5.00012 12V10.25C5.00156 10.1496 4.98283 10.05 4.94505 9.95695C4.90727 9.86394 4.8512 9.77946 4.78016 9.70852C4.70913 9.63758 4.62457 9.58161 4.53151 9.54395C4.43845 9.50629 4.33878 9.48769 4.2384 9.48926C4.03966 9.49236 3.85027 9.57423 3.71184 9.71686C3.57342 9.8595 3.49727 10.0513 3.50012 10.25V12C3.50012 12.2437 3.51233 12.4842 3.53527 12.7217C3.6044 13.4447 3.7756 14.1379 4.03527 14.7852L4.04113 14.7793C4.23878 15.2674 4.49029 15.7269 4.78234 16.1572L1.21984 19.7197C1.14786 19.7888 1.0904 19.8716 1.05081 19.9632C1.01122 20.0548 0.990311 20.1534 0.989297 20.2532C0.988282 20.3529 1.00719 20.4519 1.0449 20.5443C1.08262 20.6367 1.13839 20.7206 1.20895 20.7912C1.27951 20.8617 1.36344 20.9175 1.45582 20.9552C1.5482 20.9929 1.64718 21.0118 1.74696 21.0108C1.84674 21.0098 1.94531 20.9889 2.03691 20.9493C2.1285 20.9097 2.21128 20.8523 2.28039 20.7803L5.73352 17.3271C6.92051 18.5034 8.49793 19.2817 10.2501 19.457V21.75C10.2487 21.8494 10.2671 21.9481 10.3041 22.0403C10.3412 22.1325 10.3962 22.2164 10.466 22.2872C10.5358 22.358 10.6189 22.4142 10.7106 22.4526C10.8023 22.4909 10.9007 22.5107 11.0001 22.5107C11.0995 22.5107 11.1979 22.4909 11.2896 22.4526C11.3813 22.4142 11.4645 22.358 11.5342 22.2872C11.604 22.2164 11.659 22.1325 11.6961 22.0403C11.7332 21.9481 11.7515 21.8494 11.7501 21.75V19.4619C15.5343 19.0842 18.5001 15.8818 18.5001 12V10.25C18.5001 9.835 18.1651 9.5 17.7501 9.5C17.3351 9.5 17.0001 9.835 17.0001 10.25V12C17.0001 15.2794 14.3588 17.947 11.0909 17.9961C11.078 17.9945 11.0649 17.9931 11.0519 17.9922C11.0506 17.9919 11.0493 17.9915 11.048 17.9912C11.0434 17.9912 11.0389 17.9912 11.0343 17.9912C11.019 17.9901 11.0037 17.9894 10.9884 17.9893C10.9832 17.9895 10.978 17.9899 10.9728 17.9902C10.9676 17.9905 10.9624 17.9908 10.9571 17.9912C10.3695 17.9869 9.80406 17.8955 9.26867 17.7354C9.22578 17.7224 9.18225 17.7112 9.13977 17.6973C9.00134 17.6525 8.8663 17.6002 8.73254 17.5459C8.66493 17.5182 8.59771 17.4901 8.53137 17.46C8.42229 17.4109 8.31457 17.3589 8.2091 17.3037C8.11393 17.2534 8.02087 17.1997 7.92883 17.1445C7.85038 17.0979 7.77149 17.052 7.69543 17.002C7.54986 16.9054 7.40881 16.8029 7.27258 16.6943C7.25252 16.6785 7.2309 16.6646 7.21105 16.6484C7.06503 16.529 6.92708 16.4001 6.79309 16.2676L7.85656 15.2041C8.669 16.0014 9.77502 16.5 11.0001 16.5C13.4801 16.5 15.5001 14.48 15.5001 12V7.56055L20.7804 2.28027C20.8886 2.1749 20.9625 2.03931 20.9923 1.89126C21.0222 1.7432 21.0067 1.58958 20.9478 1.4505C20.8889 1.31141 20.7894 1.19335 20.6623 1.11175C20.5352 1.03015 20.3864 0.988816 20.2355 0.993164ZM14.0001 9.06055V12C14.0001 13.655 12.6551 15 11.0001 15C10.1866 15 9.44976 14.6767 8.91027 14.1504L14.0001 9.06055Z" fill="white"/>
</svg>
