<svg width="20" height="20" viewBox="0 0 20 20" fill="none" xmlns="http://www.w3.org/2000/svg">
    <path d="M15.9994 0.503906C15.102 0.503906 14.2048 0.844092 13.5247 1.52441L2.45736 12.5908C2.24738 12.8008 2.09359 13.0619 2.01205 13.3486L0.528653 18.543C0.492069 18.6715 0.490489 18.8075 0.524076 18.9368C0.557663 19.0662 0.625197 19.1842 0.719692 19.2787C0.814187 19.3732 0.932213 19.4407 1.06156 19.4743C1.19091 19.5079 1.32688 19.5063 1.45541 19.4697L6.65072 17.9863C6.65105 17.986 6.65137 17.9857 6.6517 17.9854C6.93646 17.9035 7.19696 17.7516 7.40756 17.541L17.1937 7.75391L17.8509 8.41211C18.0435 8.6045 18.044 8.89387 17.8509 9.08691L14.2191 12.7188C14.1471 12.7879 14.0896 12.8706 14.0501 12.9622C14.0105 13.0538 13.9895 13.1524 13.9885 13.2522C13.9875 13.352 14.0064 13.4509 14.0441 13.5433C14.0819 13.6357 14.1376 13.7196 14.2082 13.7902C14.2787 13.8607 14.3627 13.9165 14.4551 13.9542C14.5474 13.992 14.6464 14.0109 14.7462 14.0098C14.846 14.0088 14.9445 13.9879 15.0361 13.9483C15.1277 13.9087 15.2105 13.8513 15.2796 13.7793L18.9115 10.1475C19.6772 9.3817 19.6773 8.11723 18.9115 7.35156V7.35059L18.2542 6.69336L18.474 6.47363C19.8345 5.11307 19.8345 2.88498 18.474 1.52441C17.794 0.844092 16.8967 0.503906 15.9994 0.503906ZM15.9994 1.99512C16.5098 1.99512 17.0194 2.19178 17.4124 2.58496C17.4128 2.58496 17.4131 2.58496 17.4134 2.58496C18.2009 3.3724 18.2009 4.62565 17.4134 5.41309L6.34604 16.4805C6.31672 16.5096 6.27959 16.5319 6.23764 16.5439L2.34115 17.6572L3.45443 13.7598C3.45443 13.7594 3.45443 13.7591 3.45443 13.7588C3.4659 13.7185 3.4869 13.6824 3.51791 13.6514L14.5853 2.58496C14.9783 2.19178 15.489 1.99512 15.9994 1.99512Z" fill="white"/>
</svg>
