<svg width="20" height="20" viewBox="0 0 20 20" fill="none" xmlns="http://www.w3.org/2000/svg">
<path d="M10 0C4.48615 0 0 4.48615 0 10C0 11.6377 0.431354 13.1684 1.13086 14.5332L0.046875 18.4141C-0.205601 19.3158 0.685963 20.2073 1.58789 19.9551L5.47168 18.8711C6.83537 19.5691 8.36388 20 10 20C15.5139 20 20 15.5139 20 10C20 4.48615 15.5139 0 10 0ZM10 1.5C14.7031 1.5 18.5 5.29685 18.5 10C18.5 14.7031 14.7031 18.5 10 18.5C8.49921 18.5 7.0953 18.1097 5.87109 17.4277C5.69853 17.3316 5.495 17.3073 5.30469 17.3604L1.61133 18.3906L2.64258 14.6992C2.69585 14.5086 2.67163 14.3047 2.5752 14.1318C1.89183 12.9067 1.5 11.5023 1.5 10C1.5 5.29685 5.29685 1.5 10 1.5ZM6.5 9.00098C5.9475 9.00098 5.5 9.44848 5.5 10.001C5.5 10.5535 5.9475 11.001 6.5 11.001C7.0525 11.001 7.5 10.5535 7.5 10.001C7.5 9.44848 7.0525 9.00098 6.5 9.00098ZM10 9.00098C9.4475 9.00098 9 9.44848 9 10.001C9 10.5535 9.4475 11.001 10 11.001C10.5525 11.001 11 10.5535 11 10.001C11 9.44848 10.5525 9.00098 10 9.00098ZM13.5 9.00098C12.9475 9.00098 12.5 9.44848 12.5 10.001C12.5 10.5535 12.9475 11.001 13.5 11.001C14.0525 11.001 14.5 10.5535 14.5 10.001C14.5 9.44848 14.0525 9.00098 13.5 9.00098Z" fill="#0B132B"/>
</svg>
