<svg width="19" height="20" viewBox="0 0 19 20" fill="none" xmlns="http://www.w3.org/2000/svg">
<path d="M5 0.5C3.07589 0.5 1.5 2.07589 1.5 4C1.5 5.92411 3.07589 7.5 5 7.5C6.92411 7.5 8.5 5.92411 8.5 4C8.5 2.07589 6.92411 0.5 5 0.5ZM13 0.5C11.076 0.5 9.5 2.076 9.5 4C9.5 5.924 11.076 7.5 13 7.5C14.3784 7.5 15.6321 6.70468 16.6113 5.97656C17.5906 5.24845 18.29 4.52051 18.29 4.52051C18.4248 4.38072 18.5 4.19414 18.5 4C18.5 3.80586 18.4248 3.61928 18.29 3.47949C18.29 3.47949 17.5906 2.75155 16.6113 2.02344C15.6321 1.29532 14.3784 0.5 13 0.5ZM5 2C6.11345 2 7 2.88655 7 4C7 5.11345 6.11345 6 5 6C3.88655 6 3 5.11345 3 4C3 2.88655 3.88655 2 5 2ZM13 2C13.7246 2 14.8458 2.57968 15.7158 3.22656C16.236 3.61334 16.346 3.75164 16.6094 4C16.346 4.24836 16.236 4.38666 15.7158 4.77344C14.8458 5.42032 13.7246 6 13 6C11.887 6 11 5.113 11 4C11 2.887 11.887 2 13 2ZM1.75 8.5C0.785 8.5 0 9.285 0 10.25V15C0 17.757 2.243 20 5 20C6.271 20 7.4295 19.5199 8.3125 18.7354C7.9945 18.3369 7.7261 17.8973 7.5166 17.4258C6.8796 18.0868 5.988 18.5 5 18.5C3.07 18.5 1.5 16.93 1.5 15V10.25C1.5 10.112 1.612 10 1.75 10H7.0127C7.0642 9.4335 7.28638 8.9155 7.62988 8.5H1.75ZM9.75 8.5C8.79252 8.5 8 9.29252 8 10.25V15C8 17.7524 10.2476 20 13 20C15.7524 20 18 17.7524 18 15V10.25C18 9.29252 17.2075 8.5 16.25 8.5H9.75ZM9.75 10H16.25C16.3975 10 16.5 10.1025 16.5 10.25V15C16.5 16.9416 14.9416 18.5 13 18.5C11.0584 18.5 9.5 16.9416 9.5 15V10.25C9.5 10.1025 9.60248 10 9.75 10Z" fill="#0B132B"/>
</svg>
