<svg width="23" height="22" viewBox="0 0 23 22" fill="none" xmlns="http://www.w3.org/2000/svg">
    <path d="M21.2353 0.99317C21.0406 0.998847 20.8556 1.0801 20.7197 1.21973L2.21972 19.7197C2.14775 19.7888 2.09028 19.8716 2.05069 19.9632C2.01111 20.0548 1.99019 20.1534 1.98918 20.2532C1.98816 20.3529 2.00707 20.4519 2.04478 20.5443C2.0825 20.6367 2.13827 20.7206 2.20883 20.7912C2.27939 20.8617 2.36332 20.9175 2.4557 20.9552C2.54808 20.9929 2.64706 21.0118 2.74684 21.0108C2.84662 21.0098 2.94519 20.9889 3.03679 20.9493C3.12839 20.9097 3.21116 20.8523 3.28027 20.7803L11.0068 13.0537C12.5538 12.7699 14.21 13.2198 15.4053 14.415C15.5503 14.56 15.7446 14.6348 15.9346 14.6348C16.1246 14.6348 16.3198 14.56 16.4648 14.415C16.7598 14.125 16.7598 13.6505 16.4648 13.3555C15.3716 12.2622 13.9816 11.6526 12.5508 11.5098L15.0215 9.03907C16.3364 9.5005 17.5454 10.2505 18.5596 11.2647C18.7046 11.4097 18.8948 11.4854 19.0898 11.4854C19.2798 11.4854 19.4701 11.4097 19.6201 11.2647C19.9101 10.9697 19.9101 10.4952 19.6201 10.2002C18.615 9.19511 17.4478 8.4165 16.1807 7.87989L18.3945 5.66602C19.5873 6.29472 20.7069 7.10725 21.71 8.11036C21.855 8.25536 22.0502 8.33008 22.2402 8.33008C22.4352 8.33008 22.6245 8.25536 22.7695 8.11036C23.0645 7.81536 23.0645 7.33981 22.7695 7.04981C21.7727 6.04881 20.6662 5.22767 19.4941 4.56641L21.7803 2.28028C21.8885 2.1749 21.9623 2.03931 21.9922 1.89126C22.0221 1.74321 22.0065 1.58959 21.9477 1.4505C21.8888 1.31142 21.7893 1.19335 21.6622 1.11175C21.5351 1.03015 21.3863 0.988822 21.2353 0.99317ZM11.4502 2.56055C7.66842 2.67126 3.92066 4.16919 1.04004 7.04981C0.745037 7.33981 0.745037 7.81536 1.04004 8.11036C1.33504 8.40536 1.80961 8.40536 2.09961 8.11036C5.67961 4.53036 10.75 3.32036 15.335 4.48536L16.5498 3.26954C14.8951 2.7461 13.1692 2.51023 11.4502 2.56055ZM11.9053 7.00977C8.99027 7.00977 6.25531 8.1402 4.19531 10.2002C3.90031 10.4952 3.90031 10.9697 4.19531 11.2647C4.48531 11.5547 4.95988 11.5547 5.25488 11.2647C6.88488 9.62965 9.01004 8.67528 11.29 8.53028L12.7754 7.04493C12.4854 7.01993 12.1953 7.00977 11.9053 7.00977ZM12 16C11.4696 16 10.9609 16.2107 10.5858 16.5858C10.2107 16.9609 10 17.4696 10 18C10 18.5304 10.2107 19.0391 10.5858 19.4142C10.9609 19.7893 11.4696 20 12 20C12.5304 20 13.0391 19.7893 13.4142 19.4142C13.7893 19.0391 14 18.5304 14 18C14 17.4696 13.7893 16.9609 13.4142 16.5858C13.0391 16.2107 12.5304 16 12 16Z" fill="white"/>
</svg>
