<svg width="16" height="16" viewBox="0 0 16 16" fill="none" xmlns="http://www.w3.org/2000/svg">
<g id="Outgoing Call">
<path id="Vector" d="M11.8285 1.32812C11.729 1.32815 11.6318 1.35786 11.5492 1.41346C11.4667 1.46906 11.4027 1.54801 11.3653 1.64022C11.3279 1.73243 11.3188 1.83371 11.3393 1.93108C11.3598 2.02846 11.4088 2.11751 11.4802 2.18685L12.6267 3.33333H8.83372C8.76747 3.3324 8.70169 3.34464 8.6402 3.36934C8.57872 3.39405 8.52276 3.43073 8.47557 3.47725C8.42839 3.52378 8.39092 3.57921 8.36535 3.64034C8.33977 3.70147 8.3266 3.76707 8.3266 3.83333C8.3266 3.8996 8.33977 3.9652 8.36535 4.02633C8.39092 4.08745 8.42839 4.14289 8.47557 4.18941C8.52276 4.23594 8.57872 4.27262 8.6402 4.29732C8.70169 4.32203 8.76747 4.33427 8.83372 4.33333H12.6267L11.4802 5.47982C11.4322 5.52589 11.3939 5.58107 11.3675 5.64214C11.3411 5.7032 11.3272 5.76892 11.3265 5.83544C11.3258 5.90196 11.3384 5.96794 11.3636 6.02953C11.3887 6.09112 11.4259 6.14707 11.4729 6.19411C11.52 6.24115 11.5759 6.27833 11.6375 6.30347C11.6991 6.32862 11.7651 6.34122 11.8316 6.34055C11.8981 6.33987 11.9639 6.32593 12.0249 6.29954C12.086 6.27315 12.1412 6.23483 12.1872 6.18685L14.1872 4.18685C14.281 4.09308 14.3336 3.96592 14.3336 3.83333C14.3336 3.70075 14.281 3.57359 14.1872 3.47982L12.1872 1.47982C12.1406 1.43182 12.0849 1.39367 12.0233 1.36761C11.9616 1.34155 11.8954 1.32813 11.8285 1.32812ZM4.46589 1.33724C4.29945 1.3243 4.12819 1.34273 3.96003 1.39648L3.24258 1.6263C2.53091 1.85364 1.98564 2.46285 1.80964 3.22852C1.3913 5.04785 1.89319 7.26271 3.31419 9.87305C4.73419 12.48 6.29015 14.0475 7.98281 14.5755C8.69981 14.7992 9.4753 14.602 10.018 14.0573L10.5629 13.5098C11.0716 12.9991 11.1454 12.1681 10.7354 11.5658L9.9138 10.3587C9.56114 9.84072 8.93477 9.62083 8.35977 9.8125L7.11107 10.2292C6.9444 10.2848 6.75745 10.2556 6.62279 10.1426C6.11445 9.71558 5.68317 9.19721 5.32917 8.58854C4.9745 7.97854 4.74565 7.36007 4.64232 6.73307C4.61532 6.56907 4.6779 6.40308 4.79857 6.28841L5.86953 5.27214C6.32353 4.84147 6.46165 4.1489 6.21198 3.5599L5.63906 2.20833C5.42306 1.69883 4.9652 1.37607 4.46589 1.33724Z" fill="#616982"/>
</g>
</svg>
