<svg width="16" height="16" viewBox="0 0 16 16" fill="none" xmlns="http://www.w3.org/2000/svg">
<g clip-path="url(#clip0_3981_49491)">
<path d="M11.8281 1.32812C11.7286 1.32815 11.6314 1.35786 11.5489 1.41346C11.4664 1.46906 11.4023 1.54801 11.3649 1.64022C11.3275 1.73243 11.3184 1.83371 11.3389 1.93108C11.3594 2.02846 11.4085 2.11751 11.4798 2.18685L12.6263 3.33333H8.83336C8.7671 3.3324 8.70132 3.34464 8.63984 3.36934C8.57835 3.39405 8.52239 3.43073 8.47521 3.47725C8.42802 3.52378 8.39055 3.57921 8.36498 3.64034C8.33941 3.70147 8.32624 3.76707 8.32624 3.83333C8.32624 3.8996 8.33941 3.9652 8.36498 4.02633C8.39055 4.08745 8.42802 4.14289 8.47521 4.18941C8.52239 4.23594 8.57835 4.27262 8.63984 4.29732C8.70132 4.32203 8.7671 4.33427 8.83336 4.33333H12.6263L11.4798 5.47982C11.4319 5.52589 11.3935 5.58107 11.3672 5.64214C11.3408 5.7032 11.3268 5.76892 11.3261 5.83544C11.3255 5.90196 11.3381 5.96794 11.3632 6.02953C11.3884 6.09112 11.4255 6.14707 11.4726 6.19411C11.5196 6.24115 11.5756 6.27833 11.6372 6.30347C11.6987 6.32862 11.7647 6.34122 11.8313 6.34055C11.8978 6.33987 11.9635 6.32593 12.0246 6.29954C12.0856 6.27315 12.1408 6.23483 12.1869 6.18685L14.1869 4.18685C14.2806 4.09308 14.3333 3.96592 14.3333 3.83333C14.3333 3.70075 14.2806 3.57359 14.1869 3.47982L12.1869 1.47982C12.1403 1.43182 12.0845 1.39367 12.0229 1.36761C11.9613 1.34155 11.895 1.32813 11.8281 1.32812ZM4.46552 1.33724C4.29908 1.3243 4.12783 1.34273 3.95966 1.39648L3.24221 1.6263C2.53055 1.85364 1.98527 2.46285 1.80927 3.22852C1.39094 5.04785 1.89283 7.26271 3.31383 9.87305C4.73383 12.48 6.28978 14.0475 7.98245 14.5755C8.69945 14.7992 9.47494 14.602 10.0176 14.0573L10.5625 13.5098C11.0712 12.9991 11.1451 12.1681 10.7351 11.5658L9.91344 10.3587C9.56077 9.84072 8.9344 9.62083 8.3594 9.8125L7.1107 10.2292C6.94404 10.2848 6.75709 10.2556 6.62242 10.1426C6.11409 9.71558 5.6828 9.19721 5.3288 8.58854C4.97413 7.97854 4.74529 7.36007 4.64195 6.73307C4.61495 6.56907 4.67754 6.40308 4.7982 6.28841L5.86916 5.27214C6.32316 4.84147 6.46128 4.1489 6.21161 3.5599L5.6387 2.20833C5.4227 1.69883 4.96483 1.37607 4.46552 1.33724Z" fill="#0B132B"/>
</g>
<defs>
<clipPath id="clip0_3981_49491">
<rect width="16" height="16" fill="white"/>
</clipPath>
</defs>
</svg>
