<svg width="34" height="34" viewBox="0 0 34 34" fill="none" xmlns="http://www.w3.org/2000/svg">
    <path d="M16.9323 0.333252C7.72729 0.333252 0.265625 7.79492 0.265625 16.9999C0.265625 26.2049 7.72729 33.6666 16.9323 33.6666C26.1373 33.6666 33.599 26.2049 33.599 16.9999C33.599 7.79492 26.1373 0.333252 16.9323 0.333252ZM12.8324 10.3333C13.7532 10.3333 14.499 11.0791 14.499 11.9999V21.9999C14.499 22.9208 13.7532 23.6666 12.8324 23.6666C11.9115 23.6666 11.1657 22.9208 11.1657 21.9999V11.9999C11.1657 11.0791 11.9115 10.3333 12.8324 10.3333ZM21.1657 10.3333C22.0865 10.3333 22.8324 11.0791 22.8324 11.9999V21.9999C22.8324 22.9208 22.0865 23.6666 21.1657 23.6666C20.2449 23.6666 19.499 22.9208 19.499 21.9999V11.9999C19.499 11.0791 20.2449 10.3333 21.1657 10.3333Z" fill="#E81539"/>
</svg>
