<svg width="34" height="34" viewBox="0 0 34 34" fill="none" xmlns="http://www.w3.org/2000/svg">
    <path d="M16.9987 0.333252C7.80894 0.333252 0.332031 7.81016 0.332031 16.9999C0.332031 26.1897 7.80894 33.6666 16.9987 33.6666C26.1885 33.6666 33.6654 26.1897 33.6654 16.9999C33.6654 7.81016 26.1885 0.333252 16.9987 0.333252ZM16.9987 2.83325C24.8373 2.83325 31.1654 9.16134 31.1654 16.9999C31.1654 24.8385 24.8373 31.1666 16.9987 31.1666C9.16012 31.1666 2.83203 24.8385 2.83203 16.9999C2.83203 9.16134 9.16012 2.83325 16.9987 2.83325ZM12.832 10.3333C11.9112 10.3333 11.1654 11.0791 11.1654 11.9999V21.9999C11.1654 22.9208 11.9112 23.6666 12.832 23.6666C13.7529 23.6666 14.4987 22.9208 14.4987 21.9999V11.9999C14.4987 11.0791 13.7529 10.3333 12.832 10.3333ZM21.1654 10.3333C20.2445 10.3333 19.4987 11.0791 19.4987 11.9999V21.9999C19.4987 22.9208 20.2445 23.6666 21.1654 23.6666C22.0862 23.6666 22.832 22.9208 22.832 21.9999V11.9999C22.832 11.0791 22.0862 10.3333 21.1654 10.3333Z" fill="#E81539"/>
</svg>
