<svg width="24" height="8" viewBox="0 0 24 8" fill="none" xmlns="http://www.w3.org/2000/svg">
    <path d="M2.71945 5.90886C3.7737 5.90886 4.62835 5.05422 4.62835 3.99996C4.62835 2.94571 3.7737 2.09106 2.71945 2.09106C1.66519 2.09106 0.810547 2.94571 0.810547 3.99996C0.810547 5.05422 1.66519 5.90886 2.71945 5.90886Z" fill="white"/>
    <path d="M6.54688 0.861816H9.26608C9.77318 0.861816 10.2032 0.943216 10.5561 1.10542C10.9115 1.26762 11.18 1.50432 11.3664 1.81442C11.5528 2.12452 11.6448 2.50172 11.6448 2.94532V2.95402C11.6448 3.35732 11.5479 3.71962 11.354 4.04142C11.1601 4.36332 10.8991 4.59692 10.5735 4.74172L11.8262 7.13782H10.0317L8.95547 4.97662C8.94797 4.97662 8.93807 4.97662 8.92317 4.97662C8.91077 4.97662 8.89828 4.97662 8.88338 4.97662H8.14328V7.13782H6.54688V0.861816ZM9.08717 3.81962C9.37057 3.81962 9.59668 3.74072 9.76328 3.58292C9.92978 3.42442 10.0143 3.21382 10.0143 2.94972V2.94102C10.0143 2.67692 9.92727 2.46562 9.75577 2.30592C9.58677 2.14622 9.36058 2.06672 9.07718 2.06672H8.14328V3.81962H9.08717Z" fill="white"/>
    <path d="M12.3564 0.861816H16.6576V2.14502H13.9521V3.38472H16.4973V4.58522H13.9521V5.85532H16.6576V7.13782H12.3564V0.861816Z" fill="white"/>
    <path d="M18.7239 6.86448C18.2678 6.60598 17.9149 6.23438 17.6675 5.74848C17.4189 5.26318 17.2959 4.67968 17.2959 3.99798V3.99368C17.2959 3.31198 17.4202 2.72918 17.6687 2.24508C17.9185 1.76098 18.2714 1.39068 18.7288 1.13338C19.1849 0.877379 19.7255 0.748779 20.3481 0.748779C20.8974 0.748779 21.3808 0.856279 21.7997 1.07068C22.2185 1.28508 22.5491 1.57838 22.7914 1.94928C23.0337 2.32028 23.163 2.74088 23.1804 3.21068L23.1841 3.24978H21.6455L21.6356 3.18888C21.6008 2.96828 21.53 2.77508 21.4206 2.60848C21.3125 2.44128 21.1683 2.31018 20.9881 2.21448C20.8079 2.11878 20.5954 2.07098 20.3481 2.07098C20.0585 2.07098 19.8075 2.14808 19.5937 2.30148C19.3812 2.45498 19.2159 2.67498 19.1003 2.96018C18.9847 3.24598 18.9263 3.58898 18.9263 3.98918V3.99348C18.9263 4.39678 18.9847 4.74288 19.1003 5.03308C19.2159 5.32328 19.3812 5.54448 19.5962 5.69858C19.8112 5.85148 20.0635 5.92848 20.353 5.92848C20.5854 5.92848 20.7905 5.88248 20.9707 5.79178C21.1509 5.69978 21.2988 5.56928 21.4144 5.40028C21.53 5.23068 21.607 5.02868 21.6456 4.79378L21.6531 4.75028H23.1892V4.79808C23.1693 5.26478 23.0363 5.68228 22.7915 6.05268C22.5467 6.42178 22.2136 6.71508 21.7948 6.92888C21.376 7.14388 20.8938 7.25078 20.3482 7.25078C19.7219 7.25098 19.1813 7.12178 18.7239 6.86448Z" fill="white"/>
</svg>
