<svg width="16" height="23" viewBox="0 0 16 23" fill="none" xmlns="http://www.w3.org/2000/svg">
    <path d="M8.00008 0C5.52372 0 3.50008 2.02364 3.50008 4.5V12C3.50008 14.4764 5.52372 16.5 8.00008 16.5C10.4764 16.5 12.5001 14.4764 12.5001 12V4.5C12.5001 2.02364 10.4764 0 8.00008 0ZM8.00008 1.5C9.66572 1.5 11.0001 2.83436 11.0001 4.5V12C11.0001 13.6656 9.66572 15 8.00008 15C6.33444 15 5.00008 13.6656 5.00008 12V4.5C5.00008 2.83436 6.33444 1.5 8.00008 1.5ZM1.23836 9.48926C1.03962 9.49236 0.850233 9.57423 0.711805 9.71686C0.573378 9.8595 0.497226 10.0513 0.500077 10.25V12C0.500077 15.8803 3.4671 19.0841 7.25008 19.4619V21.75C7.24867 21.8494 7.26703 21.9481 7.30409 22.0403C7.34115 22.1325 7.39617 22.2164 7.46596 22.2872C7.53574 22.358 7.61889 22.4142 7.71059 22.4526C7.80228 22.4909 7.90068 22.5107 8.00008 22.5107C8.09947 22.5107 8.19787 22.4909 8.28957 22.4526C8.38126 22.4142 8.46441 22.358 8.53419 22.2872C8.60398 22.2164 8.659 22.1325 8.69606 22.0403C8.73312 21.9481 8.75148 21.8494 8.75008 21.75V19.4619C12.5331 19.0841 15.5001 15.8803 15.5001 12V10.25C15.5015 10.1506 15.4831 10.0519 15.4461 9.95972C15.409 9.86749 15.354 9.78355 15.2842 9.71277C15.2144 9.642 15.1313 9.58579 15.0396 9.54743C14.9479 9.50907 14.8495 9.48932 14.7501 9.48932C14.6507 9.48932 14.5523 9.50907 14.4606 9.54743C14.3689 9.58579 14.2857 9.642 14.216 9.71277C14.1462 9.78355 14.0912 9.86749 14.0541 9.95972C14.017 10.0519 13.9987 10.1506 14.0001 10.25V12C14.0001 15.2927 11.3699 17.9474 8.08894 17.9951C8.05558 17.9909 8.02198 17.989 7.98836 17.9893C7.96093 17.9897 7.93354 17.9917 7.90633 17.9951C4.62764 17.9448 2.00008 15.291 2.00008 12V10.25C2.00152 10.1496 1.98279 10.05 1.94501 9.95695C1.90723 9.86394 1.85116 9.77946 1.78012 9.70852C1.70909 9.63758 1.62453 9.58161 1.53147 9.54395C1.43841 9.50629 1.33874 9.48769 1.23836 9.48926Z" fill="#0B132B"/>
</svg>
