<svg width="29" height="13" viewBox="0 0 29 13" fill="none" xmlns="http://www.w3.org/2000/svg">
    <path d="M0.294345 12V1.09091H4.59832C5.42219 1.09091 6.12531 1.23828 6.7077 1.53303C7.29363 1.82422 7.7393 2.23793 8.0447 2.77415C8.35365 3.30682 8.50812 3.93359 8.50812 4.65447C8.50812 5.37891 8.35187 6.00213 8.03937 6.52415C7.72687 7.04261 7.2741 7.44034 6.68106 7.71733C6.09158 7.99432 5.3778 8.13281 4.53973 8.13281H1.65798V6.27912H4.16686C4.6072 6.27912 4.97297 6.21875 5.26416 6.09801C5.55535 5.97727 5.77197 5.79616 5.91402 5.55469C6.05961 5.31321 6.13241 5.01314 6.13241 4.65447C6.13241 4.29226 6.05961 3.98686 5.91402 3.73828C5.77197 3.4897 5.55358 3.30149 5.25883 3.17365C4.96764 3.04226 4.6001 2.97656 4.15621 2.97656H2.60081V12H0.294345ZM6.18568 7.03551L8.89697 12H6.35081L3.69811 7.03551H6.18568ZM10.1381 12V1.09091H17.4889V2.99254H12.4446V5.59197H17.1108V7.49361H12.4446V10.0984H17.5103V12H10.1381ZM28.948 4.91016H26.6149C26.5723 4.60831 26.4853 4.3402 26.3539 4.10582C26.2225 3.8679 26.0538 3.66548 25.8479 3.49858C25.6419 3.33168 25.404 3.20383 25.1341 3.11506C24.8678 3.02628 24.5783 2.98189 24.2658 2.98189C23.7012 2.98189 23.2094 3.12216 22.7903 3.4027C22.3713 3.67969 22.0464 4.08452 21.8156 4.61719C21.5847 5.14631 21.4693 5.78906 21.4693 6.54545C21.4693 7.32315 21.5847 7.97656 21.8156 8.50568C22.0499 9.0348 22.3766 9.4343 22.7957 9.70419C23.2147 9.97408 23.6994 10.109 24.2499 10.109C24.5588 10.109 24.8447 10.0682 25.1075 9.98651C25.3738 9.90483 25.61 9.78587 25.8159 9.62962C26.0219 9.46982 26.1923 9.27628 26.3273 9.04901C26.4658 8.82173 26.5617 8.5625 26.6149 8.27131L28.948 8.28196C28.8877 8.78267 28.7367 9.26562 28.4953 9.73082C28.2573 10.1925 27.9359 10.6062 27.5311 10.9719C27.1298 11.3342 26.6504 11.6218 26.0929 11.8349C25.5389 12.0444 24.9122 12.1491 24.2126 12.1491C23.2396 12.1491 22.3695 11.929 21.6025 11.4886C20.839 11.0483 20.2353 10.4109 19.7914 9.57635C19.3511 8.74183 19.1309 7.73153 19.1309 6.54545C19.1309 5.35582 19.3546 4.34375 19.8021 3.50923C20.2495 2.67472 20.8568 2.03906 21.6238 1.60227C22.3908 1.16193 23.2538 0.941761 24.2126 0.941761C24.8447 0.941761 25.4306 1.03054 25.9704 1.2081C26.5137 1.38565 26.9949 1.64489 27.4139 1.98579C27.833 2.32315 28.1739 2.73686 28.4367 3.22692C28.703 3.71697 28.8734 4.27805 28.948 4.91016Z" fill="white"/>
</svg>
