<svg width="14" height="12" viewBox="0 0 14 12" fill="none" xmlns="http://www.w3.org/2000/svg">
    <path d="M5.48113 10.5202C5.62447 10.6636 5.8398 10.7062 6.02613 10.6286C6.21313 10.5509 6.3348 10.3686 6.3348 10.1666V7.59422C8.0028 7.51788 11.6451 7.76622 12.3445 11.2645C12.3918 11.5002 12.5985 11.6665 12.8345 11.6665C12.8508 11.6665 12.8675 11.6659 12.8838 11.6642C13.1398 11.6389 13.3348 11.4235 13.3348 11.1665C13.3348 4.88888 8.21247 3.64355 6.3348 3.39822V0.833219C6.3348 0.630886 6.21313 0.448552 6.02613 0.371219C5.8398 0.293553 5.62447 0.336553 5.48113 0.479553L0.814469 5.14622C0.619135 5.34122 0.619135 5.65822 0.814469 5.85322L5.48113 10.5202Z" fill="#C7CBDB"/>
</svg>
