<svg width="10" height="10" viewBox="0 0 10 10" fill="none" xmlns="http://www.w3.org/2000/svg">
    <path d="M0.58825 9.24816C0.6005 9.24941 0.613 9.24991 0.62525 9.24991C0.80225 9.24991 0.95725 9.12516 0.99275 8.94841C1.51725 6.32441 4.252 6.13766 5.5 6.19566V8.12491C5.5 8.27641 5.59125 8.41316 5.7315 8.47141C5.8715 8.52916 6.03275 8.49741 6.14025 8.39016L9.64025 4.89016C9.78675 4.74391 9.78675 4.50616 9.64025 4.35991L6.14025 0.859909C6.033 0.752659 5.87175 0.720409 5.7315 0.778659C5.59125 0.836409 5.5 0.973159 5.5 1.12491V3.04866C4.09175 3.23266 0.25 4.16666 0.25 8.87491C0.25 9.06766 0.39625 9.22916 0.58825 9.24816Z" fill="#C7CBDB"/>
</svg>
