<svg width="18" height="19" viewBox="0 0 18 19" fill="none" xmlns="http://www.w3.org/2000/svg">
<path d="M8.98836 0.989349C8.78962 0.992454 8.60023 1.07432 8.46181 1.21696C8.32338 1.35959 8.24723 1.55135 8.25008 1.75009V12.4395L6.53035 10.7198C6.46044 10.6478 6.3768 10.5906 6.28437 10.5515C6.19195 10.5124 6.09262 10.4923 5.99226 10.4923C5.843 10.4923 5.69715 10.5369 5.57336 10.6203C5.44957 10.7037 5.35348 10.8221 5.29737 10.9604C5.24127 11.0987 5.22771 11.2507 5.25843 11.3967C5.28914 11.5428 5.36274 11.6764 5.4698 11.7804L8.4698 14.7804C8.61046 14.921 8.8012 14.9999 9.00008 14.9999C9.19896 14.9999 9.38969 14.921 9.53035 14.7804L12.5304 11.7804C12.6023 11.7113 12.6598 11.6285 12.6994 11.5369C12.739 11.4453 12.7599 11.3467 12.7609 11.2469C12.7619 11.1472 12.743 11.0482 12.7053 10.9558C12.6676 10.8634 12.6118 10.7795 12.5412 10.7089C12.4707 10.6384 12.3868 10.5826 12.2944 10.5449C12.202 10.5072 12.103 10.4883 12.0032 10.4893C11.9035 10.4903 11.8049 10.5112 11.7133 10.5508C11.6217 10.5904 11.5389 10.6478 11.4698 10.7198L9.75008 12.4395V1.75009C9.75152 1.64971 9.73279 1.55006 9.69501 1.45705C9.65723 1.36403 9.60116 1.27955 9.53012 1.20861C9.45909 1.13767 9.37453 1.0817 9.28147 1.04404C9.18841 1.00638 9.08874 0.987781 8.98836 0.989349ZM0.738358 13.4893C0.539616 13.4925 0.350233 13.5743 0.211805 13.717C0.0733779 13.8596 -0.00277369 14.0513 7.72601e-05 14.2501V16.2501C7.72601e-05 17.76 1.24019 19.0001 2.75008 19.0001H15.2501C16.76 19.0001 18.0001 17.76 18.0001 16.2501V14.2501C18.0015 14.1507 17.9831 14.052 17.9461 13.9598C17.909 13.8676 17.854 13.7836 17.7842 13.7129C17.7144 13.6421 17.6313 13.5859 17.5396 13.5475C17.4479 13.5092 17.3495 13.4894 17.2501 13.4894C17.1507 13.4894 17.0523 13.5092 16.9606 13.5475C16.8689 13.5859 16.7857 13.6421 16.716 13.7129C16.6462 13.7836 16.5912 13.8676 16.5541 13.9598C16.517 14.052 16.4987 14.1507 16.5001 14.2501V16.2501C16.5001 16.9492 15.9492 17.5001 15.2501 17.5001H2.75008C2.05096 17.5001 1.50008 16.9492 1.50008 16.2501V14.2501C1.50152 14.1497 1.48279 14.0501 1.44501 13.957C1.40723 13.864 1.35116 13.7796 1.28012 13.7086C1.20909 13.6377 1.12454 13.5817 1.03147 13.544C0.938414 13.5064 0.838739 13.4878 0.738358 13.4893Z" fill="#0B132B"/>
</svg>
