<svg width="19" height="21" viewBox="0 0 19 21" fill="none" xmlns="http://www.w3.org/2000/svg">
    <path d="M8 0C5.24746 0 3 2.24746 3 5C3 7.75254 5.24746 10 8 10C10.7525 10 13 7.75254 13 5C13 2.24746 10.7525 0 8 0ZM8 1.5C9.94188 1.5 11.5 3.05812 11.5 5C11.5 6.94188 9.94188 8.5 8 8.5C6.05812 8.5 4.5 6.94188 4.5 5C4.5 3.05812 6.05812 1.5 8 1.5ZM15 11.0498C12.8 11.0498 11 12.8498 11 15.0498C11 15.8998 11.2502 16.6498 11.7002 17.2998L9.25 19.75C8.95 20 8.9502 20.4998 9.2002 20.7998C9.35019 20.9498 9.55 21 9.75 21C9.95 21 10.1498 20.9498 10.2998 20.7998L12.75 18.3496C13.4 18.7996 14.15 19.0498 15 19.0498C17.2 19.0498 19 17.2498 19 15.0498C19 12.8498 17.2 11.0498 15 11.0498ZM2.25 12C1 12 0 13 0 14.25V15C0 17.8 3.5 20 8 20C8.1 19.65 8.25 19.3 8.5 19L9.0498 18.4502C8.7498 18.5002 8.35 18.5 8 18.5C4.5 18.5 1.5 16.9 1.5 15V14.25C1.5 13.85 1.85 13.5 2.25 13.5H10.25C10.4 12.95 10.6998 12.45 11.0498 12H2.25ZM15 12.5C16.4 12.5 17.5 13.6 17.5 15C17.5 16.4 16.4 17.5 15 17.5C13.6 17.5 12.5 16.4 12.5 15C12.5 13.6 13.6 12.5 15 12.5Z" fill="#A9AFC6"/>
</svg>
