<svg width="19" height="21" viewBox="0 0 19 21" fill="none" xmlns="http://www.w3.org/2000/svg">
<path d="M8 0C6.67392 0 5.40215 0.526784 4.46447 1.46447C3.52678 2.40215 3 3.67392 3 5C3 6.32608 3.52678 7.59785 4.46447 8.53553C5.40215 9.47322 6.67392 10 8 10C9.32608 10 10.5979 9.47322 11.5355 8.53553C12.4732 7.59785 13 6.32608 13 5C13 3.67392 12.4732 2.40215 11.5355 1.46447C10.5979 0.526784 9.32608 0 8 0ZM15 11.0498C12.8 11.0498 11 12.8498 11 15.0498C11 15.8998 11.2502 16.6498 11.7002 17.2998L9.25 19.75C8.95 20 8.9502 20.4998 9.2002 20.7998C9.35019 20.9498 9.55 21 9.75 21C9.95 21 10.1498 20.9498 10.2998 20.7998L12.75 18.3496C13.4 18.7996 14.15 19.0498 15 19.0498C17.2 19.0498 19 17.2498 19 15.0498C19 12.8498 17.2 11.0498 15 11.0498ZM2.25 12C1 12 0 13 0 14.25V15C0 17.8 3.5 20 8 20C8.1 19.65 8.25 19.3 8.5 19L10.4502 17.0498C10.1502 16.4498 10 15.7 10 15C10 13.85 10.4 12.85 11 12H2.25ZM15 12.5C16.4 12.5 17.5 13.6 17.5 15C17.5 16.4 16.4 17.5 15 17.5C13.6 17.5 12.5 16.4 12.5 15C12.5 13.6 13.6 12.5 15 12.5Z" fill="#0B132B"/>
</svg>
