<svg width="19" height="17" viewBox="0 0 19 17" fill="none" xmlns="http://www.w3.org/2000/svg">
<path d="M11.2648 16.5068C11.4596 16.5011 11.6445 16.4198 11.7804 16.2802L18.7804 9.2802C18.921 9.13955 19 8.94881 19 8.74993C19 8.55105 18.921 8.36032 18.7804 8.21966L11.7804 1.21966C11.7113 1.14768 11.6285 1.09021 11.5369 1.05063C11.4453 1.01104 11.3468 0.990126 11.247 0.989112C11.1472 0.988097 11.0482 1.007 10.9558 1.04472C10.8635 1.08244 10.7795 1.13821 10.709 1.20876C10.6384 1.27932 10.5826 1.36325 10.5449 1.45563C10.5072 1.54801 10.4883 1.64699 10.4893 1.74677C10.4903 1.84655 10.5113 1.94513 10.5508 2.03672C10.5904 2.12832 10.6479 2.21109 10.7199 2.2802L16.4396 7.99993L1.75015 7.99993C1.65076 7.99853 1.55209 8.01689 1.45987 8.05395C1.36764 8.09101 1.2837 8.14603 1.21292 8.21581C1.14215 8.2856 1.08594 8.36875 1.04758 8.46044C1.00922 8.55214 0.989467 8.65054 0.989467 8.74993C0.989467 8.84933 1.00922 8.94773 1.04758 9.03942C1.08594 9.13112 1.14215 9.21427 1.21292 9.28405C1.2837 9.35384 1.36764 9.40886 1.45987 9.44592C1.55209 9.48298 1.65076 9.50134 1.75015 9.49993L16.4396 9.49993L10.7199 15.2197C10.6117 15.325 10.5378 15.4606 10.5079 15.6087C10.4781 15.7567 10.4936 15.9104 10.5525 16.0494C10.6114 16.1885 10.7109 16.3066 10.838 16.3882C10.9651 16.4698 11.1138 16.5111 11.2648 16.5068V16.5068Z" fill="white"/>
</svg>
