<svg width="22" height="18" viewBox="0 0 22 18" fill="none" xmlns="http://www.w3.org/2000/svg">
    <path d="M3.25 0.5C1.74011 0.5 0.5 1.74011 0.5 3.25V12.25C0.5 13.7599 1.74011 15 3.25 15H18.75C20.2599 15 21.5 13.7599 21.5 12.25V3.25C21.5 1.74011 20.2599 0.5 18.75 0.5H3.25ZM3.25 2H18.75C19.4491 2 20 2.55089 20 3.25V12.25C20 12.9491 19.4491 13.5 18.75 13.5H3.25C2.55089 13.5 2 12.9491 2 12.25V3.25C2 2.55089 2.55089 2 3.25 2ZM6.75 16.5C6.65062 16.4986 6.55194 16.517 6.45972 16.554C6.36749 16.5911 6.28355 16.6461 6.21277 16.7159C6.142 16.7857 6.08579 16.8688 6.04743 16.9605C6.00907 17.0522 5.98932 17.1506 5.98932 17.25C5.98932 17.3494 6.00907 17.4478 6.04743 17.5395C6.08579 17.6312 6.142 17.7143 6.21277 17.7841C6.28355 17.8539 6.36749 17.9089 6.45972 17.946C6.55194 17.983 6.65062 18.0014 6.75 18H15.25C15.3494 18.0014 15.4481 17.983 15.5403 17.946C15.6325 17.9089 15.7164 17.8539 15.7872 17.7841C15.858 17.7143 15.9142 17.6312 15.9526 17.5395C15.9909 17.4478 16.0107 17.3494 16.0107 17.25C16.0107 17.1506 15.9909 17.0522 15.9526 16.9605C15.9142 16.8688 15.858 16.7857 15.7872 16.7159C15.7164 16.6461 15.6325 16.5911 15.5403 16.554C15.4481 16.517 15.3494 16.4986 15.25 16.5H6.75Z" fill="white"/>
</svg>
