<svg width="10" height="8" viewBox="0 0 10 8" fill="none" xmlns="http://www.w3.org/2000/svg">
    <path d="M8.98967 0.995335C8.85977 0.999205 8.73648 1.05349 8.64592 1.1467L3.49943 6.29319L1.85295 4.6467C1.80687 4.59872 1.75169 4.5604 1.69063 4.53401C1.62956 4.50762 1.56385 4.49368 1.49732 4.493C1.4308 4.49232 1.36482 4.50493 1.30323 4.53007C1.24164 4.55521 1.18569 4.5924 1.13865 4.63943C1.09161 4.68647 1.05443 4.74243 1.02928 4.80401C1.00414 4.8656 0.991537 4.93159 0.992213 4.99811C0.99289 5.06463 1.00683 5.13035 1.03323 5.19141C1.05962 5.25248 1.09793 5.30766 1.14592 5.35373L3.14592 7.35373C3.23969 7.44747 3.36685 7.50012 3.49943 7.50012C3.63202 7.50012 3.75918 7.44747 3.85295 7.35373L9.35295 1.85373C9.4252 1.7835 9.47455 1.69308 9.49453 1.59432C9.51451 1.49556 9.50418 1.39307 9.46491 1.30028C9.42564 1.20748 9.35926 1.12872 9.27445 1.0743C9.18965 1.01989 9.09038 0.992364 8.98967 0.995335Z" fill="#697087"/>
</svg>
