<svg width="22" height="22" viewBox="0 0 22 22" fill="none" xmlns="http://www.w3.org/2000/svg">
    <path d="M10.9872 0.489349C10.7885 0.492454 10.5991 0.574317 10.4607 0.716956C10.3223 0.859595 10.2461 1.05135 10.249 1.25009V2.03818C5.88533 2.40085 2.39972 5.88646 2.03705 10.2501H1.24896C1.14958 10.2487 1.05091 10.267 0.958681 10.3041C0.866455 10.3412 0.782514 10.3962 0.711737 10.466C0.640959 10.5358 0.584757 10.6189 0.546397 10.7106C0.508036 10.8023 0.488281 10.9007 0.488281 11.0001C0.488281 11.0995 0.508036 11.1979 0.546397 11.2896C0.584757 11.3813 0.640959 11.4644 0.711737 11.5342C0.782514 11.604 0.866455 11.659 0.958681 11.6961C1.05091 11.7331 1.14958 11.7515 1.24896 11.7501H2.03705C2.39972 16.1137 5.88533 19.5993 10.249 19.962V20.7501C10.2476 20.8495 10.2659 20.9481 10.303 21.0404C10.34 21.1326 10.3951 21.2165 10.4648 21.2873C10.5346 21.3581 10.6178 21.4143 10.7095 21.4527C10.8012 21.491 10.8996 21.5108 10.999 21.5108C11.0984 21.5108 11.1968 21.491 11.2885 21.4527C11.3801 21.4143 11.4633 21.3581 11.5331 21.2873C11.6029 21.2165 11.6579 21.1326 11.6949 21.0404C11.732 20.9481 11.7504 20.8495 11.749 20.7501V19.962C13.6271 19.8059 15.3447 19.0777 16.7197 17.9425C18.5393 16.4401 19.7543 14.2356 19.9609 11.7501H20.749C20.7741 11.7504 20.7992 11.7494 20.8242 11.7472C21.0171 11.7297 21.1959 11.6383 21.3229 11.492C21.45 11.3458 21.5156 11.156 21.5058 10.9625C21.4961 10.769 21.4119 10.5867 21.2708 10.4539C21.1297 10.3211 20.9427 10.2481 20.749 10.2501H19.9609C19.9562 10.1943 19.9578 10.1367 19.9521 10.0811C19.675 7.36197 18.1823 4.99642 16.0273 3.53915C14.786 2.69979 13.3234 2.16903 11.749 2.03818V1.25009C11.7504 1.14971 11.7317 1.05006 11.6939 0.957046C11.6561 0.864034 11.6 0.779553 11.529 0.70861C11.458 0.637666 11.3734 0.581705 11.2804 0.544042C11.1873 0.506379 11.0876 0.487781 10.9872 0.489349V0.489349ZM10.249 3.53818V4.25009C10.2476 4.34948 10.2659 4.44815 10.303 4.54037C10.34 4.6326 10.3951 4.71654 10.4648 4.78732C10.5346 4.8581 10.6178 4.9143 10.7095 4.95266C10.8012 4.99102 10.8996 5.01077 10.999 5.01077C11.0984 5.01077 11.1968 4.99102 11.2885 4.95266C11.3801 4.9143 11.4633 4.8581 11.5331 4.78732C11.6029 4.71654 11.6579 4.6326 11.6949 4.54037C11.732 4.44815 11.7504 4.34948 11.749 4.25009V3.53818C13.0187 3.66348 14.1941 4.10217 15.1962 4.77841C16.393 5.586 17.3428 6.73068 17.9111 8.07724C18.1952 8.75052 18.3833 9.47388 18.4599 10.2315C18.4605 10.2376 18.4603 10.244 18.4609 10.2501H17.749C17.6496 10.2487 17.5509 10.267 17.4587 10.3041C17.3665 10.3412 17.2825 10.3962 17.2117 10.466C17.141 10.5358 17.0848 10.6189 17.0464 10.7106C17.008 10.8023 16.9883 10.9007 16.9883 11.0001C16.9883 11.0995 17.008 11.1979 17.0464 11.2896C17.0848 11.3813 17.141 11.4644 17.2117 11.5342C17.2825 11.604 17.3665 11.659 17.4587 11.6961C17.5509 11.7331 17.6496 11.7515 17.749 11.7501H18.4609C18.4104 12.2617 18.3106 12.7577 18.163 13.2335C17.7257 14.6438 16.884 15.8741 15.7734 16.7901C14.6627 17.7062 13.2828 18.3078 11.7675 18.461C11.7614 18.4616 11.7551 18.4614 11.749 18.462V17.7501C11.7504 17.6497 11.7317 17.5501 11.6939 17.457C11.6561 17.364 11.6 17.2796 11.529 17.2086C11.458 17.1377 11.3734 17.0817 11.2804 17.044C11.1873 17.0064 11.0876 16.9878 10.9872 16.9893C10.7885 16.9925 10.5991 17.0743 10.4607 17.217C10.3223 17.3596 10.2461 17.5513 10.249 17.7501V18.462C9.99013 18.4365 9.73561 18.3988 9.48529 18.3477C6.30193 17.6986 3.86187 15.0417 3.53705 11.7501H4.24896C4.27406 11.7504 4.29916 11.7494 4.32416 11.7472C4.51713 11.7297 4.69587 11.6383 4.82294 11.492C4.95001 11.3458 5.01555 11.156 5.00583 10.9625C4.99611 10.769 4.91189 10.5867 4.7708 10.4539C4.62971 10.3211 4.44271 10.2481 4.24896 10.2501H3.53705C3.53765 10.244 3.53741 10.2376 3.53803 10.2315C3.89623 6.68973 6.70461 3.88794 10.249 3.53818ZM10.999 8.50009C10.2281 8.50009 9.55504 8.81616 9.12592 9.29892C8.6968 9.78168 8.49896 10.3959 8.49896 11.0001C8.49896 11.6043 8.6968 12.2185 9.12592 12.7013C9.55504 13.184 10.2281 13.5001 10.999 13.5001C11.7698 13.5001 12.4429 13.184 12.872 12.7013C13.3011 12.2185 13.499 11.6043 13.499 11.0001C13.499 10.3959 13.3011 9.78168 12.872 9.29892C12.4429 8.81616 11.7698 8.50009 10.999 8.50009ZM10.999 10.0001C11.3948 10.0001 11.5967 10.1215 11.7509 10.295C11.9051 10.4685 11.999 10.7293 11.999 11.0001C11.999 11.2709 11.9051 11.5317 11.7509 11.7052C11.5967 11.8787 11.3948 12.0001 10.999 12.0001C10.6031 12.0001 10.4012 11.8787 10.247 11.7052C10.0928 11.5317 9.99896 11.2709 9.99896 11.0001C9.99896 10.9324 10.0044 10.8651 10.0156 10.7999C10.0492 10.6042 10.1314 10.4251 10.247 10.295C10.4012 10.1215 10.6031 10.0001 10.999 10.0001Z" fill="#0B132B"/>
</svg>
