<svg width="20" height="20" viewBox="0 0 20 20" fill="none" xmlns="http://www.w3.org/2000/svg">
<path d="M12.3301 2.25724L15.0743 5.00141H7.91927C7.45927 5.00141 7.08594 5.37474 7.08594 5.83474C7.08594 6.29474 7.45927 6.66807 7.91927 6.66807H15.0743L12.3301 9.41224C12.0047 9.73724 12.0047 10.2656 12.3301 10.5906C12.6555 10.916 13.183 10.916 13.5084 10.5906L17.6751 6.42391C17.838 6.26141 17.9193 6.04807 17.9193 5.83474C17.9193 5.62141 17.838 5.40807 17.6751 5.24557L13.5084 1.07891C13.183 0.753489 12.6555 0.753489 12.3301 1.07891C12.0047 1.40391 12.0047 1.93224 12.3301 2.25724ZM2.08594 5.83474C2.08594 6.05575 2.17373 6.26771 2.33002 6.424C2.4863 6.58028 2.69826 6.66807 2.91927 6.66807C3.14028 6.66807 3.35225 6.58028 3.50853 6.424C3.66481 6.26771 3.7526 6.05575 3.7526 5.83474C3.7526 5.61372 3.66481 5.40176 3.50853 5.24548C3.35225 5.0892 3.14028 5.00141 2.91927 5.00141C2.69826 5.00141 2.4863 5.0892 2.33002 5.24548C2.17373 5.40176 2.08594 5.61372 2.08594 5.83474ZM4.58594 5.83474C4.58594 6.05575 4.67373 6.26771 4.83002 6.424C4.9863 6.58028 5.19826 6.66807 5.41927 6.66807C5.64028 6.66807 5.85225 6.58028 6.00853 6.424C6.16481 6.26771 6.2526 6.05575 6.2526 5.83474C6.2526 5.61372 6.16481 5.40176 6.00853 5.24548C5.85225 5.0892 5.64028 5.00141 5.41927 5.00141C5.19826 5.00141 4.9863 5.0892 4.83002 5.24548C4.67373 5.40176 4.58594 5.61372 4.58594 5.83474ZM4.93094 15.0014H12.0859C12.5459 15.0014 12.9193 14.6281 12.9193 14.1681C12.9193 13.7081 12.5459 13.3347 12.0859 13.3347H4.93094L7.6751 10.5906C7.83802 10.4281 7.91927 10.2147 7.91927 10.0014C7.91927 9.78807 7.83802 9.57474 7.6751 9.41224C7.34969 9.08682 6.82219 9.08682 6.49677 9.41224L2.3301 13.5789C2.00469 13.9039 2.00469 14.4322 2.3301 14.7572L6.49677 18.9239C6.82219 19.2493 7.34969 19.2493 7.6751 18.9239C8.00052 18.5989 8.00052 18.0706 7.6751 17.7456L4.93094 15.0014ZM16.2526 14.1681C16.2526 14.3891 16.3404 14.601 16.4967 14.7573C16.653 14.9136 16.8649 15.0014 17.0859 15.0014C17.307 15.0014 17.5189 14.9136 17.6752 14.7573C17.8315 14.601 17.9193 14.3891 17.9193 14.1681C17.9193 13.9471 17.8315 13.7351 17.6752 13.5788C17.5189 13.4225 17.307 13.3347 17.0859 13.3347C16.8649 13.3347 16.653 13.4225 16.4967 13.5788C16.3404 13.7351 16.2526 13.9471 16.2526 14.1681ZM13.7526 14.1681C13.7526 14.3891 13.8404 14.601 13.9967 14.7573C14.153 14.9136 14.3649 15.0014 14.5859 15.0014C14.807 15.0014 15.0189 14.9136 15.1752 14.7573C15.3315 14.601 15.4193 14.3891 15.4193 14.1681C15.4193 13.9471 15.3315 13.7351 15.1752 13.5788C15.0189 13.4225 14.807 13.3347 14.5859 13.3347C14.3649 13.3347 14.153 13.4225 13.9967 13.5788C13.8404 13.7351 13.7526 13.9471 13.7526 14.1681Z" fill="#7F7F87"/>
</svg>
