<svg width="12" height="14" viewBox="0 0 12 14" fill="none" xmlns="http://www.w3.org/2000/svg">
    <path d="M6.01294 0.584197C5.90013 0.580677 5.79032 0.620885 5.70646 0.696421C5.70646 0.696421 3.51666 2.62586 0.894531 2.62586C0.778503 2.62587 0.66723 2.67197 0.585185 2.75402C0.50314 2.83606 0.457043 2.94733 0.457031 3.06336V6.63913C0.457031 8.58689 1.35811 11.7919 5.82894 13.675C5.88268 13.6976 5.94039 13.7093 5.9987 13.7093C6.057 13.7093 6.11472 13.6976 6.16846 13.675C10.6393 11.7919 11.5404 8.58689 11.5404 6.63913V3.06336C11.5404 2.94733 11.4943 2.83606 11.4122 2.75402C11.3302 2.67197 11.2189 2.62587 11.1029 2.62586C8.48073 2.62586 6.29093 0.696421 6.29093 0.696421C6.21438 0.627444 6.11593 0.587702 6.01294 0.584197ZM8.18563 5.25086C8.29755 5.25086 8.4095 5.29358 8.49495 5.37904C8.66587 5.54966 8.66587 5.82706 8.49495 5.99769L5.57829 8.91435C5.49341 8.99981 5.38153 9.04253 5.26953 9.04253C5.15753 9.04253 5.04566 8.99981 4.96021 8.91435L3.50187 7.45602C3.33096 7.2854 3.33096 7.00799 3.50187 6.83737C3.67279 6.66645 3.94961 6.66645 4.12052 6.83737L5.26896 7.98638L7.8763 5.37904C7.96176 5.29358 8.0737 5.25086 8.18563 5.25086Z" fill="#2F80ED"/>
</svg>
