<svg width="18" height="18" viewBox="0 0 18 18" fill="none" xmlns="http://www.w3.org/2000/svg">
<circle cx="9" cy="9" r="8.5" fill="#2F80ED" stroke="white"/>
<g clip-path="url(#clip0_997_40047)">
<path d="M9.01042 4.10954C8.92447 4.10686 8.8408 4.13749 8.77691 4.19504C8.77691 4.19504 7.10849 5.66509 5.11068 5.66509C5.02227 5.6651 4.93749 5.70022 4.87498 5.76273C4.81247 5.82524 4.77735 5.91002 4.77734 5.99843V8.72282C4.77734 10.2068 5.46388 12.6487 8.87023 14.0835C8.91117 14.1007 8.95514 14.1096 8.99957 14.1096C9.04399 14.1096 9.08796 14.1007 9.12891 14.0835C12.5353 12.6487 13.2218 10.2068 13.2218 8.72282V5.99843C13.2218 5.91002 13.1867 5.82524 13.1241 5.76273C13.0616 5.70022 12.9769 5.6651 12.8885 5.66509C10.8906 5.66509 9.22222 4.19504 9.22222 4.19504C9.16389 4.14249 9.08888 4.11221 9.01042 4.10954ZM10.6658 7.66509C10.7511 7.66509 10.8364 7.69764 10.9015 7.76275C11.0317 7.89275 11.0317 8.1041 10.9015 8.2341L8.67925 10.4563C8.61459 10.5214 8.52934 10.554 8.44401 10.554C8.35868 10.554 8.27344 10.5214 8.20833 10.4563L7.09722 9.34521C6.967 9.21521 6.967 9.00386 7.09722 8.87386C7.22744 8.74364 7.43835 8.74364 7.56858 8.87386L8.44358 9.74929L10.4301 7.76275C10.4952 7.69764 10.5805 7.66509 10.6658 7.66509Z" fill="white"/>
</g>
<defs>
<clipPath id="clip0_997_40047">
<rect width="10.6667" height="10.6667" fill="white" transform="translate(3.66797 3.66602)"/>
</clipPath>
</defs>
</svg>
