<svg width="20" height="16" viewBox="0 0 20 16" fill="none" xmlns="http://www.w3.org/2000/svg">
    <path d="M3.25 0.5C1.46403 0.5 0 1.96403 0 3.75V12.25C0 14.036 1.46403 15.5 3.25 15.5H11.75C13.536 15.5 15 14.036 15 12.25V11.5752L18.8643 13.8936C18.9781 13.9618 19.108 13.9986 19.2407 14.0002C19.3735 14.0019 19.5042 13.9683 19.6197 13.9028C19.7352 13.8374 19.8312 13.7425 19.898 13.6278C19.9649 13.5131 20 13.3827 20 13.25V2.75C20 2.64959 19.9799 2.5502 19.9408 2.45772C19.9017 2.36523 19.8445 2.28154 19.7724 2.21159C19.7004 2.14165 19.615 2.08688 19.5214 2.05053C19.4278 2.01419 19.3279 1.997 19.2275 2C19.0993 2.00384 18.9743 2.04049 18.8643 2.10645L15 4.4248V3.75C15 1.96403 13.536 0.5 11.75 0.5H3.25ZM3.25 2H11.75C12.725 2 13.5 2.77497 13.5 3.75V5.72656V10.2412V12.25C13.5 13.225 12.725 14 11.75 14H3.25C2.27497 14 1.5 13.225 1.5 12.25V3.75C1.5 2.77497 2.27497 2 3.25 2ZM18.5 4.0752V11.9248L15 9.8252V6.1748L18.5 4.0752Z" fill="white"/>
</svg>
