<svg width="22" height="22" viewBox="0 0 22 22" fill="none" xmlns="http://www.w3.org/2000/svg">
    <path d="M20.2355 0.993231C20.0407 0.998908 19.8558 1.08016 19.7198 1.21979L1.21984 19.7198C1.14786 19.7889 1.0904 19.8717 1.05081 19.9633C1.01122 20.0549 0.990311 20.1534 0.989297 20.2532C0.988282 20.353 1.00719 20.452 1.0449 20.5444C1.08262 20.6367 1.13839 20.7207 1.20895 20.7912C1.27951 20.8618 1.36344 20.9176 1.45582 20.9553C1.5482 20.993 1.64718 21.0119 1.74696 21.0109C1.84674 21.0099 1.94531 20.989 2.03691 20.9494C2.1285 20.9098 2.21128 20.8523 2.28039 20.7803L4.56066 18.5001H12.7501C14.5361 18.5001 16.0001 17.036 16.0001 15.2501V14.5753L19.8644 16.8936C19.9782 16.9619 20.1081 16.9987 20.2408 17.0003C20.3736 17.0019 20.5043 16.9683 20.6198 16.9029C20.7353 16.8374 20.8314 16.7425 20.8982 16.6278C20.965 16.5132 21.0002 16.3828 21.0001 16.2501V5.75007C21.0002 5.64966 20.98 5.55027 20.9409 5.45778C20.9018 5.3653 20.8446 5.2816 20.7725 5.21166C20.7005 5.14172 20.6152 5.08695 20.5216 5.0506C20.428 5.01425 20.328 4.99707 20.2277 5.00007C20.0995 5.00391 19.9744 5.04055 19.8644 5.10651L16.0001 7.42487V7.06061L20.7804 2.28034C20.8886 2.17496 20.9625 2.03938 20.9923 1.89132C21.0222 1.74327 21.0067 1.58965 20.9478 1.45056C20.8889 1.31148 20.7894 1.19341 20.6623 1.11181C20.5352 1.03021 20.3864 0.988883 20.2355 0.993231ZM4.25012 3.50007C2.45812 3.50007 1.00012 4.95807 1.00012 6.75007V15.2501C1.00012 15.9671 1.23695 16.6291 1.63195 17.1671L2.71887 16.0792C2.58337 15.8312 2.50012 15.5516 2.50012 15.2501V6.75007C2.50012 5.78507 3.28512 5.00007 4.25012 5.00007H12.7501C13.0516 5.00007 13.3312 5.08332 13.5792 5.21882L14.6671 4.1319C14.1291 3.7369 13.4671 3.50007 12.7501 3.50007H4.25012ZM19.5001 7.07526V14.9249L16.0001 12.8253V9.17487L19.5001 7.07526ZM14.5001 8.56061V8.72663V13.2413V15.2501C14.5001 16.2251 13.7251 17.0001 12.7501 17.0001H6.06066L14.5001 8.56061Z" fill="white"/>
</svg>
