<svg width="20" height="18" viewBox="0 0 20 18" fill="none" xmlns="http://www.w3.org/2000/svg">
    <path d="M11.9238 0.0156396C11.8078 0.000607422 11.688 0.00144641 11.5693 0.0185693C11.3321 0.0528148 11.0993 0.153527 10.9092 0.326187C10.9062 0.328768 10.9033 0.331372 10.9004 0.333999L6.66992 4.29689C6.53059 4.42745 6.34794 4.50001 6.15723 4.50001H2.25C1.01625 4.50001 0 5.51626 0 6.75001V11.25C0 12.4838 1.01625 13.5 2.25 13.5H6.15723C6.34794 13.5 6.53059 13.5726 6.66992 13.7031L10.9004 17.666C10.9033 17.6687 10.9062 17.6713 10.9092 17.6738C11.2894 18.0192 11.8413 18.076 12.2559 17.8926C12.6704 17.7091 13 17.2627 13 16.749V1.25099C13 0.737332 12.6705 0.290881 12.2559 0.107436C12.1522 0.0615752 12.0399 0.0306718 11.9238 0.0156396ZM11.5 1.82716V16.1729L7.69531 12.6084C7.27865 12.218 6.72852 12 6.15723 12H2.25C1.82675 12 1.5 11.6733 1.5 11.25V6.75001C1.5 6.32677 1.82675 6.00001 2.25 6.00001H6.15723C6.72852 6.00001 7.27865 5.78205 7.69531 5.39162L11.5 1.82716ZM17.624 2.78615C17.4876 2.78528 17.3535 2.82166 17.2362 2.89136C17.1188 2.96106 17.0228 3.06143 16.9583 3.18168C16.8938 3.30193 16.8633 3.4375 16.8701 3.57378C16.877 3.71006 16.9209 3.8419 16.9971 3.95509C17.9457 5.40782 18.5 7.1351 18.5 9.00001C18.5 10.8649 17.9457 12.5922 16.9971 14.0449C16.9398 14.1273 16.8996 14.2204 16.8789 14.3186C16.8583 14.4168 16.8575 14.5182 16.8767 14.6167C16.8959 14.7152 16.9347 14.8088 16.9908 14.8921C17.0468 14.9753 17.119 15.0465 17.2031 15.1013C17.2871 15.1562 17.3813 15.1936 17.4801 15.2114C17.5789 15.2291 17.6802 15.2269 17.7781 15.2048C17.876 15.1827 17.9685 15.1411 18.05 15.0827C18.1316 15.0242 18.2006 14.9499 18.2529 14.8643C19.3533 13.179 20 11.1631 20 9.00001C20 6.83693 19.3533 4.82102 18.2529 3.13576C18.1858 3.02944 18.093 2.94171 17.9831 2.88062C17.8732 2.81953 17.7498 2.78704 17.624 2.78615ZM15.5059 5.12892C15.3758 5.12715 15.2475 5.15923 15.1336 5.22201C15.0197 5.28479 14.9241 5.37612 14.8561 5.48702C14.7881 5.59792 14.7502 5.72459 14.746 5.85459C14.7417 5.98459 14.7714 6.11345 14.832 6.22853C15.2573 7.06386 15.5 8.00123 15.5 9.00001C15.5 9.9988 15.2573 10.9362 14.832 11.7715C14.7835 11.8596 14.7531 11.9565 14.7428 12.0565C14.7324 12.1566 14.7423 12.2577 14.7718 12.3538C14.8013 12.45 14.8498 12.5392 14.9145 12.6162C14.9792 12.6932 15.0587 12.7564 15.1483 12.8021C15.2379 12.8477 15.3358 12.8749 15.4361 12.882C15.5365 12.889 15.6372 12.8758 15.7323 12.8432C15.8274 12.8106 15.915 12.7591 15.9899 12.6919C16.0647 12.6248 16.1253 12.5432 16.168 12.4522C16.6947 11.4175 17 10.2432 17 9.00001C17 7.7568 16.6947 6.58253 16.168 5.54787C16.1069 5.42379 16.0128 5.319 15.896 5.24507C15.7791 5.17114 15.6441 5.13094 15.5059 5.12892Z" fill="white"/>
</svg>
