<svg width="18" height="18" viewBox="0 0 18 18" fill="none" xmlns="http://www.w3.org/2000/svg">
    <path d="M2.25003 7.50059e-05C1.07236 7.50059e-05 0.103241 0.928787 0.016634 2.08601C0.00508729 2.13992 -0.000480204 2.19494 3.2423e-05 2.25007V3.75007V4.50007V15.7501C3.2423e-05 16.9838 1.01628 18.0001 2.25003 18.0001H15.75C16.9838 18.0001 18 16.9838 18 15.7501V5.25007C18 4.01632 16.9838 3.00007 15.75 3.00007H2.25003C1.82678 3.00007 1.50003 2.67332 1.50003 2.25007C1.50003 1.82683 1.82678 1.50007 2.25003 1.50007H14.75C14.8494 1.50148 14.9481 1.48312 15.0403 1.44606C15.1325 1.409 15.2165 1.35398 15.2873 1.28419C15.358 1.21441 15.4142 1.13126 15.4526 1.03956C15.491 0.947871 15.5107 0.849469 15.5107 0.750075C15.5107 0.650681 15.491 0.552278 15.4526 0.460585C15.4142 0.368893 15.358 0.285738 15.2873 0.215955C15.2165 0.146172 15.1325 0.0911509 15.0403 0.0540906C14.9481 0.0170303 14.8494 -0.00133053 14.75 7.50059e-05H2.25003ZM1.50003 4.50007H2.25003H15.75C16.1733 4.50007 16.5 4.82682 16.5 5.25007V15.7501C16.5 16.1733 16.1733 16.5001 15.75 16.5001H2.25003C1.82678 16.5001 1.50003 16.1733 1.50003 15.7501V4.50007ZM13.75 9.00007C13.4185 9.00007 13.1006 9.13177 12.8661 9.36619C12.6317 9.60061 12.5 9.91855 12.5 10.2501C12.5 10.5816 12.6317 10.8995 12.8661 11.134C13.1006 11.3684 13.4185 11.5001 13.75 11.5001C14.0816 11.5001 14.3995 11.3684 14.6339 11.134C14.8683 10.8995 15 10.5816 15 10.2501C15 9.91855 14.8683 9.60061 14.6339 9.36619C14.3995 9.13177 14.0816 9.00007 13.75 9.00007Z" fill="#A9AFC6"/>
</svg>
