<svg width="22" height="14" viewBox="0 0 22 14" fill="none" xmlns="http://www.w3.org/2000/svg">
<path d="M4.30625 0.0700002C4.07441 0.0700002 3.88625 0.25816 3.88625 0.49V3.01C3.88625 3.24184 4.07441 3.43 4.30625 3.43H4.72625C5.65235 3.43 6.40625 2.67652 6.40625 1.75C6.40625 0.82348 5.65277 0.0700002 4.72625 0.0700002H4.30625ZM7.24625 0.0700002C7.01441 0.0700002 6.82625 0.25816 6.82625 0.49V3.01C6.82625 3.24184 7.01441 3.43 7.24625 3.43C7.47809 3.43 7.66625 3.24184 7.66625 3.01V0.49C7.66625 0.25816 7.47809 0.0700002 7.24625 0.0700002ZM8.50625 0.0700002C8.44829 0.0700002 8.39325 0.0815502 8.34301 0.102813C8.19228 0.1666 8.08625 0.31612 8.08625 0.49V3.01C8.08625 3.24184 8.27441 3.43 8.50625 3.43C8.73809 3.43 8.92625 3.24184 8.92625 3.01V2.59H9.34625L9.85074 3.26184C9.93348 3.37188 10.0594 3.43 10.1871 3.43C10.2744 3.43 10.3625 3.40303 10.4381 3.34633C10.6237 3.20731 10.662 2.9438 10.5226 2.75816L10.1641 2.28074C10.4326 2.04948 10.6062 1.71124 10.6062 1.33C10.6062 0.63532 10.0409 0.0700002 9.34625 0.0700002H8.50625ZM11.4462 0.0700002C11.2144 0.0700002 11.0262 0.25816 11.0262 0.49V3.01C11.0262 3.24184 11.2144 3.43 11.4462 3.43H12.7062C12.9381 3.43 13.1262 3.24184 13.1262 3.01C13.1262 2.77816 12.9381 2.59 12.7062 2.59H11.8663V2.17H12.4963C12.7281 2.17 12.9162 1.98184 12.9162 1.75C12.9162 1.51816 12.7281 1.33 12.4963 1.33H11.8663V0.91H12.7062C12.9381 0.91 13.1262 0.72184 13.1262 0.49C13.1262 0.25816 12.9381 0.0700002 12.7062 0.0700002H11.4462ZM14.9285 0.0700002C14.1662 0.0700002 13.5462 0.82348 13.5462 1.75C13.5462 2.67652 14.1662 3.43 14.9285 3.43C15.5362 3.43 15.9002 3.01817 16.0187 2.77457C16.1207 2.56625 16.0346 2.31472 15.8259 2.21266C15.6176 2.11102 15.3656 2.19711 15.264 2.40543C15.2631 2.40711 15.1633 2.59 14.9285 2.59C14.6395 2.59 14.3862 2.1973 14.3862 1.75C14.3862 1.3027 14.6395 0.91 14.9285 0.91C15.149 0.91 15.2483 1.06711 15.2681 1.10113C15.3718 1.30441 15.6197 1.38814 15.8259 1.28734C16.0342 1.1857 16.1207 0.93375 16.0187 0.72543C15.8998 0.48183 15.5362 0.0700002 14.9285 0.0700002ZM16.9062 0.0700002C16.6744 0.0700002 16.4862 0.25816 16.4862 0.49C16.4862 0.72184 16.6744 0.91 16.9062 0.91H17.3263V3.01C17.3263 3.24184 17.5144 3.43 17.7463 3.43C17.9781 3.43 18.1663 3.24184 18.1663 3.01V0.91H18.5863C18.8181 0.91 19.0063 0.72184 19.0063 0.49C19.0063 0.25816 18.8181 0.0700002 18.5863 0.0700002H16.9062ZM4.72625 0.91C5.18951 0.91 5.56625 1.28674 5.56625 1.75C5.56625 2.21326 5.18951 2.59 4.72625 2.59V0.91ZM8.92625 0.91H9.34625C9.57767 0.91 9.76625 1.09858 9.76625 1.33C9.76625 1.56142 9.57767 1.75 9.34625 1.75H8.92625V0.91ZM4.49 4.69C2.5258 4.69 0.92 6.2958 0.92 8.26V10.36C0.92 12.3242 2.5258 13.93 4.49 13.93H6.96652H8.67113H17.51C19.4742 13.93 21.08 12.3242 21.08 10.36V8.26C21.08 6.2958 19.4742 4.69 17.51 4.69H15.4535H14.5511H4.49ZM4.49 5.95H11.8375C11.3052 6.57392 10.9811 7.3801 10.9811 8.26V10.36C10.9811 11.6432 9.95438 12.67 8.67113 12.67H6.96652H4.49C3.20676 12.67 2.18 11.6432 2.18 10.36V8.26C2.18 6.97676 3.20676 5.95 4.49 5.95ZM14.5511 5.95H15.4535H17.51C18.7932 5.95 19.82 6.97676 19.82 8.26V10.36C19.82 11.6432 18.7932 12.67 17.51 12.67H11.3847C11.9171 12.0461 12.2411 11.2399 12.2411 10.36V8.26C12.2411 6.97676 13.2679 5.95 14.5511 5.95ZM9.02633 6.97867C8.73638 6.97867 8.50133 7.21372 8.50133 7.50367C8.50133 7.79362 8.73638 8.02867 9.02633 8.02867C9.31628 8.02867 9.55133 7.79362 9.55133 7.50367C9.55133 7.21372 9.31628 6.97867 9.02633 6.97867ZM17.8463 6.97867C17.5564 6.97867 17.3213 7.21372 17.3213 7.50367C17.3213 7.79362 17.5564 8.02867 17.8463 8.02867C18.1363 8.02867 18.3713 7.79362 18.3713 7.50367C18.3713 7.21372 18.1363 6.97867 17.8463 6.97867ZM14.0663 7.21C13.7765 7.21 13.5413 7.4452 13.5413 7.735V10.885C13.5413 11.1748 13.7765 11.41 14.0663 11.41C14.3561 11.41 14.5913 11.1748 14.5913 10.885V10.255H15.7463C16.0361 10.255 16.2713 10.0198 16.2713 9.73C16.2713 9.4402 16.0361 9.205 15.7463 9.205H14.5913V8.26H16.1663C16.4561 8.26 16.6913 8.0248 16.6913 7.735C16.6913 7.4452 16.4561 7.21 16.1663 7.21H14.0663ZM3.96664 7.22395C3.80917 7.223 3.65958 7.29278 3.55912 7.41406C3.45867 7.53534 3.41795 7.6953 3.4482 7.84984L4.01094 10.9572C4.05127 11.1788 4.22845 11.35 4.45131 11.3827C4.67417 11.4153 4.89304 11.3022 4.99531 11.1016L5.54 10.027L6.08469 11.1016C6.18696 11.3022 6.40583 11.4153 6.62869 11.3827C6.85155 11.35 7.02873 11.1788 7.06906 10.9572L7.6318 7.84984C7.66525 7.66519 7.59764 7.47672 7.45444 7.35544C7.31123 7.23416 7.1142 7.1985 6.93757 7.26191C6.76095 7.32531 6.63158 7.47814 6.5982 7.66281L6.31437 9.23207L6.0084 8.62832C5.91898 8.45178 5.7379 8.34051 5.54 8.34051C5.3421 8.34051 5.16102 8.45178 5.0716 8.62832L4.76562 9.23207L4.4818 7.66281C4.43983 7.41061 4.22231 7.2253 3.96664 7.22395ZM9.01812 8.46262C8.7285 8.46714 8.49725 8.70537 8.50133 8.995V10.885C8.49865 11.0743 8.59812 11.2504 8.76166 11.3459C8.9252 11.4413 9.12746 11.4413 9.29099 11.3459C9.45453 11.2504 9.55401 11.0743 9.55133 10.885V8.995C9.55333 8.85306 9.49777 8.71635 9.39731 8.61605C9.29685 8.51575 9.16006 8.4604 9.01812 8.46262ZM17.8381 8.46262C17.5485 8.46714 17.3172 8.70537 17.3213 8.995V10.885C17.3186 11.0743 17.4181 11.2504 17.5817 11.3459C17.7452 11.4413 17.9475 11.4413 18.111 11.3459C18.2745 11.2504 18.374 11.0743 18.3713 10.885V8.995C18.3733 8.85306 18.3178 8.71635 18.2173 8.61605C18.1169 8.51575 17.9801 8.4604 17.8381 8.46262Z" fill="black"/>
</svg>
